SplineFontDB: 3.0
FontName: Jokal-Regular
FullName: Jokal Regular
FamilyName: Jokal
Weight: Regular
Copyright: Copyright (c) 2011 by Bold Perspective. All rights reserved. Distributed under the SIL Open Font License: http://scripts.sil.org/OFL
Version: 001.001
ItalicAngle: 0
UnderlinePosition: -50
UnderlineWidth: 50
Ascent: 750
Descent: 250
sfntRevision: 0x00010000
LayerCount: 2
Layer: 0 0 "Back"  1
Layer: 1 0 "Fore"  0
XUID: [1021 288 713564382 11653709]
FSType: 0
OS2Version: 2
OS2_WeightWidthSlopeOnly: 0
OS2_UseTypoMetrics: 1
CreationTime: 1304357745
ModificationTime: 1305272760
PfmFamily: 17
TTFWeight: 400
TTFWidth: 5
LineGap: 0
VLineGap: 0
Panose: 2 0 0 0 0 0 0 0 0 0
OS2TypoAscent: 1122
OS2TypoAOffset: 0
OS2TypoDescent: -313
OS2TypoDOffset: 0
OS2TypoLinegap: 0
OS2WinAscent: 1122
OS2WinAOffset: 0
OS2WinDescent: 313
OS2WinDOffset: 0
HheadAscent: 1122
HheadAOffset: 0
HheadDescent: -313
HheadDOffset: 0
OS2SubXSize: 700
OS2SubYSize: 650
OS2SubXOff: 0
OS2SubYOff: 140
OS2SupXSize: 700
OS2SupYSize: 650
OS2SupXOff: 0
OS2SupYOff: 477
OS2StrikeYSize: 50
OS2StrikeYPos: 250
OS2Vendor: 'PYRS'
OS2CodePages: 20000111.00000000
OS2UnicodeRanges: 80000027.40000040.00000000.00000000
Lookup: 4 0 1 "'liga' Standard Ligatures in Latin lookup 0"  {"'liga' Standard Ligatures in Latin lookup 0 subtable"  } ['liga' ('latn' <'dflt' > ) ]
Lookup: 258 0 0 "'kern' Horizontal Kerning in Latin lookup 0"  {"'kern' Horizontal Kerning in Latin lookup 0 subtable"  } ['kern' ('latn' <'dflt' > ) ]
MarkAttachClasses: 1
DEI: 91125
LangName: 1033 "" "" "" "" "" "001.000" "" "Jokal is a trademark of Bold Perspective." "Bold Perspective" "Bold Perspective" "Copyright (c) 2011 by Bold Perspective. All rights reserved. Distributed under the SIL Open Font License: http://scripts.sil.org/OFL" "" "http://boldperspective.com" "Distrubted under the SIL Open Font License." "Distributed under the SIL Open Font License: http://scripts.sil.org/cms/scripts/page.php?site_id+AD0A-nrsi&id+AD0A-OFL" 

StartChar: d
Encoding: 100 100 4
Width: 470
Flags: MW
HStem: 0 39<168.5 236.5> 361 44<170.5 209.5 132 231.5>
VStem: 6 81<148.5 250 148.5 260.5> 325 82<0 137.5 51 137.5 106 137.5 137.5 277 277 277 339 559 510 559>
LayerCount: 2
Fore
SplineSet
407 100 m 0
 407 53 409 43 444 43 c 1
 444 30 444 0 444 0 c 1
 325 0 l 1
 325 51 l 1
 325 51 280 0 193 0 c 0
 106 0 6 75 6 199 c 0
 6 322 93 405 171 405 c 0
 248 405 325 339 325 339 c 1
 325 339 325 461 325 559 c 1
 289 559 l 1
 289 602 l 1
 289 602 369 673 385 690 c 1
 402 706 407 703 407 678 c 0
 407 669 407 175 407 100 c 0
325 106 m 1
 325 277 l 1
 325 277 262 361 201 361 c 0
 140 361 87 301 87 199 c 0
 87 98 131 39 206 39 c 0
 281 39 325 106 325 106 c 1
EndSplineSet
EndChar

StartChar: e
Encoding: 101 101 5
Width: 408
Flags: MW
HStem: 0 41<220 263.5 220 274> 359 50
VStem: 23 68
LayerCount: 2
Fore
SplineSet
320 138 m 0
 355 163 386 131 386 108 c 0
 386 66 341 0 207 0 c 0
 72 0 23 94 23 197 c 0
 23 299 114 409 211 409 c 0
 308 409 361 339 369 330 c 0
 377 321 384 309 368 295 c 2
 138 104 l 1
 165 66 201 41 239 41 c 0
 288 41 322 65 322 65 c 1
 322 65 279 109 320 138 c 0
91 236 m 0
 90 205 103 167 116 140 c 1
 306 292 l 1
 290 313 247 361 181 359 c 0
 98 356 93 275 91 236 c 0
EndSplineSet
EndChar

StartChar: f
Encoding: 102 102 6
Width: 264
Flags: MW
HStem: 0 43<20 40 173 193 20 40> 372 33<20 61 20 62 20 61 150 234> 657 43<183.5 240 136.5 242.5>
VStem: 61 89<405 496 480.5 496> 237 80<549 567.5>
LayerCount: 2
Fore
SplineSet
188 700 m 0
 292 700 317 608 317 555 c 0
 317 535 298 520 272 520 c 0xf8
 246 520 237 540 237 558 c 0
 237 577 251 591 274 591 c 1
 274 591 277 657 208 657 c 0
 159 657 150 599 150 496 c 0
 150 476 150 443 150 405 c 1
 234 405 l 1
 234 372 l 1
 150 372 l 1
 150 274 150 139 150 100 c 0
 150 49 152 43 194 43 c 1
 194 28 193 0 193 0 c 1
 20 0 l 1
 20 0 20 27 20 43 c 1
 60 43 62 50 62 99 c 0
 62 147 62 372 62 372 c 1
 20 372 l 1
 20 405 l 1
 61 405 l 1
 61 433 61 464 61 497 c 0
 61 607 85 700 188 700 c 0
EndSplineSet
EndChar

StartChar: g
Encoding: 103 103 7
Width: 427
Flags: MW
HStem: -298 31<168 227.5> -114 81<179 214 170 245.5> 54 43<181.5 218.5 173.5 245> 54 240<181.5 427> 367 41<176.5 219>
VStem: 20 55<-64.5 18.5> 20 87<203 269.5> 288 86<202 256> 313 61<-207 -167>
LayerCount: 2
Fore
SplineSet
197 408 m 0xdd
 299 408 326 294 427 294 c 1
 427 256 l 1
 374 256 l 1
 374 148 293 54 197 54 c 0
 166 54 141 60 115 76 c 1
 103 61 75 32 75 5 c 0
 75 -33 148 -33 192 -33 c 0
 236 -33 374 -5 374 -149 c 0
 374 -293 257 -298 198 -298 c 0
 138 -298 20 -272 20 -197 c 0
 20 -151 41 -119 71 -102 c 1
 41 -93 20 -81 20 -48 c 0
 20 0 49 54 88 95 c 1
 44 129 20 178 20 228 c 0
 20 311 95 408 197 408 c 0xdd
118 -111 m 1
 86 -125 81 -154 81 -177 c 0
 81 -208 120 -267 200 -267 c 0
 301 -267 313 -227 313 -187 c 0xea80
 313 -147 298 -114 193 -114 c 0
 165 -114 140 -113 118 -111 c 1
196 97 m 0
 241 97 288 161 288 243 c 0xed
 288 327 240 367 198 367 c 0
 155 367 107 329 107 231 c 0
 107 133 151 97 196 97 c 0
EndSplineSet
EndChar

StartChar: p
Encoding: 112 112 8
Width: 476
Flags: MW
HStem: -299 43<0 14.5 147 165 0 14.5> 0 44<244.5 282.5 222 321.5> 369 39<217.5 284.5>
VStem: 0 127<-299 -174 -264.5 -174 262 302> 34 93<-187 -174 -174 66 128 160.5 160.5 262 262 262> 367 81<156 258.5>
LayerCount: 2
Fore
SplineSet
260 408 m 0xf4
 348 408 448 332 448 208 c 0
 448 84 361 0 282 0 c 0
 207 0 131 62 127 66 c 1
 127 -49 127 -159 127 -189 c 0
 127 -245 129 -256 165 -256 c 1
 165 -280 165 -299 165 -299 c 1
 0 -299 l 1
 0 -299 0 -273 0 -256 c 1xf4
 29 -256 34 -251 34 -187 c 0
 34 -111 34 262 34 262 c 1xec
 0 262 l 1
 0 305 l 1
 0 305 87 374 103 390 c 0
 120 406 127 411 127 379 c 0
 127 376 127 368 127 357 c 1
 129 359 175 408 260 408 c 0xf4
252 44 m 0
 313 44 367 105 367 207 c 0
 367 310 322 369 247 369 c 0
 175 369 130 307 127 302 c 1
 127 255 127 193 127 128 c 1
 131 123 192 44 252 44 c 0
EndSplineSet
EndChar

StartChar: q
Encoding: 113 113 9
Width: 517
Flags: MW
HStem: -299 43<314 332 464.5 479 314 332> 0 44<197.5 235> 369 39<195 262 175 269>
VStem: 31 81<156 258.5 156 270> 353 93<-189 -149 -149 66 8.5 66 128 262> 353 126<-299 66 262 302 278.5 302>
LayerCount: 2
Fore
SplineSet
31 208 m 0xf8
 31 332 131 408 219 408 c 0
 305 408 350 359 353 357 c 1
 353 368 353 376 353 379 c 0
 353 411 360 406 376 390 c 0
 393 374 479 305 479 305 c 1
 479 262 l 1xf4
 446 262 l 1
 446 262 446 -111 446 -187 c 0xf8
 446 -251 450 -256 479 -256 c 1
 479 -273 479 -299 479 -299 c 1xf4
 314 -299 l 1
 314 -299 314 -280 314 -256 c 1
 350 -256 353 -245 353 -189 c 0
 353 -159 353 -49 353 66 c 1
 348 62 273 0 197 0 c 0
 119 0 31 84 31 208 c 0xf8
112 207 m 0
 112 105 167 44 228 44 c 0
 287 44 349 123 353 128 c 1
 353 193 353 255 353 302 c 1
 349 307 305 369 233 369 c 0
 157 369 112 310 112 207 c 0
EndSplineSet
EndChar

StartChar: h
Encoding: 104 104 10
Width: 466
Flags: MW
HStem: 0 43<0 13.5 0 13.5 138 154 274 292 415.5 430> 373 32<199 256.5>
VStem: 0 115<0 148.5 43 148.5 561 604 604 604> 33 82<101 148.5 148.5 284 348 561 561 561> 313 85<109 143 143 264 235.5 268>
LayerCount: 2
Fore
SplineSet
0 0 m 1xe8
 0 43 l 1xe8
 27 43 33 48 33 101 c 0
 33 175 33 561 33 561 c 1xd8
 0 561 l 1
 0 604 l 1
 0 604 78 674 93 688 c 0
 107 702 115 709 115 676 c 0
 115 643 115 348 115 348 c 1
 115 348 157 405 240 405 c 0
 323 405 398 343 398 268 c 0
 398 193 398 176 398 110 c 0
 398 49 401 43 430 43 c 1
 430 26 430 0 430 0 c 1
 274 0 l 1
 274 0 274 27 274 43 c 1
 310 43 313 51 313 109 c 0
 313 179 313 207 313 264 c 0
 313 321 280 373 233 373 c 0
 165 373 115 284 115 284 c 1
 115 284 115 185 115 112 c 0
 115 50 122 43 154 43 c 1
 154 21 154 0 154 0 c 1
 0 0 l 1xe8
EndSplineSet
EndChar

StartChar: i
Encoding: 105 105 11
Width: 243
Flags: MW
HStem: 0 43<44 63 183 199 44 63> 515 87<99.5 142>
VStem: 44 122<0 139.5 37 139.5 264 313 313 313> 82 84<112 139.5 139.5 264 264 264>
LayerCount: 2
Fore
SplineSet
121 602 m 0xe0
 164 602 164 570 164 558 c 0
 164 546 163 515 121 515 c 0
 78 515 76 548 76 560 c 0
 76 571 78 602 121 602 c 0xe0
166 112 m 0
 166 53 167 43 199 43 c 1
 199 23 199 0 199 0 c 1
 44 0 l 1
 44 0 44 31 44 43 c 1xe0
 82 43 82 53 82 112 c 0
 82 171 82 264 82 264 c 1xd0
 44 264 l 1
 44 313 l 1
 63 331 120 383 132 395 c 0
 147 409 166 422 166 372 c 2
 166 372 166 167 166 112 c 0
EndSplineSet
EndChar

StartChar: j
Encoding: 106 106 12
Width: 285
Flags: MW
HStem: -299 29<15.5 64.5 15.5 126.5> -226 82<-15 15.5> 512 86<139.5 181>
VStem: 112 82<-99 -52.5 -52.5 265 265 265>
LayerCount: 2
Fore
SplineSet
161 598 m 0
 202 598 203 567 203 555 c 0
 203 543 202 512 160 512 c 0
 118 512 116 545 116 557 c 0
 116 568 118 598 161 598 c 0
161 394 m 0
 175 408 194 421 194 371 c 0
 194 322 194 -10 194 -95 c 0
 194 -180 192 -299 61 -299 c 0
 -70 -299 -76 -144 -9 -144 c 0
 57 -144 46 -226 -15 -226 c 1
 -15 -226 -9 -270 40 -270 c 0
 89 -270 112 -238 112 -99 c 0
 112 41 112 265 112 265 c 1
 74 265 l 1
 74 313 l 1
 93 331 149 382 161 394 c 0
EndSplineSet
EndChar

StartChar: k
Encoding: 107 107 13
Width: 429
Flags: MW
HStem: 0 43<27 41.5 152.5 166 27 41.5 286 302 406.5 425> 213 42<138 164.5> 362 43<286 315 286 425 411 425>
VStem: 27 111<0 107.5 33 107.5 569 611 611 611> 58 80<104 107.5 107.5 213 255 335 335 569 569 569> 286 139<0 43 34.5 43 362 405>
LayerCount: 2
Fore
SplineSet
425 362 m 1xf4
 397 362 395 362 379 349 c 0
 364 337 250 242 250 242 c 1
 250 242 315 151 355 97 c 0
 395 43 388 43 425 43 c 1
 425 0 l 1
 286 0 l 1
 286 0 286 26 286 43 c 1
 318 43 318 45 305 63 c 1
 286 86 240 154 219 177 c 0
 199 199 191 213 138 213 c 1
 138 164 138 116 138 99 c 0
 138 48 139 43 166 43 c 1
 166 20 166 0 166 0 c 1
 27 0 l 1
 27 0 27 23 27 43 c 1xf4
 56 43 58 48 58 104 c 0
 58 179 58 569 58 569 c 1xec
 27 569 l 1
 27 611 l 1
 27 611 103 676 117 690 c 0
 131 704 138 709 138 669 c 0
 138 641 138 415 138 255 c 1
 209 255 245 284 266 300 c 0
 288 317 326 347 335 354 c 0
 344 361 330 362 315 362 c 0
 310 362 286 362 286 362 c 1
 286 405 l 1
 425 405 l 1
 425 405 425 375 425 362 c 1xf4
EndSplineSet
EndChar

StartChar: l
Encoding: 108 108 14
Width: 254
Flags: MW
HStem: 0 43<41 63.5 41 63.5 190 209>
VStem: 41 128<0 140 32 140 562 604 604 604> 90 79<108 140 140 562 562 562>
LayerCount: 2
Fore
SplineSet
41 0 m 1xc0
 41 0 41 21 41 43 c 1xc0
 86 43 90 49 90 108 c 0
 90 176 90 562 90 562 c 1xa0
 41 562 l 1
 41 604 l 1
 41 604 134 680 152 693 c 0
 169 705 169 702 169 681 c 0
 169 660 169 174 169 106 c 0
 169 51 171 43 209 43 c 1
 209 26 209 0 209 0 c 1
 41 0 l 1xc0
EndSplineSet
EndChar

StartChar: m
Encoding: 109 109 15
Width: 814
Flags: MW
HStem: 0 43<20 39 184.5 208 20 39 322 343.5 486.5 506 619 639 791 814> 363 45
VStem: 20 136<0 122 35.5 122> 61 95<106 122 122 252> 370 94<106 133 133 239 205.5 246 246 253> 666 97<102 138.5 138.5 241 220 241>
LayerCount: 2
Fore
SplineSet
763 105 m 0xec
 763 58 768 43 814 43 c 1
 814 13 814 0 814 0 c 1
 619 0 l 1
 619 0 619 9 619 43 c 1
 659 43 666 50 666 102 c 0
 666 168 666 188 666 252 c 0
 666 316 643 368 588 368 c 0
 537 368 488 300 464 253 c 0
 464 251 464 248 464 246 c 0
 464 186 464 164 464 102 c 0
 464 54 467 43 506 43 c 1
 506 19 506 0 506 0 c 1
 322 0 l 1
 322 0 322 23 322 43 c 1
 365 43 370 50 370 106 c 0
 370 172 370 172 370 239 c 0
 370 306 337 363 288 363 c 0
 241 363 177 299 156 252 c 1
 156 196 156 138 156 106 c 0
 156 51 161 43 208 43 c 1
 208 9 208 0 208 0 c 1
 20 0 l 1
 20 0 20 28 20 43 c 1xec
 58 43 61 50 61 106 c 0
 61 177 61 261 61 261 c 1xdc
 20 261 l 1
 20 304 l 1
 20 304 114 379 136 396 c 0
 157 412 156 400 156 380 c 0
 156 374 156 352 156 322 c 1
 189 359 223 403 311 403 c 0
 382 403 422 353 448 312 c 1
 489 374 518 408 605 408 c 0
 718 408 763 324 763 241 c 0
 763 181 763 172 763 105 c 0xec
EndSplineSet
EndChar

StartChar: n
Encoding: 110 110 16
Width: 557
Flags: MW
HStem: 0 43<36 54.5 36 200 36 54.5 337 353 488.5 511> 361 47<266 306>
VStem: 36 125<0 125 32 125> 77 84<108 125 125 250> 375 87<107 141.5 141.5 251 221.5 253>
LayerCount: 2
Fore
SplineSet
462 107 m 0xe8
 462 53 466 43 511 43 c 1
 511 23 511 0 511 0 c 1
 337 0 l 1
 337 0 337 25 337 43 c 1
 369 43 375 50 375 107 c 0
 375 172 375 192 375 251 c 0
 375 310 337 361 275 361 c 0
 227 361 179 283 161 250 c 1
 161 197 161 141 161 109 c 0
 161 53 165 46 200 46 c 1
 200 19 200 0 200 0 c 1
 36 0 l 1
 36 0 36 21 36 43 c 1xe8
 73 43 77 48 77 108 c 0
 77 181 77 262 77 262 c 1xd8
 36 262 l 1
 36 305 l 1
 36 305 119 383 140 399 c 0
 160 415 161 410 161 384 c 0
 161 377 161 357 161 331 c 1
 197 372 238 408 294 408 c 0
 359 408 462 347 462 253 c 0
 462 159 462 176 462 107 c 0xe8
EndSplineSet
EndChar

StartChar: o
Encoding: 111 111 17
Width: 450
Flags: MW
HStem: 0 34<153.5 234.5 153.5 264> 369 39<156 236>
VStem: -7 97<165.5 242.5 165.5 250> 302 93<166 242>
LayerCount: 2
Fore
SplineSet
194 408 m 0
 324 408 395 300 395 199 c 0
 395 99 331 0 197 0 c 0
 62 0 -7 100 -7 199 c 0
 -7 301 64 408 194 408 c 0
194 34 m 0
 275 34 302 128 302 204 c 0
 302 280 276 369 196 369 c 0
 116 369 90 281 90 204 c 0
 90 127 113 34 194 34 c 0
EndSplineSet
EndChar

StartChar: r
Encoding: 114 114 18
Width: 456
Flags: MW
HStem: 0 43<25 43 176.5 194 25 43> 252 156<266 395> 370 38<270.5 312>
VStem: 25 131<0 121.5 33 121.5 261 264> 64 92<104 121.5 121.5 261 261 261> 338 85<295.5 305.5>
LayerCount: 2
Fore
SplineSet
301 408 m 0xb4
 384 408 423 333 423 308 c 0
 423 283 410 252 380 252 c 0
 351 252 338 276 338 296 c 0
 338 315 354 337 365 337 c 1
 365 337 334 370 290 370 c 0
 251 370 186 317 156 264 c 1
 156 204 156 138 156 105 c 0
 156 49 159 43 194 43 c 1
 194 20 194 0 194 0 c 1
 25 0 l 1
 25 0 25 23 25 43 c 1xb4
 61 43 64 52 64 104 c 0
 64 172 64 261 64 261 c 1xcc
 25 261 l 1
 25 304 l 1
 25 304 113 381 135 396 c 0
 158 411 156 398 156 379 c 0
 156 374 156 354 156 328 c 1
 196 378 231 408 301 408 c 0xb4
EndSplineSet
EndChar

StartChar: s
Encoding: 115 115 19
Width: 352
Flags: MW
HStem: 0 40<133.5 228.5 133.5 231.5> 370 38<131.5 210 131.5 225>
LayerCount: 2
Fore
SplineSet
33 47 m 0
 29 58 27 81 27 96 c 0
 27 105 31 125 39 114 c 1
 64 72 91 40 176 40 c 0
 281 40 265 112 227 136 c 0
 206 149 154 177 101 206 c 0
 53 232 27 249 27 307 c 0
 27 365 92 408 171 408 c 0
 249 408 298 388 306 360 c 1
 312 335 311 323 311 309 c 0
 311 299 310 281 301 292 c 0
 278 318 272 370 178 370 c 0
 85 370 81 296 140 267 c 0
 188 243 215 233 270 202 c 0
 305 183 328 173 328 120 c 0
 328 73 285 0 178 0 c 0
 76 0 39 26 33 47 c 0
EndSplineSet
EndChar

StartChar: t
Encoding: 116 116 20
Width: 274
Flags: MW
HStem: 0 28<132 203> 365 43<11 59 11 11 146 243 146 146>
VStem: 59 87<109 365 365 365>
LayerCount: 2
Fore
SplineSet
243 408 m 1
 243 365 l 1
 146 365 l 1
 147 249 149 80 149 55 c 0
 149 36 170 28 192 28 c 0
 214 28 237 50 242 41 c 0
 248 28 233 17 226 12 c 0
 214 5 186 0 165 0 c 0
 99 0 59 35 59 109 c 0
 59 184 59 365 59 365 c 1
 11 365 l 1
 11 408 l 1
 11 408 91 395 127 483 c 0
 137 506 145 488 145 476 c 0
 145 467 145 442 145 408 c 1
 243 408 l 1
EndSplineSet
EndChar

StartChar: u
Encoding: 117 117 21
Width: 481
Flags: MW
HStem: 0 47<181.5 236>
VStem: 39 89<156 188 188 196 188 188 196 202 202 227 227 227 227 227> 342 83<76.5 265>
LayerCount: 2
Fore
SplineSet
457 48 m 0
 483 80 487 41 471 24 c 0
 455 8 440 0 403 0 c 0
 358 0 346 30 343 79 c 1
 307 38 264 0 208 0 c 0
 143 0 39 62 39 156 c 0
 39 168 39 179 39 188 c 1
 39 188 l 1
 39 196 l 2
 39 209 39 219 39 227 c 1
 39 227 l 1
 40 265 l 1
 0 265 l 1
 0 308 l 1
 0 308 94 393 104 403 c 0
 114 413 128 410 128 379 c 0
 128 314 128 230 128 174 c 0
 128 117 136 47 227 47 c 0
 273 47 322 123 342 159 c 1
 342 223 342 265 342 265 c 1
 342 265 340 320 345 339 c 0
 353 377 382 389 409 394 c 0
 426 397 428 396 428 366 c 0
 428 325 425 177 425 108 c 0
 425 45 431 15 457 48 c 0
EndSplineSet
EndChar

StartChar: v
Encoding: 118 118 22
Width: 471
Flags: MW
HStem: 0 21G<232.5 246.5> 368 40<145 157 319 339 454.5 471>
LayerCount: 2
Fore
SplineSet
241 0 m 0
 224 0 218 16 205 43 c 0
 192 69 89 273 65 321 c 0
 41 368 13 367 0 367 c 1
 0 408 l 1
 157 408 l 1
 157 368 l 1
 133 368 124 364 146 323 c 0
 168 281 255 116 255 116 c 1
 255 116 333 287 347 321 c 1
 360 356 359 368 319 368 c 1
 319 408 l 1
 471 408 l 1
 471 368 l 1
 438 368 413 368 390 318 c 0
 366 266 277 58 270 43 c 0
 263 27 252 0 241 0 c 0
EndSplineSet
EndChar

StartChar: w
Encoding: 119 119 23
Width: 742
Flags: MW
HStem: 0 21G<220.5 234.5 455.5 469.5> 367 41<-12 -5.5 133 145 223 229.5 369 381 543 562.5 677.5 694>
LayerCount: 2
Fore
SplineSet
543 408 m 1
 694 408 l 1
 694 367 l 1
 661 367 636 367 614 318 c 0
 590 266 501 58 494 43 c 0
 487 27 475 0 464 0 c 0
 447 0 442 16 428 43 c 0
 420 60 375 150 337 225 c 1
 303 147 263 53 258 43 c 0
 251 27 240 0 229 0 c 0
 212 0 206 16 193 43 c 0
 180 69 77 273 53 320 c 0
 29 367 1 367 -12 367 c 1
 -12 408 l 1
 145 408 l 1
 145 367 l 1
 121 367 112 364 134 323 c 0
 156 281 243 116 243 116 c 1
 243 116 286 209 313 272 c 1
 303 293 294 310 289 320 c 0
 265 367 236 367 223 367 c 1
 223 408 l 1
 381 408 l 1
 381 367 l 1
 357 367 347 364 369 323 c 0
 392 281 478 116 478 116 c 1
 478 116 557 287 570 321 c 0
 583 356 582 367 543 367 c 1
 543 408 l 1
EndSplineSet
EndChar

StartChar: x
Encoding: 120 120 24
Width: 459
Flags: MW
HStem: 0 43<0 29 155 160 0 29 302 314 438.5 459> 365 43<0 12.5 147 160 302 332.5 441.5 459>
VStem: 0 160<0 43 0 43 365 408> 302 157<0 43 0 43 365 408>
LayerCount: 2
Fore
SplineSet
459 365 m 1
 424 365 416 359 380 324 c 0
 364 308 316 255 266 202 c 1
 306 159 345 117 366 95 c 0
 417 44 418 43 459 43 c 1
 459 0 l 1
 302 0 l 1
 302 43 l 1
 326 43 332 46 284 93 c 0
 270 107 248 130 224 156 c 1
 183 112 149 75 140 66 c 0
 117 43 150 43 160 43 c 1
 160 0 l 1
 0 0 l 1
 0 43 l 1
 58 43 63 33 124 102 c 0
 144 125 171 154 199 183 c 1
 147 239 89 302 67 324 c 0
 31 360 25 365 0 365 c 1
 0 408 l 1
 160 408 l 1
 160 365 l 1
 134 365 121 361 142 339 c 0
 153 328 196 280 243 228 c 1
 286 272 325 311 340 326 c 0
 370 356 363 365 302 365 c 1
 302 408 l 1
 459 408 l 1
 459 365 l 1
EndSplineSet
EndChar

StartChar: y
Encoding: 121 121 25
Width: 454
Flags: MW
HStem: -299 29<63 104.5 63 113.5> -299 138<44.5 61 40.5 113.5> 366 42<0 8.5 0 158 288 325.5 441 454>
VStem: 0 90<-223 -195.5>
LayerCount: 2
Fore
SplineSet
288 408 m 1xb0
 454 408 l 1
 454 366 l 1
 428 366 419 363 388 294 c 0
 358 225 307 69 243 -97 c 0
 178 -264 148 -299 79 -299 c 0
 10 -299 0 -249 0 -213 c 0
 0 -178 30 -161 51 -161 c 0x70
 71 -161 90 -175 90 -207 c 0
 90 -239 59 -252 38 -252 c 1
 38 -252 47 -270 79 -270 c 0
 130 -270 166 -204 201 -98 c 0
 207 -81 214 -61 222 -39 c 1
 187 32 66 284 47 324 c 0
 25 371 17 366 0 366 c 1
 0 408 l 1
 158 408 l 1
 158 366 l 1
 158 362 l 1
 127 362 119 356 134 324 c 0
 147 297 231 128 260 69 c 1
 295 163 330 260 344 296 c 0
 369 363 363 366 288 366 c 1
 288 408 l 1xb0
EndSplineSet
EndChar

StartChar: z
Encoding: 122 122 26
Width: 466
Flags: MW
HStem: 0 38<189 329 329 347 189 386> 375 33<20 387 84.5 125.5 105 274>
LayerCount: 2
Fore
SplineSet
20 375 m 2
 20 408 33 408 52 408 c 0
 71 408 340 408 387 408 c 0
 433 408 438 373 381 312 c 0
 324 250 224 139 180 88 c 0
 137 38 142 38 189 38 c 0
 237 38 271 38 329 38 c 0
 365 38 393 53 398 84 c 0
 406 128 424 107 424 83 c 0
 424 34 424 53 424 38 c 0
 424 22 423 0 386 0 c 0
 349 0 100 0 53 0 c 0
 7 0 8 27 68 91 c 0
 128 154 245 283 283 326 c 0
 319 366 329 375 274 375 c 0
 220 375 146 375 105 375 c 0
 64 375 59 340 50 310 c 0
 37 266 20 276 20 308 c 0
 20 364 20 375 20 375 c 2
EndSplineSet
EndChar

StartChar: B
Encoding: 66 66 27
Width: 574
Flags: MW
HStem: 0 43<46 57.5 164 250 250 300 46 57.5> 377 28 405 31 659 41<46 60 164 300 164 164>
VStem: 71 93<97 377 436 602 578.5 626> 417 96<514.5 588> 450 63 450 87<147 245.5>
LayerCount: 2
Fore
SplineSet
71 602 m 0xd9
 71 650 74 659 46 659 c 1
 46 700 l 1
 46 700 247 700 348 700 c 0
 449 700 513 627 513 552 c 0xbc
 513 477 447 405 348 405 c 1
 348 405 l 1
 450 405 537 325 537 200 c 0
 537 74 449 0 300 0 c 0
 150 0 46 0 46 0 c 1
 46 0 46 21 46 43 c 1
 69 43 71 71 71 97 c 2
 71 97 71 555 71 602 c 0xd9
164 659 m 1
 164 436 l 1
 164 436 250 436 300 436 c 0
 349 436 417 478 417 551 c 0
 417 625 348 659 300 659 c 0
 251 659 164 659 164 659 c 1
250 43 m 2
 400 43 450 97 450 197 c 0
 450 294 402 377 251 377 c 0
 198 377 164 377 164 377 c 1xda
 164 43 l 1
 250 43 l 2
EndSplineSet
EndChar

StartChar: C
Encoding: 67 67 28
Width: 618
Flags: MW
HStem: 0 66<288.5 393.5 288.5 414> 636 64<285 385>
VStem: 32 102<253.5 448.5 253.5 453>
LayerCount: 2
Fore
SplineSet
134 350 m 0
 134 157 237 66 340 66 c 0
 447 66 525 119 544 174 c 0
 555 205 582 209 582 176 c 0
 582 105 489 0 339 0 c 0
 188 0 32 142 32 349 c 0
 32 557 188 700 336 700 c 0
 483 700 541 649 556 631 c 0
 571 613 582 591 582 541 c 0
 582 492 546 482 534 532 c 0
 521 582 435 636 335 636 c 0
 235 636 134 547 134 350 c 0
EndSplineSet
EndChar

StartChar: D
Encoding: 68 68 29
Width: 607
Flags: MW
HStem: 0 43<45 55.5 170 247 247 296 45 55.5> 657 43<45 55.5 170 170 170 243>
VStem: 75 95<101 602 578.5 625> 471 102<252 449.5>
LayerCount: 2
Fore
SplineSet
293 700 m 0
 442 700 573 555 573 353 c 0
 573 151 445 0 299 0 c 0
 152 0 45 0 45 0 c 1
 45 0 45 31 45 43 c 1
 66 43 75 55 75 101 c 0
 75 148 75 555 75 602 c 0
 75 648 66 657 45 657 c 1
 45 700 l 1
 45 700 143 700 293 700 c 0
247 43 m 0
 345 43 471 151 471 350 c 0
 471 549 345 657 243 657 c 0
 191 657 170 657 170 657 c 1
 170 43 l 1
 170 43 178 43 247 43 c 0
EndSplineSet
EndChar

StartChar: E
Encoding: 69 69 30
Width: 596
Flags: MW
HStem: 0 43<46 55.5 46 55.5 164 409 409 440> 0 169<46 539.5> 363 43<164 176 164 176 176 249> 531 169<46 539.5> 657 43<46 53.5 164 164 164 409>
VStem: 70 94<101 363 406 606 586.5 625.5>
LayerCount: 2
Fore
SplineSet
46 0 m 1x74
 46 0 46 24 46 43 c 1
 65 43 70 64 70 101 c 0
 70 138 70 567 70 606 c 0
 70 645 61 657 46 657 c 1xac
 46 700 l 1
 46 700 455 700 501 700 c 0
 546 700 546 694 546 633 c 0
 546 543 546 531 533 531 c 0xb4
 520 531 510 556 500 595 c 0
 490 634 471 657 409 657 c 0
 348 657 164 657 164 657 c 1
 164 406 l 1
 176 406 l 2
 187 406 212 406 251 406 c 0
 307 406 303 479 303 479 c 1
 346 479 l 1
 346 282 l 1
 299 282 l 1
 299 282 307 363 249 363 c 0
 220 363 194 363 176 363 c 2
 164 363 l 1
 164 43 l 1
 164 43 348 43 409 43 c 0xac
 471 43 490 66 500 105 c 0
 510 144 520 169 533 169 c 0
 546 169 546 157 546 67 c 0
 546 6 546 0 501 0 c 0
 455 0 46 0 46 0 c 1x74
EndSplineSet
EndChar

StartChar: F
Encoding: 70 70 31
Width: 544
Flags: MW
HStem: 0 21G<46 196 46 46> 363 42<169 242 169 177.5> 531 169<46 530.5> 657 43<46 492 169 400 169 169>
VStem: 46 123<0 125 43 125> 76 93<112 125 125 363 405 594 560 628>
LayerCount: 2
Fore
SplineSet
492 700 m 0xd8
 537 700 537 694 537 633 c 0
 537 543 537 531 524 531 c 0xe8
 511 531 501 556 491 595 c 0
 481 634 462 657 400 657 c 0
 339 657 169 657 169 657 c 1
 169 657 169 527 169 405 c 1
 179 405 204 405 243 405 c 0
 300 405 295 479 295 479 c 1
 338 479 l 1
 338 282 l 1
 292 282 l 1
 292 282 300 363 242 363 c 0
 213 363 186 363 169 363 c 1
 169 242 169 141 169 109 c 0
 169 40 196 43 196 43 c 1
 196 0 l 1
 46 0 l 1
 46 43 l 1xd8
 46 43 76 39 76 112 c 0
 76 186 76 526 76 594 c 0xe4
 76 662 46 657 46 657 c 1
 46 700 l 1
 46 700 446 700 492 700 c 0xd8
EndSplineSet
EndChar

StartChar: G
Encoding: 71 71 32
Width: 663
Flags: MW
HStem: 0 43<271.5 415.5 271.5 441.5> 512 188<239.5 550> 655 45<268.5 394>
VStem: 36 104<272 418.5 272 444.5> 500 89<214 272>
LayerCount: 2
Fore
SplineSet
539 512 m 0xb8
 524 512 520 561 492 600 c 0
 469 632 447 655 341 655 c 0
 196 655 140 494 140 343 c 0
 140 201 202 43 341 43 c 0
 490 43 500 184 500 243 c 0
 500 301 437 300 437 300 c 1
 437 343 l 1
 635 343 l 1
 635 300 l 1
 635 300 589 303 589 244 c 0
 589 184 542 0 341 0 c 0
 140 0 36 139 36 343 c 0
 36 546 138 700 341 700 c 0
 544 700 547 654 556 621 c 1
 564 587 561 512 539 512 c 0xb8
EndSplineSet
EndChar

StartChar: H
Encoding: 72 72 33
Width: 593
Flags: MW
HStem: 0 21G<45 203 45 45 393 547 393 393> 362 43<172 426 172 426> 680 20G<45 203 203 203 393 547 547 547>
VStem: 45 127<0 127 43 127> 79 93<109 127 127 362 405 450.5 450.5 599 568.5 603> 79 124<0 599> 393 127<0 148.5 43 148.5> 426 94<111 148.5 148.5 362 309.5 362 405 591 577 596> 426 121<0 362>
LayerCount: 2
Fore
SplineSet
547 657 m 1xf080
 547 657 520 660 520 596 c 0
 520 532 520 185 520 112 c 0xf2
 520 38 547 43 547 43 c 1
 547 0 l 1xf080
 393 0 l 1
 393 43 l 1xf2
 393 43 426 37 426 111 c 0
 426 149 426 257 426 362 c 1
 172 362 l 1
 172 255 172 145 172 109 c 0xf1
 172 38 203 43 203 43 c 1
 203 0 l 1xe6
 45 0 l 1
 45 43 l 1xf2
 45 43 79 40 79 109 c 0
 79 178 79 538 79 599 c 0xea
 79 660 45 657 45 657 c 1
 45 700 l 1xf2
 203 700 l 1
 203 657 l 1xe6
 203 657 172 661 172 603 c 0
 172 577 172 496 172 405 c 1
 426 405 l 1
 426 488 426 563 426 591 c 0xf1
 426 661 393 657 393 657 c 1
 393 700 l 1xf2
 547 700 l 1
 547 657 l 1xf080
EndSplineSet
EndChar

StartChar: I
Encoding: 73 73 34
Width: 227
Flags: MW
HStem: 0 21G<38 189 38 38> 680 20G<38 189 189 189>
VStem: 38 151<0 43 33.5 43 657 700> 62 103<101 119.5 119.5 606 586.5 606>
LayerCount: 2
Fore
SplineSet
189 0 m 1xe0
 38 0 l 1
 38 0 38 24 38 43 c 1xe0
 57 43 62 64 62 101 c 0
 62 138 62 567 62 606 c 0xd0
 62 645 53 657 38 657 c 1
 38 700 l 1
 189 700 l 1
 189 657 l 1xe0
 174 657 165 645 165 606 c 0
 165 567 165 138 165 101 c 0xd0
 165 64 170 43 189 43 c 1
 189 24 189 0 189 0 c 1xe0
EndSplineSet
EndChar

StartChar: J
Encoding: 74 74 35
Width: 419
Flags: MW
HStem: -299 39<126 201.5 126 212.5> -198 86<79 115> 680 20G<181 391 391 391>
VStem: 237 99<-88 25 25 593 593 598>
LayerCount: 2
Fore
SplineSet
161 -260 m 0
 242 -260 237 -179 237 -88 c 2
 237 593 l 2
 237 661 181 657 181 657 c 1
 181 700 l 1
 391 700 l 1
 391 657 l 1
 391 657 336 657 336 598 c 0
 336 538 336 114 336 -64 c 0
 336 -241 258 -299 167 -299 c 0
 16 -299 9 -112 88 -112 c 0
 149 -112 151 -198 79 -198 c 1
 79 -198 91 -260 161 -260 c 0
EndSplineSet
EndChar

StartChar: K
Encoding: 75 75 36
Width: 585
Flags: MW
HStem: 0 43<46 55.5 184 197 46 55.5 395 410.5 538.5 546> 657 43<46 57 186 197 395 418.5 532 546>
VStem: 46 151<0 43 33.5 43 657 700> 70 103<101 106.5 106.5 215 215 346 407 467 467 606 586.5 606> 395 151<0 43 0 43 657 700>
LayerCount: 2
Fore
SplineSet
546 657 m 1xd8
 518 657 507 650 458 604 c 0
 440 586 305 467 226 396 c 1
 226 396 460 116 484 89 c 0
 519 48 531 43 546 43 c 1
 546 0 l 1
 395 0 l 1
 395 43 l 1
 426 43 419 55 396 83 c 0
 383 99 232 276 173 346 c 1
 173 330 173 230 173 215 c 0
 173 157 173 112 173 101 c 0xd8
 173 55 171 43 197 43 c 1
 197 24 197 0 197 0 c 1
 46 0 l 1
 46 0 46 24 46 43 c 1xe8
 65 43 70 48 70 101 c 0
 70 138 70 567 70 606 c 0xd8
 70 645 68 657 46 657 c 1
 46 700 l 1
 197 700 l 1
 197 657 l 1xe8
 175 657 173 645 173 606 c 0
 173 585 173 527 173 407 c 1
 252 475 415 617 434 633 c 0
 460 655 442 657 395 657 c 1
 395 700 l 1
 546 700 l 1
 546 657 l 1xd8
EndSplineSet
EndChar

StartChar: L
Encoding: 76 76 37
Width: 559
Flags: MW
HStem: 0 169<46 545.5> 680 20G<46 197 197 197>
VStem: 70 103<101 119.5 119.5 606 586.5 606>
LayerCount: 2
Fore
SplineSet
507 0 m 2
 46 0 l 1
 46 0 46 24 46 43 c 1
 65 43 70 64 70 101 c 0
 70 138 70 567 70 606 c 0
 70 645 61 657 46 657 c 1
 46 700 l 1
 197 700 l 1
 197 657 l 1
 182 657 173 645 173 606 c 0
 173 567 173 138 173 101 c 0
 173 64 178 43 197 43 c 2
 415 43 l 2xe0
 477 43 495 66 506 105 c 0
 516 144 526 169 539 169 c 0
 552 169 552 157 552 67 c 0
 552 6 552 0 507 0 c 2
EndSplineSet
EndChar

StartChar: M
Encoding: 77 77 38
Width: 800
Flags: MW
HStem: 0 43<46 61.5 177 197 46 61.5 602 616.5 741 753> 657 43<46 62.5 743 753>
VStem: 46 104<0 132.5 43 132.5> 82 68<108 132.5 132.5 533> 632 90<107 134 134 510 510 534.5>
LayerCount: 2
Fore
SplineSet
46 43 m 1xe8
 77 43 82 47 82 108 c 0
 82 168 82 605 82 605 c 2xd8
 82 648 79 657 46 657 c 1
 46 700 l 1
 46 700 141 700 169 700 c 0
 196 700 215 698 251 609 c 0
 282 534 392 254 427 166 c 1
 427 166 560 553 581 609 c 0
 615 700 627 700 661 700 c 0
 705 700 753 700 753 700 c 1
 753 657 l 1
 733 657 722 645 722 607 c 0
 722 570 722 161 722 107 c 0
 722 54 729 43 753 43 c 1
 753 38 753 0 753 0 c 1
 602 0 l 1
 602 43 l 1
 631 43 632 50 632 107 c 2
 632 510 l 2
 632 559 616 556 600 510 c 0
 580 455 472 142 437 43 c 0
 427 15 412 0 399 0 c 0
 381 0 368 19 359 43 c 0
 313 159 207 427 171 516 c 0
 164 534 150 566 150 533 c 0
 150 478 150 159 150 106 c 0
 150 53 157 43 197 43 c 1
 197 0 l 1
 46 0 l 1
 46 43 l 1xe8
EndSplineSet
EndChar

StartChar: N
Encoding: 78 78 39
Width: 698
Flags: MW
HStem: 0 43<44 55 175 195 44 55> 657 43<44 61 506 526 646 657>
VStem: 44 104<0 132.5 43 132.5> 86 62<108 132.5 132.5 533> 553 62<160 591 567.5 591>
LayerCount: 2
Fore
SplineSet
506 700 m 1xe8
 657 700 l 1
 657 657 l 1
 635 657 615 646 615 591 c 2
 615 591 615 180 615 43 c 0
 615 16 586 0 565 0 c 0
 522 0 507 15 447 104 c 0
 373 213 228 429 173 515 c 0
 162 532 148 566 148 533 c 0
 148 478 148 159 148 106 c 0
 148 53 155 43 195 43 c 1
 195 0 l 1
 44 0 l 1
 44 43 l 1xe8
 66 43 86 53 86 108 c 2
 86 108 86 551 86 599 c 0xd8
 86 648 78 657 44 657 c 1
 44 700 l 1
 44 700 139 700 167 700 c 0
 194 700 201 687 251 601 c 1
 296 527 553 160 553 160 c 1
 553 227 553 542 553 593 c 0
 553 646 546 657 506 657 c 1
 506 700 l 1xe8
EndSplineSet
EndChar

StartChar: O
Encoding: 79 79 40
Width: 678
Flags: MW
HStem: 0 57<263.5 414 263.5 439.5> 647 53<265 411>
VStem: 34 126<299.5 400.5 299.5 424.5> 521 123<298 402>
LayerCount: 2
Fore
SplineSet
339 700 m 0
 537 700 644 499 644 350 c 0
 644 201 540 0 339 0 c 0
 141 0 34 201 34 346 c 0
 34 503 134 700 339 700 c 0
339 57 m 0
 489 57 521 246 521 350 c 0
 521 454 483 647 339 647 c 0
 191 647 160 451 160 350 c 0
 160 249 188 57 339 57 c 0
EndSplineSet
EndChar

StartChar: P
Encoding: 80 80 41
Width: 548
Flags: MW
HStem: 0 43<46 60 176 189 46 60> 264 59<164 251 251 300 164 251> 657 43<46 57.5 164 164 164 250>
VStem: 46 118<0 118.5 43 118.5> 71 93<98 118.5 118.5 264 323 603 603 616> 450 87<438.5 537>
LayerCount: 2
Fore
SplineSet
189 0 m 1xf4
 46 0 l 1
 46 43 l 1xf4
 74 43 71 50 71 98 c 0
 71 145 71 603 71 603 c 2xec
 71 629 69 657 46 657 c 1
 46 679 46 700 46 700 c 1
 46 700 150 700 300 700 c 0
 449 700 537 610 537 485 c 0
 537 359 450 264 300 264 c 2
 164 264 l 1
 164 264 164 139 164 98 c 0
 164 52 163 43 189 43 c 1
 189 29 189 0 189 0 c 1xf4
450 487 m 0
 450 587 400 657 250 657 c 2
 164 657 l 1
 164 323 l 1
 164 323 198 323 251 323 c 0
 402 323 450 390 450 487 c 0
EndSplineSet
EndChar

StartChar: Q
Encoding: 81 81 42
Width: 728
Flags: MW
HStem: -42 21G<576.5 634> 0 57<312 354 312 362> 647 53<263 409>
VStem: 32 126<323 400.5 323 424.5> 519 123<322 402>
LayerCount: 2
Fore
SplineSet
677 60 m 0
 698 82 693 51 689 27 c 0
 685 4 666 -42 602 -42 c 0
 551 -42 512 -10 469 33 c 1
 431 12 387 0 337 0 c 0
 139 0 32 201 32 346 c 0
 32 503 132 700 337 700 c 0
 535 700 642 499 642 350 c 0
 642 264 608 161 540 89 c 1
 616 14 627 8 677 60 c 0
337 647 m 0
 189 647 158 451 158 350 c 0
 158 296 166 216 197 153 c 1
 313 228 372 246 477 150 c 1
 509 213 519 294 519 350 c 0
 519 454 481 647 337 647 c 0
224 110 m 1
 251 78 287 57 337 57 c 0
 371 57 399 67 422 83 c 1
 367 141 311 186 224 110 c 1
EndSplineSet
EndChar

StartChar: R
Encoding: 82 82 43
Width: 577
Flags: MW
HStem: 0 43<46 60 176 189 46 60 394 418 523 537> 264 59<164 251 251 300 164 251> 657 43<46 57.5 164 164 164 250>
VStem: 46 118<0 118.5 43 118.5> 71 93<98 118.5 118.5 264 323 603 603 616> 450 87<439 537>
LayerCount: 2
Fore
SplineSet
487 97 m 0xf4
 509 48 509 43 537 43 c 1
 537 0 l 1
 394 0 l 1
 394 43 l 1
 442 43 436 54 417 96 c 0
 402 130 357 234 343 267 c 1
 329 265 315 264 300 264 c 2
 164 264 l 1
 164 264 164 139 164 98 c 0
 164 52 163 43 189 43 c 1
 189 29 189 0 189 0 c 1
 46 0 l 1
 46 43 l 1xf4
 74 43 71 50 71 98 c 0
 71 145 71 603 71 603 c 2xec
 71 629 69 657 46 657 c 1
 46 679 46 700 46 700 c 1
 46 700 150 700 300 700 c 0
 449 700 537 610 537 485 c 0
 537 393 491 318 401 282 c 1
 415 249 469 138 487 97 c 0xf4
251 323 m 0
 402 323 450 390 450 487 c 0
 450 587 400 657 250 657 c 2
 164 657 l 1
 164 323 l 1
 164 323 198 323 251 323 c 0
EndSplineSet
EndChar

StartChar: S
Encoding: 83 83 44
Width: 577
Flags: MW
HStem: 0 43<216.5 366.5> 0 221<55 366.5> 503 196<236.5 496.5> 657 42<239 342 236.5 343.5>
VStem: 42 79<527 569> 463 78<128 174.5>
LayerCount: 2
Fore
SplineSet
42 505 m 0xac
 42 633 184 699 289 699 c 0
 395 699 454 669 482 657 c 0x9c
 509 645 510 613 510 566 c 0
 510 520 505 503 488 503 c 0xac
 471 503 475 540 469 567 c 0
 463 596 396 657 291 657 c 0
 187 657 121 602 121 552 c 0
 121 502 184 458 244 431 c 0
 305 403 541 361 541 191 c 0
 541 65 442 0 291 0 c 0
 141 0 49 34 42 117 c 0
 37 178 40 221 70 221 c 0x5c
 88 221 89 192 91 168 c 0
 94 135 143 43 290 43 c 0
 444 43 463 98 463 149 c 0
 463 200 406 243 344 270 c 0
 263 304 42 331 42 505 c 0xac
EndSplineSet
EndChar

StartChar: T
Encoding: 84 84 45
Width: 546
Flags: MW
HStem: 0 21G<198 349 198 198> 531 169<29.5 478 69 516.5> 657 43<129 160 160 198 341.5 349 349 386>
VStem: 222 102<101 119.5 119.5 606 586.5 606>
LayerCount: 2
Fore
SplineSet
198 657 m 2xb0
 160 657 l 2xb0
 98 657 80 634 69 595 c 0
 59 556 49 531 36 531 c 0
 23 531 23 543 23 633 c 0
 23 694 23 700 69 700 c 2
 478 700 l 2
 523 700 523 694 523 633 c 0
 523 543 523 531 510 531 c 0xd0
 497 531 487 556 477 595 c 0
 467 634 448 657 386 657 c 2
 349 657 l 2
 334 657 324 645 324 606 c 0
 324 567 324 138 324 101 c 0
 324 64 330 43 349 43 c 1
 349 24 349 0 349 0 c 1
 198 0 l 1
 198 0 198 24 198 43 c 1
 216 43 222 64 222 101 c 0
 222 138 222 567 222 606 c 0
 222 645 213 657 198 657 c 2xb0
EndSplineSet
EndChar

StartChar: U
Encoding: 85 85 46
Width: 577
Flags: MW
HStem: 0 43<266.5 337 266.5 350.5> 657 43<40 49.5 177 191 392 415 525.5 543>
VStem: 63 101<203 260.5 260.5 606 583.5 607> 439 62<208 256.5 256.5 607 581 607>
LayerCount: 2
Fore
SplineSet
40 657 m 1
 40 700 l 1
 191 700 l 1
 191 657 l 1
 163 657 164 653 164 607 c 0
 164 561 164 312 164 209 c 0
 164 105 231 43 302 43 c 0
 372 43 439 105 439 208 c 0
 439 311 439 555 439 607 c 0
 439 659 438 657 392 657 c 1
 392 672 392 700 392 700 c 1
 543 700 l 1
 543 657 l 1
 508 657 501 655 501 607 c 0
 501 558 501 307 501 206 c 0
 501 106 420 0 281 0 c 0
 142 0 63 103 63 203 c 0
 63 303 63 561 63 606 c 0
 63 651 59 657 40 657 c 1
EndSplineSet
EndChar

StartChar: V
Encoding: 86 86 47
Width: 534
Flags: MW
HStem: 0 21G<256.5 281> 657 43<17 34 152.5 168 366 396.5 504.5 517>
LayerCount: 2
Fore
SplineSet
366 700 m 1
 517 700 l 1
 517 657 l 1
 492 657 470 648 458 604 c 0
 446 558 336 150 323 99 c 1
 309 50 293 0 269 0 c 0
 244 0 231 43 213 99 c 0
 195 156 78 562 64 603 c 0
 49 644 51 657 17 657 c 1
 17 700 l 1
 168 700 l 1
 168 657 l 1
 137 657 135 652 151 604 c 0
 167 557 250 320 271 250 c 0
 290 187 294 187 311 250 c 0
 326 305 395 552 410 601 c 1
 423 649 427 657 366 657 c 1
 366 700 l 1
EndSplineSet
EndChar

StartChar: W
Encoding: 87 87 48
Width: 853
Flags: MW
HStem: 0 21G<267 291 566 590.5> 657 43<27 44 162.5 178 327 343.5 461.5 477 675 706 813.5 826>
LayerCount: 2
Fore
SplineSet
675 700 m 1
 826 700 l 1
 826 657 l 1
 801 657 779 648 768 604 c 0
 756 558 646 150 632 99 c 0
 619 50 603 0 578 0 c 0
 554 0 540 43 523 99 c 0
 512 134 463 303 424 436 c 1
 387 301 341 131 333 99 c 1
 319 50 303 0 279 0 c 0
 255 0 241 43 223 99 c 0
 205 156 88 562 74 603 c 0
 59 644 61 657 27 657 c 1
 27 700 l 1
 178 700 l 1
 178 657 l 1
 147 657 145 652 161 604 c 0
 177 557 260 320 281 250 c 0
 300 187 304 187 321 250 c 0
 332 290 371 430 398 523 c 1
 386 564 377 593 373 603 c 0
 358 644 360 657 327 657 c 1
 327 700 l 1
 477 700 l 1
 477 657 l 1
 446 657 445 652 461 604 c 0
 477 557 559 320 580 250 c 1
 600 187 603 187 621 250 c 0
 636 305 705 552 719 601 c 0
 733 649 737 657 675 657 c 1
 675 700 l 1
EndSplineSet
EndChar

StartChar: X
Encoding: 88 88 49
Width: 586
Flags: MW
HStem: 0 43<41 58 164.5 192 41 58 394 410.5 535.5 545> 657 43<41 56 178.5 192 394 417 522.5 545>
VStem: 41 151<0 43 0 43 657 700> 394 151<0 43 0 99 657 700>
LayerCount: 2
Fore
SplineSet
545 657 m 1
 500 657 497 645 471 604 c 0
 459 585 396 483 330 376 c 1
 405 251 484 120 496 101 c 0
 519 65 526 43 545 43 c 1
 545 0 l 1
 394 0 l 1
 394 43 l 1
 427 43 426 49 394 99 c 0
 381 120 333 202 280 294 c 1
 220 198 169 113 160 99 c 0
 141 66 137 43 192 43 c 1
 192 0 l 1
 41 0 l 1
 41 43 l 1
 75 43 78 57 110 104 c 0
 126 127 189 231 254 339 c 1
 186 455 118 574 101 602 c 0
 68 656 71 657 41 657 c 1
 41 700 l 1
 192 700 l 1
 192 657 l 1
 165 657 160 652 192 602 c 0
 204 583 250 507 303 420 c 1
 356 509 402 586 413 604 c 0
 441 650 440 657 394 657 c 1
 394 700 l 1
 545 700 l 1
 545 657 l 1
EndSplineSet
EndChar

StartChar: Y
Encoding: 89 89 50
Width: 539
Flags: MW
HStem: 0 21G<197 349 197 197> 657 43<19 29.5 155.5 169 372 398 493 521>
VStem: 224 97<115 138 138 326 299 326>
LayerCount: 2
Fore
SplineSet
372 700 m 1
 521 700 l 1
 521 657 l 1
 465 657 469 654 443 598 c 1
 418 541 321 326 321 326 c 1
 321 271 321 165 321 111 c 0
 321 35 349 43 349 43 c 1
 349 0 l 1
 197 0 l 1
 197 43 l 1
 197 43 224 37 224 115 c 0
 224 170 224 272 224 326 c 1
 224 326 117 536 79 597 c 0
 41 657 40 657 19 657 c 1
 19 672 19 700 19 700 c 1
 169 700 l 1
 169 657 l 1
 142 657 149 646 173 602 c 0
 190 571 258 446 295 376 c 1
 326 442 378 555 397 595 c 0
 424 652 424 657 372 657 c 1
 372 700 l 1
EndSplineSet
EndChar

StartChar: Z
Encoding: 90 90 51
Width: 663
Flags: MW
HStem: 0 43<284 446 446 477 284 538> 0 169<180 576.5> 531 169<85.5 482> 657 43<185 216 216 378>
LayerCount: 2
Fore
SplineSet
538 0 m 2x60
 180 0 l 2
 35 0 85 60 111 101 c 0
 137 141 307 416 379 531 c 0x60
 452 647 456 657 378 657 c 0
 301 657 216 657 216 657 c 2x90
 154 657 136 634 125 595 c 0
 115 556 105 531 92 531 c 0
 79 531 79 544 79 633 c 0
 79 694 79 700 125 700 c 2
 482 700 l 2
 627 700 577 640 551 599 c 0
 526 559 356 284 283 169 c 1x60
 211 53 206 43 284 43 c 0
 361 43 446 43 446 43 c 2xa0
 508 43 527 66 537 105 c 0
 547 144 557 169 570 169 c 0
 583 169 583 157 583 67 c 0
 583 6 583 0 538 0 c 2x60
EndSplineSet
EndChar

StartChar: zero
Encoding: 48 48 52
Width: 570
Flags: MW
HStem: 0 43<211.5 358.5 211.5 359.5> 657 43<209 358>
VStem: 36 110<299.5 400.5 299.5 450.5> 428 107<298 402>
LayerCount: 2
Fore
SplineSet
285 700 m 0
 437 700 535 555 535 350 c 0
 535 151 434 0 285 0 c 0
 137 0 36 149 36 346 c 0
 36 555 133 700 285 700 c 0
285 43 m 0
 432 43 428 246 428 350 c 0
 428 454 431 657 285 657 c 0
 133 657 146 451 146 350 c 0
 146 249 138 43 285 43 c 0
EndSplineSet
EndChar

StartChar: one
Encoding: 49 49 53
Width: 253
Flags: MW
HStem: 0 44<7 28 172.5 195 7 28>
VStem: 0 149<562 605 605 605>
LayerCount: 2
Fore
SplineSet
149 101 m 0
 149 50 150 44 195 44 c 1
 195 21 195 0 195 0 c 1
 7 0 l 1
 7 0 7 23 7 44 c 1
 49 44 49 51 49 101 c 0
 49 152 49 562 49 562 c 1xc0
 0 562 l 1
 0 605 l 1
 0 605 115 680 132 693 c 1
 150 705 149 702 149 681 c 0
 149 666 149 287 149 101 c 0
EndSplineSet
EndChar

StartChar: two
Encoding: 50 50 54
Width: 581
Flags: MW
HStem: 0 102<164 414 414 442> 658 43<243 349>
VStem: 39 140<461.5 498.5> 438 99<485.5 532>
LayerCount: 2
Fore
SplineSet
442 0 m 0
 357 0 39 0 39 0 c 1
 39 0 39 58 39 82 c 0
 39 106 57 112 73 126 c 0
 90 141 250 279 321 335 c 0
 391 390 438 454 438 506 c 0
 438 558 402 658 296 658 c 0
 190 658 127 533 127 533 c 1
 127 533 179 529 179 482 c 0
 179 434 160 405 116 405 c 0
 73 405 39 443 39 480 c 0
 39 517 98 701 293 701 c 0
 488 701 537 616 537 529 c 0
 537 442 441 357 404 324 c 1
 368 290 164 102 164 102 c 1
 164 102 339 102 414 102 c 0
 488 102 495 143 503 168 c 0
 510 193 537 233 537 160 c 0
 537 43 538 0 442 0 c 0
EndSplineSet
EndChar

StartChar: three
Encoding: 51 51 55
Width: 596
Flags: MW
HStem: 0 43<215.5 342.5 215.5 364.5> 370 34<241 314> 498 200<47.5 470> 602 96<147 178 178 341>
VStem: 440 99<148 248>
LayerCount: 2
Fore
SplineSet
112 118 m 1xe8
 112 118 141 43 290 43 c 0
 395 43 440 98 440 198 c 0
 440 298 387 370 241 370 c 1
 241 404 l 1
 241 404 349 505 394 551 c 0
 440 597 438 602 341 602 c 0
 244 602 178 602 178 602 c 2xd8
 116 602 98 600 87 561 c 0
 77 522 67 498 54 498 c 0
 41 498 41 510 41 599 c 0
 41 660 41 698 86 698 c 2
 470 698 l 2
 539 698 562 656 511 600 c 0
 461 545 318 404 318 404 c 1
 391 404 539 350 539 198 c 0
 539 96 439 0 290 0 c 0
 141 0 41 98 41 152 c 0
 41 223 126 221 143 188 c 0
 171 133 112 118 112 118 c 1xe8
EndSplineSet
EndChar

StartChar: four
Encoding: 52 52 56
Width: 560
Flags: MW
HStem: 0 44<255 276.5 422 443 255 276.5> 198 52<101 127 101 298 101 298 400 502 400 430>
VStem: 298 102<101 115.5 115.5 198 180.5 198 250 338.5 338.5 499 464 514>
LayerCount: 2
Fore
SplineSet
502 198 m 1
 502 198 460 198 400 198 c 1
 400 163 400 130 400 101 c 0
 400 47 401 44 443 44 c 1
 443 25 443 0 443 0 c 1
 255 0 l 1
 255 0 255 25 255 44 c 1
 298 44 298 49 298 101 c 0
 298 130 298 163 298 198 c 1
 229 198 156 198 98 198 c 0
 -53 198 5 250 46 299 c 0
 87 348 303 602 346 656 c 0
 393 714 400 714 400 657 c 0
 400 635 400 427 400 250 c 1
 502 250 l 1
 502 198 l 1
101 250 m 2
 298 250 l 1
 298 337 298 429 298 499 c 0
 298 529 292 525 273 501 c 0
 253 476 127 322 108 300 c 0
 89 278 67 250 101 250 c 2
EndSplineSet
EndChar

StartChar: five
Encoding: 53 53 57
Width: 605
Flags: MW
HStem: 0 43<240 341 217 389.5> 451 53<238.5 340> 498 202<63 557.5> 603 97<118 118 118 427>
VStem: 465 99<200 300>
LayerCount: 2
Fore
SplineSet
118 603 m 1xd8
 118 430 l 1
 118 430 164 504 313 504 c 0
 462 504 564 402 564 249 c 0
 564 147 464 0 315 0 c 0
 165 0 65 98 65 152 c 0
 65 223 151 221 167 188 c 0
 195 133 136 118 136 118 c 1
 136 118 167 43 267 43 c 0
 415 43 465 150 465 250 c 0
 465 350 415 451 265 451 c 0xd8
 165 451 118 350 118 350 c 1
 63 350 l 1
 63 391 63 666 63 700 c 1
 518 700 l 2
 564 700 564 661 564 600 c 0
 564 510 564 498 551 498 c 0xa8
 538 498 528 523 517 562 c 0
 507 601 489 603 427 603 c 2
 118 603 l 1xd8
EndSplineSet
EndChar

StartChar: six
Encoding: 54 54 58
Width: 586
Flags: MW
HStem: 0 43<250.5 374> 405 53<261.5 371.5> 657 43<243 361.5>
VStem: 34 102 471 81<196.5 250.5>
LayerCount: 2
Fore
SplineSet
298 458 m 0
 446 458 552 375 552 223 c 0
 552 98 449 0 299 0 c 0
 148 0 34 151 34 350 c 0
 34 552 148 700 298 700 c 0
 448 700 510 638 510 584 c 0
 510 513 425 515 408 548 c 0
 380 603 440 618 440 618 c 1
 440 618 400 657 323 657 c 0
 163 657 138 483 136 376 c 1
 167 416 219 458 298 458 c 0
323 43 m 0
 443 43 471 169 471 224 c 0
 471 277 446 405 297 405 c 0
 226 405 166 348 137 291 c 1
 144 185 178 43 323 43 c 0
EndSplineSet
EndChar

StartChar: nine
Encoding: 57 57 59
Width: 586
Flags: MW
HStem: 0 43<224.5 343 224.5 363> 242 53<214.5 324.5 214.5 327.5> 657 43<212 335.5>
VStem: 34 81<449 503 449 539.5> 450 102
LayerCount: 2
Fore
SplineSet
288 242 m 0
 140 242 34 324 34 477 c 0
 34 602 137 700 287 700 c 0
 438 700 552 548 552 350 c 0
 552 147 438 0 288 0 c 0
 138 0 76 62 76 116 c 0
 76 186 161 184 178 152 c 1
 205 97 146 81 146 81 c 1
 146 81 186 43 263 43 c 0
 423 43 448 217 450 324 c 1
 419 284 367 242 288 242 c 0
263 657 m 0
 143 657 115 530 115 476 c 0
 115 422 140 295 289 295 c 0
 360 295 420 351 449 408 c 1
 442 514 408 657 263 657 c 0
EndSplineSet
EndChar

StartChar: seven
Encoding: 55 55 60
Width: 505
Flags: MW
HStem: 0 21G<213 289 213 213> 329 42<252 285 252 299 378 405> 597 103<98 130.5>
VStem: 213 76<0 38.5>
LayerCount: 2
Fore
SplineSet
505 700 m 1
 505 700 437 544 378 371 c 1
 405 371 l 1
 405 329 l 1
 364 329 l 1
 323 205 289 79 289 0 c 1
 213 0 l 1
 213 77 246 204 285 329 c 1
 252 329 l 1
 252 371 l 1
 299 371 l 1
 327 456 357 537 380 599 c 1
 380 599 161 597 100 597 c 0
 39 597 26 565 22 547 c 0
 20 539 15 532 10 532 c 0
 5 532 0 539 0 557 c 0
 0 593 23 652 32 674 c 0
 41 696 49 700 98 700 c 0
 159 700 505 700 505 700 c 1
EndSplineSet
EndChar

StartChar: eight
Encoding: 56 56 61
Width: 568
Flags: MW
HStem: 0 43<238.5 321.5 238.5 358> 380 48<257.5 308.5 257.5 324> 657 43<258.5 309.5>
VStem: 32 103<164.5 252.5> 86 83<522.5 592 517.5 606.5> 400 82<522.5 591.5> 433 49 433 103<164.5 253 163.5 264.5>
LayerCount: 2
Fore
SplineSet
389 408 m 1xec
 479 371 536 291 536 215 c 0
 536 112 432 0 284 0 c 0
 137 0 32 114 32 215 c 0xf1
 32 290 88 371 178 408 c 1
 125 438 86 490 86 555 c 0
 86 658 180 700 284 700 c 0
 388 700 482 657 482 555 c 0
 482 490 443 438 389 408 c 1xec
169 555 m 0xec
 169 480 232 428 283 428 c 0
 334 428 400 483 400 555 c 0
 400 628 335 657 284 657 c 0
 233 657 169 629 169 555 c 0xec
280 43 m 0
 363 43 433 115 433 214 c 0
 433 315 364 380 284 380 c 0
 205 380 135 314 135 214 c 0xf2
 135 114 197 43 280 43 c 0
EndSplineSet
EndChar

StartChar: period
Encoding: 46 46 62
Width: 234
Flags: MW
HStem: 0 103<94.5 144.5>
VStem: 66 104<46.5 58 44 60>
LayerCount: 2
Fore
SplineSet
120 103 m 0
 170 103 170 65 170 51 c 0
 170 37 170 0 119 0 c 0
 69 0 66 40 66 53 c 0
 66 67 69 103 120 103 c 0
EndSplineSet
EndChar

StartChar: comma
Encoding: 44 44 63
Width: 243
Flags: MW
VStem: 71 102<-70 83.5 16 83.5 9 84.5> 125 48<9 21>
LayerCount: 2
Fore
SplineSet
71 46 m 0x80
 71 123 173 121 173 46 c 0
 173 -28 71 -75 71 -65 c 0x80
 71 -40 125 -16 125 21 c 1x40
 125 21 71 -14 71 46 c 0x80
EndSplineSet
EndChar

StartChar: colon
Encoding: 58 58 64
Width: 243
Flags: MW
HStem: 0 103<99.5 149.5> 305 103<99.5 149.5>
VStem: 71 104<46.5 58 44 60 351.5 363>
LayerCount: 2
Fore
SplineSet
125 103 m 0
 175 103 175 65 175 51 c 0
 175 37 175 0 124 0 c 0
 74 0 71 40 71 53 c 0
 71 67 74 103 125 103 c 0
125 408 m 0
 175 408 175 370 175 356 c 0
 175 342 175 305 124 305 c 0
 74 305 71 345 71 358 c 0
 71 372 74 408 125 408 c 0
EndSplineSet
EndChar

StartChar: semicolon
Encoding: 59 59 65
Width: 253
Flags: MW
HStem: 305 103<99.5 149.5>
VStem: 71 104<351.5 363 349 365>
LayerCount: 2
Fore
SplineSet
71 46 m 0
 71 -14 125 21 125 21 c 1
 125 -16 71 -40 71 -65 c 0
 71 -75 173 -28 173 46 c 0
 173 121 71 123 71 46 c 0
125 408 m 0
 175 408 175 370 175 356 c 0
 175 342 175 305 124 305 c 0
 74 305 71 345 71 358 c 0
 71 372 74 408 125 408 c 0
EndSplineSet
EndChar

StartChar: exclam
Encoding: 33 33 66
Width: 233
Flags: MW
HStem: 0 101<71 120> 680 20G<67.5 122>
VStem: 40 109<618.5 647 618.5 647>
LayerCount: 2
Fore
SplineSet
96 101 m 0
 146 101 146 65 146 51 c 0
 146 37 145 0 95 0 c 0
 46 0 43 39 43 53 c 0
 43 66 46 101 96 101 c 0
40 647 m 1
 40 647 40 700 95 700 c 0
 149 700 149 647 149 647 c 1
 149 590 119 238 112 215 c 0
 108 202 107 191 95 191 c 0
 82 191 81 203 78 212 c 0
 71 240 40 588 40 647 c 1
EndSplineSet
EndChar

StartChar: quotedblleft
Encoding: 8220 8220 67
Width: 333
Flags: MW
VStem: 19 47<614 625.5> 19 101<552 618.5 551 625.5> 148 47<614 625.5> 148 101<552 618.5 551 625.5>
LayerCount: 2
Fore
SplineSet
120 589 m 0x60
 120 513 19 515 19 589 c 0
 19 662 120 708 120 699 c 0x50
 120 674 66 650 66 614 c 1xa0
 66 614 120 648 120 589 c 0x60
249 589 m 0
 249 513 148 515 148 589 c 0
 148 662 249 708 249 699 c 0x90
 249 674 195 650 195 614 c 1xa0
 195 614 249 648 249 589 c 0
EndSplineSet
EndChar

StartChar: question
Encoding: 63 63 68
Width: 537
Flags: MW
HStem: 0 101<279.5 329> 476 224<141.5 353> 657 43<302 333.5>
VStem: 101 47<550 579 550 590.5> 101 104<516 540 516 590.5> 251 104<46 58 44 59.5> 276 54<269.5 326.5 269.5 352> 424 80<486 579.5>
LayerCount: 2
Fore
SplineSet
305 101 m 0xb5
 354 101 355 65 355 51 c 0
 355 37 354 0 304 0 c 0
 254 0 251 39 251 53 c 0
 251 66 254 101 305 101 c 0xb5
148 550 m 1
 173 576 205 551 205 529 c 0
 205 503 184 476 155 476 c 0
 128 476 101 483 101 549 c 0
 101 632 201 700 302 700 c 0
 404 700 504 657 504 543 c 0
 504 429 330 355 330 298 c 0
 330 241 333 232 326 209 c 0
 323 196 315 191 304 191 c 0
 290 191 284 197 281 206 c 0
 274 234 276 240 276 299 c 0xcb
 276 405 424 397 424 542 c 0
 424 617 365 657 302 657 c 0
 228 658 148 608 148 550 c 1
EndSplineSet
EndChar

StartChar: quotedblright
Encoding: 8221 8221 69
Width: 337
Flags: MW
VStem: 87 101<529 681 614 681 607.5 682> 140 48<607.5 619> 216 101<529 681 614 681 607.5 682> 270 47<607.5 619>
LayerCount: 2
Fore
SplineSet
216 644 m 0xa0
 216 720 317 718 317 644 c 0
 317 571 216 524 216 534 c 0xa0
 216 559 270 583 270 619 c 1x90
 270 619 216 584 216 644 c 0xa0
87 644 m 0
 87 720 188 718 188 644 c 0
 188 571 87 524 87 534 c 0xa0
 87 559 140 583 140 619 c 1x60
 140 619 87 584 87 644 c 0
EndSplineSet
EndChar

StartChar: grave
Encoding: 96 96 70
Width: 243
Flags: MW
HStem: 584 21G<177 184 177 178.5>
LayerCount: 2
Fore
SplineSet
78 687 m 0
 103 712 122 694 128 687 c 1
 135 681 171 634 183 590 c 0
 183 588 185 585 184 584 c 0
 182 583 180 584 177 584 c 0
 132 596 83 630 77 636 c 0
 70 643 53 662 78 687 c 0
EndSplineSet
EndChar

StartChar: quotedbl
Encoding: 34 34 71
Width: 255
Flags: MW
HStem: 533 21G<73 74.5 184 185.5> 680 20G<52 72 163 183>
LayerCount: 2
Fore
SplineSet
72 700 m 0
 112 701 112 671 113 660 c 0
 113 650 104 584 78 539 c 0
 77 536 75 533 74 533 c 0
 72 533 70 536 69 539 c 0
 42 584 30 650 30 660 c 0
 30 671 32 700 72 700 c 0
183 700 m 0
 223 701 224 671 224 660 c 0
 224 650 215 584 189 539 c 0
 188 536 186 533 185 533 c 0
 183 533 182 536 180 539 c 0
 153 584 141 650 141 660 c 0
 141 671 143 700 183 700 c 0
EndSplineSet
EndChar

StartChar: numbersign
Encoding: 35 35 72
Width: 699
Flags: MW
HStem: 0 242<149 185 149 149 387 423 387 387> 178 64<30 182 30 194 229 420 30 217 467 670> 457 64<30 233 30 244 30 268 280 471 518 670> 457 242<30 312 268 312 277 312 277 471 515 550 277 670 277 506>
LayerCount: 2
Fore
SplineSet
518 521 m 1xa0
 670 521 l 1
 670 500 l 1
 670 478 l 1
 670 457 l 1
 506 457 l 1
 467 242 l 1
 670 242 l 1
 670 221 l 1
 670 200 l 1
 670 178 l 1
 455 178 l 1x60
 423 0 l 1
 387 0 l 1xa0
 420 178 l 1
 217 178 l 1x60
 185 0 l 1
 149 0 l 1xa0
 182 178 l 1
 30 178 l 1x60
 30 200 l 1
 30 221 l 1
 30 242 l 1
 194 242 l 1
 233 457 l 1
 30 457 l 1
 30 478 l 1
 30 500 l 1
 30 521 l 1
 244 521 l 1xa0
 277 699 l 1
 312 699 l 1x90
 280 521 l 1
 482 521 l 1xa0
 515 699 l 1
 550 699 l 1x90
 518 521 l 1xa0
432 242 m 1
 471 457 l 1
 268 457 l 1
 229 242 l 1
 432 242 l 1
EndSplineSet
EndChar

StartChar: dollar
Encoding: 36 36 73
Width: 567
Flags: MW
HStem: -72 21G<263 299 263 263> 0 43<263 263 263 299> 0 221<45 263> 657 43<263 263 263 299> 752 20G<263 299 299 299>
VStem: 32 79<527.5 566> 263 36<-72 0 -72 0 43 283 420 657 700 772> 263 238<543.5 590 543.5 657 543.5 657 543.5 772 543.5 772> 454 78<130 174.5>
LayerCount: 2
Fore
SplineSet
532 191 m 0xde80
 532 69 440 5 299 0 c 1
 299 -72 l 1
 263 -72 l 1
 263 0 l 1
 124 3 39 38 32 117 c 0
 27 178 30 221 60 221 c 0xbe80
 78 221 79 192 81 168 c 0
 84 136 129 50 263 43 c 1
 263 294 l 1
 165 324 32 370 32 505 c 0
 32 627 160 693 263 700 c 1
 263 772 l 1
 299 772 l 1
 299 700 l 1xde80
 393 697 446 669 472 658 c 0
 500 645 501 613 501 567 c 0xdd
 501 520 496 503 479 503 c 0
 462 503 466 541 460 567 c 0
 454 595 394 651 299 657 c 1
 299 409 l 1
 391 378 532 322 532 191 c 0xde80
234 431 m 0
 241 428 251 424 263 420 c 1
 263 657 l 1
 169 651 111 600 111 553 c 0
 111 502 174 458 234 431 c 0
299 43 m 1xde80
 436 47 454 100 454 149 c 0
 454 200 397 243 335 270 c 0
 325 274 312 278 299 283 c 1
 299 43 l 1xde80
EndSplineSet
EndChar

StartChar: percent
Encoding: 65539 -1 74
Width: 781
Flags: MW
HStem: 0 20<595 665> 311 21<594 664.5> 369 20<113 183> 680 20<112 182.5>
VStem: 30 52<510.5 558 510.5 581.5> 216 50<509.5 558.5> 512 52<142 190 142 213.5> 698 50<141.5 190.5>
LayerCount: 2
Fore
SplineSet
266 534 m 0
 266 440 218 369 148 369 c 0
 78 369 30 439 30 532 c 0
 30 631 76 700 148 700 c 0
 220 700 266 631 266 534 c 0
82 534 m 0
 82 487 78 389 148 389 c 0
 218 389 216 485 216 534 c 0
 216 583 217 680 148 680 c 0
 76 680 82 582 82 534 c 0
630 332 m 0
 702 332 748 263 748 166 c 0
 748 71 700 0 630 0 c 0
 560 0 512 71 512 164 c 0
 512 263 558 332 630 332 c 0
630 20 m 0
 700 20 698 117 698 166 c 0
 698 215 699 311 630 311 c 0
 558 311 564 214 564 166 c 0
 564 118 560 20 630 20 c 0
610 700 m 1
 653 700 l 1
 167 0 l 1
 124 0 l 1
 610 700 l 1
EndSplineSet
EndChar

StartChar: ampersand
Encoding: 38 38 75
Width: 700
Flags: MW
HStem: 0 80<242 341.5 242 367> 193 103<396 437> 371 47 371 76<425 428> 521 103<563 604> 636 64<151.5 223>
VStem: 0 57<158 229.5> 288 45 300 33<287 320.5 264 360.5> 514 41<198 277 173 302> 667 33<496.5 532.5 460.5 553>
LayerCount: 2
Fore
SplineSet
700 493 m 0xdee0
 700 428 655 373 510 371 c 1
 540 344 555 304 555 250 c 0
 555 96 456 0 278 0 c 0
 104 0 0 94 0 196 c 0
 0 263 45 340 97 383 c 1
 55 424 28 486 28 550 c 0
 28 650 102 700 197 700 c 0
 293 700 339 654 339 599 c 0
 339 561 288 499 288 561 c 0
 288 596 247 636 199 636 c 0
 104 636 32 545 129 405 c 1
 145 413 160 418 175 418 c 0xef60
 249 418 225 326 179 336 c 0
 161 340 145 347 129 357 c 1
 91 330 57 282 57 219 c 0
 57 97 206 80 278 80 c 0
 405 80 514 146 514 250 c 0
 514 354 454 371 402 371 c 0
 360 371 333 342 333 299 c 0
 333 229 380 226 394 226 c 1
 360 245 376 296 416 296 c 0
 478 296 475 193 399 193 c 0
 343 193 300 250 300 324 c 0
 300 397 349 447 501 447 c 1
 598 446 l 2
 640 446 667 475 667 518 c 0
 667 588 620 591 606 591 c 1
 640 572 624 521 584 521 c 0
 522 521 525 624 601 624 c 0
 657 624 700 572 700 493 c 0xdee0
EndSplineSet
EndChar

StartChar: quotesingle
Encoding: 39 39 76
Width: 126
Flags: MW
HStem: 533 21G<63 64.5> 680 20G<42 62>
LayerCount: 2
Fore
SplineSet
62 700 m 0
 102 701 102 671 103 660 c 0
 103 650 94 584 68 539 c 0
 67 536 65 533 64 533 c 0
 62 533 60 536 59 539 c 0
 32 584 20 650 20 660 c 0
 20 671 22 700 62 700 c 0
EndSplineSet
EndChar

StartChar: parenleft
Encoding: 40 40 77
Width: 284
Flags: MW
HStem: -299 21G<237 237> 680 20G<237 237>
VStem: 56 66<177.5 223>
LayerCount: 2
Fore
SplineSet
237 700 m 1
 241 696 l 1
 235 686 230 676 225 666 c 0
 220 656 215 646 211 636 c 0
 207 626 202 616 198 606 c 0
 194 596 190 586 187 575 c 1
 172 535 160 493 150 452 c 0
 131 369 122 285 122 200 c 0
 122 116 131 32 150 -51 c 0
 159 -92 172 -134 187 -174 c 0
 194 -195 202 -215 211 -235 c 0
 215 -245 220 -255 225 -265 c 0
 230 -275 235 -285 241 -295 c 1
 237 -299 l 1
 220 -283 206 -266 193 -248 c 0
 179 -229 167 -210 155 -191 c 1
 133 -152 114 -110 99 -67 c 0
 84 -24 74 20 67 65 c 0
 59 110 56 155 56 200 c 0
 56 246 60 291 67 336 c 0
 74 381 84 425 100 468 c 0
 115 511 133 552 155 592 c 1
 167 611 179 630 193 649 c 0
 206 667 220 684 237 700 c 1
EndSplineSet
EndChar

StartChar: parenright
Encoding: 41 41 78
Width: 284
Flags: MW
HStem: -299 21G<52 52> 680 20G<52 52>
VStem: 166 67<201 201>
LayerCount: 2
Fore
SplineSet
52 -299 m 1
 48 -295 l 1
 53 -285 59 -275 63 -265 c 0
 68 -255 73 -245 78 -235 c 0
 82 -225 86 -215 90 -205 c 0
 95 -195 98 -185 102 -174 c 0
 117 -134 129 -92 138 -51 c 0
 158 32 166 116 166 201 c 0
 166 285 158 369 139 452 c 0
 129 493 117 535 102 575 c 0
 95 596 86 616 78 636 c 0
 73 646 68 656 63 666 c 0
 59 676 53 686 48 696 c 1
 52 700 l 1
 68 684 83 667 96 649 c 0
 109 630 122 611 133 592 c 0
 156 553 174 511 189 468 c 0
 204 425 215 381 222 336 c 0
 229 291 232 246 233 201 c 1
 232 155 229 110 222 65 c 0
 214 20 204 -24 189 -67 c 0
 174 -110 155 -151 133 -191 c 0
 122 -210 109 -229 96 -248 c 0
 83 -266 68 -283 52 -299 c 1
EndSplineSet
EndChar

StartChar: asterisk
Encoding: 42 42 79
Width: 336
Flags: MW
HStem: 321 21G<160.5 175.5> 680 20G<160 175.5>
VStem: 129 78<350 376 350 376.5 645.5 671>
LayerCount: 2
Fore
SplineSet
317 470 m 0
 336 459 340 429 332 416 c 1
 325 402 297 391 278 402 c 0
 252 417 217 461 180 489 c 1
 186 443 207 391 207 361 c 0
 207 339 183 321 168 321 c 0
 153 321 129 339 129 361 c 0
 129 392 150 444 156 489 c 1
 119 461 84 417 58 402 c 0
 39 391 11 402 4 416 c 1
 -4 429 0 459 19 470 c 0
 46 485 101 493 143 510 c 1
 101 528 46 536 19 551 c 0
 0 562 -4 592 4 605 c 0
 11 618 39 630 58 619 c 0
 84 604 119 560 156 532 c 1
 150 577 129 629 129 660 c 0
 129 682 152 700 168 700 c 0
 183 700 207 682 207 660 c 0
 207 631 186 578 180 532 c 1
 217 559 252 604 278 619 c 0
 297 630 325 618 332 605 c 0
 340 592 336 562 317 551 c 0
 292 537 235 528 193 510 c 1
 235 492 292 484 317 470 c 0
EndSplineSet
EndChar

StartChar: plus
Encoding: 43 43 80
Width: 357
Flags: MW
HStem: 304 92
VStem: 132 92
LayerCount: 2
Fore
SplineSet
333 389 m 1
 349 375 321 320 303 310 c 0
 299 308 266 306 224 305 c 1
 224 249 222 200 218 195 c 0
 204 179 147 206 139 226 c 1
 135 233 133 265 133 304 c 1
 77 304 28 306 23 310 c 0
 7 324 34 381 54 389 c 1
 61 393 93 394 132 395 c 1
 133 452 135 502 139 505 c 1
 153 521 208 494 218 475 c 0
 220 471 222 438 223 396 c 1
 280 395 330 393 333 389 c 1
EndSplineSet
EndChar

StartChar: hyphen
Encoding: 45 45 81
Width: 398
Flags: W
LayerCount: 2
Fore
SplineSet
323 306 m 0
 300 296 51 299 44 306 c 0
 28 321 55 376 74 386 c 0
 85 391 342 395 354 386 c 1
 370 372 343 315 323 306 c 0
EndSplineSet
EndChar

StartChar: equal
Encoding: 61 61 82
Width: 396
Flags: W
LayerCount: 2
Fore
SplineSet
74 288 m 0
 97 298 345 295 353 288 c 0
 369 273 341 219 322 209 c 0
 312 203 55 199 43 209 c 0
 27 222 54 279 74 288 c 0
322 402 m 0
 299 392 50 395 43 402 c 0
 27 417 54 472 73 482 c 0
 84 487 341 491 353 482 c 1
 369 468 342 411 322 402 c 0
EndSplineSet
EndChar

StartChar: minus
Encoding: 8722 8722 83
Width: 320
Flags: W
LayerCount: 2
Fore
SplineSet
284 306 m 0
 261 296 12 299 5 306 c 0
 -11 321 16 376 35 386 c 0
 46 391 303 395 315 386 c 1
 331 372 304 315 284 306 c 0
EndSplineSet
EndChar

StartChar: slash
Encoding: 47 47 84
Width: 320
Flags: MW
HStem: 0 21G<3 39 3 3> 680 20G<282 317 317 317>
LayerCount: 2
Fore
SplineSet
317 700 m 1
 39 0 l 1
 3 0 l 1
 282 700 l 1
 317 700 l 1
EndSplineSet
EndChar

StartChar: backslash
Encoding: 92 92 85
Width: 320
Flags: MW
HStem: 0 21G<282 282 282 317> 680 20G<3 39 39 39>
LayerCount: 2
Fore
SplineSet
282 0 m 1
 3 700 l 1
 39 700 l 1
 317 0 l 1
 282 0 l 1
EndSplineSet
EndChar

StartChar: asciicircum
Encoding: 94 94 86
Width: 560
Flags: MW
HStem: 750 21G<64 64 465 465> 909 20G<264 264>
LayerCount: 2
Fore
SplineSet
259 925 m 1
 264 929 l 1
 268 925 l 1
 468 754 l 1
 465 750 l 1
 264 845 l 1
 64 750 l 1
 60 754 l 1
 259 925 l 1
EndSplineSet
EndChar

StartChar: circumflex
Encoding: 710 710 87
Width: 500
Flags: MW
HStem: 399 21G<0 46 0 0 453 500 453 453> 680 20G<250 250>
LayerCount: 2
Fore
SplineSet
250 700 m 1
 500 399 l 1
 453 399 l 1
 250 644 l 1
 46 399 l 1
 0 399 l 1
 250 700 l 1
EndSplineSet
EndChar

StartChar: at
Encoding: 64 64 88
Width: 770
Flags: MW
HStem: 0 34 192 25<342 369.5 342 375.5> 398 135<278.5 430.5> 510 23<379.5 405> 673 26<421 421> 680 20G<387 405 402 407.5>
VStem: 105 154<338 446.5 338 446.5 346 446.5> 259 70<426.5 445.5 426.5 446.5> 316 117<261.5 292.5> 433 76<254 275 275 388 364.5 388>
LayerCount: 2
Fore
SplineSet
732 463 m 0xea80
 741 417 737 368 720 324 c 0
 712 302 700 282 685 264 c 0
 670 246 616 182 528 182 c 0
 491 182 454 200 442 221 c 1
 427 203 400 192 351 192 c 0
 237 192 252 271 252 276 c 0
 252 297 274 336 332 366 c 0
 370 386 390 396 433 418 c 1
 433 427 433 434 433 441 c 0
 433 490 418 510 392 510 c 0xda80
 367 510 323 493 311 473 c 1
 311 473 329 455 329 436 c 0
 329 417 311 398 289 398 c 0
 268 398 259 412 259 426 c 0
 259 467 313 533 391 533 c 0
 470 533 509 510 509 414 c 0
 509 317 509 290 509 260 c 0
 509 231 511 223 524 219 c 0
 549 211 596 240 610 252 c 0
 625 264 637 277 647 293 c 0
 657 308 666 324 671 342 c 0
 682 377 683 415 677 452 c 0
 674 471 669 489 662 507 c 0
 655 525 646 543 635 559 c 0
 613 592 582 621 545 640 c 1
 507 661 464 671 421 673 c 0
 410 673 399 674 388 673 c 0xe940
 378 672 367 670 357 668 c 0
 336 663 316 655 296 646 c 0
 286 642 277 637 268 631 c 0
 259 626 250 620 241 613 c 0
 224 601 208 587 194 572 c 0
 179 557 166 541 156 524 c 0
 145 507 135 489 128 471 c 0
 114 435 106 398 105 360 c 0
 105 355 105 351 105 346 c 2
 105 338 l 1
 106 331 l 1
 106 321 106 311 107 301 c 0
 108 291 110 281 111 272 c 0
 113 262 115 253 117 243 c 0
 119 234 122 225 125 216 c 0
 128 207 131 198 135 190 c 0
 139 181 143 173 148 165 c 0
 153 157 158 149 164 142 c 0
 187 112 217 87 253 69 c 0
 290 51 330 40 372 36 c 0
 383 35 393 34 404 34 c 0
 410 34 415 34 420 34 c 0
 425 34 431 34 436 34 c 0
 457 35 478 37 499 40 c 0
 520 44 540 50 560 57 c 0
 570 60 579 65 588 69 c 0
 597 74 606 79 614 85 c 0
 620 90 628 88 633 82 c 0
 637 76 636 68 630 63 c 1
 630 63 l 1
 629 63 l 1
 591 37 548 22 504 12 c 0
 460 3 415 -1 370 0 c 0
 325 1 279 9 235 24 c 1
 192 40 150 65 117 100 c 0
 101 118 86 137 74 158 c 1
 69 169 63 179 59 190 c 0
 54 201 50 213 47 224 c 0
 40 247 36 270 33 294 c 0
 32 305 31 317 30 329 c 1
 30 338 l 1
 30 342 l 1
 30 344 l 1
 30 346 l 2
 30 352 30 358 31 364 c 0
 32 388 35 412 42 435 c 0
 49 459 58 481 69 502 c 0
 93 545 125 581 162 610 c 0
 199 639 241 661 284 677 c 0
 306 685 328 692 351 696 c 0
 363 698 375 699 387 700 c 0
 393 700 399 700 405 700 c 0xe680
 410 700 416 700 422 699 c 0
 468 698 514 688 557 671 c 0
 600 653 640 626 671 590 c 0
 687 572 700 552 710 531 c 0
 720 509 728 487 732 463 c 0xea80
358 217 m 0
 381 217 416 224 434 250 c 1
 434 252 433 253 433 254 c 0
 433 285 433 341 433 388 c 1
 417 377 401 367 376 351 c 0
 339 328 316 308 316 277 c 0
 316 246 326 217 358 217 c 0
EndSplineSet
EndChar

StartChar: bar
Encoding: 124 124 89
Width: 165
Flags: MW
HStem: -299 21G<60 85 60 60> 680 20G<60 85 85 85>
VStem: 60 25<-299 700>
LayerCount: 2
Fore
SplineSet
85 -299 m 1
 60 -299 l 1
 60 700 l 1
 85 700 l 1
 85 -299 l 1
EndSplineSet
EndChar

StartChar: bracketleft
Encoding: 91 91 90
Width: 243
Flags: MW
HStem: 0 25<102 203 102 203> 675 25<102 203 102 102>
VStem: 60 42<0 675 25 675 25 700 25 700 25 700>
LayerCount: 2
Fore
SplineSet
203 675 m 1
 102 675 l 1
 102 25 l 1
 203 25 l 1
 203 0 l 1
 60 0 l 1
 60 0 l 1
 60 700 l 1
 60 700 l 1
 203 700 l 1
 203 675 l 1
EndSplineSet
EndChar

StartChar: bracketright
Encoding: 93 93 91
Width: 248
Flags: MW
HStem: 0 25<42 143 42 185 42 143> 675 25<42 185 42 143>
VStem: 143 42<25 675 675 675>
LayerCount: 2
Fore
SplineSet
42 675 m 1
 42 700 l 1
 185 700 l 1
 185 700 l 1
 185 0 l 1
 185 0 l 1
 42 0 l 1
 42 25 l 1
 143 25 l 1
 143 675 l 1
 42 675 l 1
EndSplineSet
EndChar

StartChar: underscore
Encoding: 95 95 92
Width: 481
Flags: MW
HStem: -65 42<0 481 0 481 0 481 0 481>
LayerCount: 2
Fore
SplineSet
0 -23 m 1
 481 -23 l 1
 481 -65 l 1
 481 -65 l 1
 0 -65 l 1
 0 -65 l 1
 0 -23 l 1
EndSplineSet
EndChar

StartChar: guilsinglleft
Encoding: 8249 8249 93
Width: 301
Flags: MW
HStem: 0 21G<301 301> 480 20G<301 301>
LayerCount: 2
Fore
SplineSet
0 250 m 1
 301 500 l 1
 301 453 l 1
 56 250 l 1
 301 46 l 1
 301 0 l 1
 0 250 l 1
EndSplineSet
EndChar

StartChar: guilsinglright
Encoding: 8250 8250 94
Width: 303
Flags: MW
HStem: 0 21G<0 0> 480 20G<0 0>
LayerCount: 2
Fore
SplineSet
0 500 m 1
 301 250 l 1
 0 0 l 1
 0 46 l 1
 245 250 l 1
 0 453 l 1
 0 500 l 1
EndSplineSet
EndChar

StartChar: less
Encoding: 60 60 95
Width: 338
Flags: MW
HStem: 0 21G<301 301 301 301> 480 20G<301 301 301 301>
LayerCount: 2
Fore
SplineSet
0 250 m 1
 301 500 l 1
 301 453 l 1
 56 250 l 1
 301 46 l 1
 301 0 l 1
 0 250 l 1
0 250 m 1
 301 500 l 1
 301 453 l 1
 56 250 l 1
 301 46 l 1
 301 0 l 1
 0 250 l 1
EndSplineSet
EndChar

StartChar: greater
Encoding: 62 62 96
Width: 337
Flags: MW
HStem: 0 21G<36 36> 480 20G<36 36>
LayerCount: 2
Fore
SplineSet
36 500 m 1
 337 250 l 1
 36 0 l 1
 36 46 l 1
 281 250 l 1
 36 453 l 1
 36 500 l 1
EndSplineSet
EndChar

StartChar: braceleft
Encoding: 123 123 97
Width: 247
Flags: MW
HStem: 0 21G<160 218> 680 20G<160 218>
VStem: 88 38<120 175 175 230 444 470 470 525 525 580 580 607>
LayerCount: 2
Fore
SplineSet
126 92 m 0
 126 0 243 0 193 0 c 0
 127 0 88 66 88 120 c 2
 88 175 l 1
 88 175 l 1
 88 175 88 238 88 258 c 0
 88 333 12 347 9 350 c 1
 9 350 l 1
 9 350 l 1
 9 350 l 1
 9 350 l 1
 12 353 88 367 88 442 c 0
 88 462 88 525 88 525 c 1
 88 525 l 1
 88 580 l 2
 88 634 127 700 193 700 c 0
 243 700 126 700 126 608 c 0
 126 587 126 525 126 525 c 1
 126 525 l 1
 126 470 l 2
 126 418 91 356 31 350 c 1
 91 344 126 282 126 230 c 2
 126 175 l 1
 126 175 l 1
 126 175 126 113 126 92 c 0
EndSplineSet
EndChar

StartChar: braceright
Encoding: 125 125 98
Width: 246
Flags: MW
HStem: 0 21G<28.5 86> 680 20G<28.5 86>
VStem: 120 38<93 120 120 175 175 230 230 256 470 525 525 580>
LayerCount: 2
Fore
SplineSet
120 92 m 0
 120 113 120 175 120 175 c 1
 120 175 l 1
 120 230 l 2
 120 282 156 344 216 350 c 1
 156 356 120 418 120 470 c 2
 120 525 l 1
 120 525 l 1
 120 525 120 587 120 608 c 0
 120 700 4 700 53 700 c 0
 119 700 158 634 158 580 c 2
 158 525 l 1
 158 525 l 1
 158 525 158 462 158 442 c 0
 158 367 234 353 237 350 c 1
 237 350 l 1
 237 350 l 1
 237 350 l 1
 237 350 l 1
 234 347 158 333 158 258 c 0
 158 238 158 175 158 175 c 1
 158 175 l 1
 158 120 l 2
 158 66 119 0 53 0 c 0
 4 0 120 0 120 92 c 0
EndSplineSet
EndChar

StartChar: asciitilde
Encoding: 126 126 99
Width: 603
Flags: W
LayerCount: 2
Fore
SplineSet
180 335 m 0
 57 366 13 192 41 304 c 0
 78 452 166 429 238 411 c 2
 312 393 l 1
 312 393 l 1
 312 393 395 372 422 365 c 0
 545 334 589 508 561 396 c 0
 523 248 435 270 364 289 c 1
 290 307 l 1
 290 307 l 1
 290 307 207 328 180 335 c 0
EndSplineSet
EndChar

StartChar: c
Encoding: 99 99 101
Width: 432
Flags: MW
HStem: 0 43<212 252.5 212 257> 254 80<300 323 300 348.5> 371 37<185 260>
VStem: 20 84<144.5 251.5 139 254>
LayerCount: 2
Fore
SplineSet
368 114 m 0
 379 107 355 72 344 58 c 0
 331 41 295 0 219 0 c 0
 108 0 20 90 20 199 c 0
 20 309 108 408 224 408 c 0
 340 408 371 331 371 303 c 0
 371 286 371 254 326 254 c 0
 271 254 277 334 323 334 c 1
 323 334 301 371 219 371 c 0
 151 371 104 305 104 198 c 0
 104 80 195 43 229 43 c 0
 276 43 305 57 323 77 c 0
 347 102 357 120 368 114 c 0
EndSplineSet
EndChar

StartChar: endash
Encoding: 8211 8211 102
Width: 413
Flags: W
LayerCount: 2
Fore
SplineSet
376 306 m 0
 353 296 12 299 5 306 c 0
 -11 321 16 376 35 386 c 0
 46 391 395 395 407 386 c 1
 423 372 396 315 376 306 c 0
EndSplineSet
EndChar

StartChar: emdash
Encoding: 8212 8212 103
Width: 582
Flags: W
LayerCount: 2
Fore
SplineSet
543 306 m 0
 520 296 12 299 5 306 c 0
 -11 321 16 376 35 386 c 0
 46 391 562 395 574 386 c 1
 590 372 563 315 543 306 c 0
EndSplineSet
EndChar

StartChar: A
Encoding: 65 65 104
Width: 531
Flags: MW
HStem: 0 43<13 21 21 28.5 133.5 154 13 21 374 382.5 514 515> 208 42<167 332 167 345 154 332>
LayerCount: 2
Fore
SplineSet
514 43 m 2
 515 43 l 1
 515 0 l 1
 374 0 l 1
 374 43 l 1
 391 43 393 49 388 63 c 0
 386 69 367 133 345 208 c 1
 154 208 l 1
 132 139 113 81 111 73 c 0
 105 52 113 43 154 43 c 1
 154 0 l 1
 13 0 l 1
 13 43 l 1
 21 43 l 2
 36 43 48 47 65 94 c 0
 84 149 236 634 247 671 c 0
 258 709 286 710 298 671 c 1
 311 633 455 132 468 95 c 0
 481 58 492 43 514 43 c 2
167 250 m 1
 332 250 l 1
 303 348 272 451 269 462 c 0
 259 492 245 493 235 462 c 0
 230 449 198 347 167 250 c 1
EndSplineSet
EndChar

StartChar: a
Encoding: 97 97 105
Width: 375
Flags: MW
HStem: 0 33<284.5 332.5> 247 161<33 214> 381 27<153.5 184>
VStem: 10 67 10 82<280.5 303 280.5 304.5> 218 91<70 74 74 100 100 234 206 234>
LayerCount: 2
Fore
SplineSet
356 46 m 0xcc
 360 43 361 36 352 26 c 0
 343 16 331 0 298 0 c 0
 271 0 242 10 228 35 c 1
 210 13 178 0 120 0 c 0
 -17 0 1 95 1 101 c 0
 1 126 27 173 97 209 c 0
 142 232 166 244 218 271 c 1
 218 281 218 290 218 298 c 0
 218 357 199 381 169 381 c 0xb4
 138 381 86 361 71 336 c 1
 71 336 92 314 92 292 c 0
 92 269 71 247 46 247 c 0
 20 247 10 263 10 280 c 0
 10 329 74 408 167 408 c 0
 261 408 309 381 309 265 c 0
 309 150 309 118 309 82 c 0
 309 47 310 33 326 33 c 0
 339 33 344 43 346 45 c 0
 349 48 354 47 356 46 c 0xcc
128 30 m 0
 156 30 197 39 218 70 c 1
 218 72 218 73 218 74 c 0
 218 112 218 178 218 234 c 1
 198 221 179 210 149 190 c 0
 106 163 77 139 77 102 c 0
 77 64 89 30 128 30 c 0
EndSplineSet
EndChar

StartChar: b
Encoding: 98 98 106
Width: 516
Flags: MW
HStem: 0 39<226.5 294 219.5 313.5> 361 44<253 291.5>
VStem: 19 118<0 43 33.5 43 559 602 602 602> 56 81<0 106 106 277 339 559 559 559> 376 81<148.5 250>
LayerCount: 2
Fore
SplineSet
292 405 m 0xe8
 370 405 457 322 457 199 c 0
 457 75 357 0 270 0 c 0
 183 0 137 51 137 51 c 1
 137 0 l 1
 19 0 l 1
 19 0 19 24 19 43 c 1xe8
 53 43 56 51 56 100 c 0
 56 176 56 559 56 559 c 1xd8
 19 559 l 1
 19 602 l 1
 19 602 99 673 116 689 c 1
 132 706 137 704 137 678 c 0
 137 653 137 339 137 339 c 1
 137 339 214 405 292 405 c 0xe8
257 39 m 0
 331 39 376 98 376 199 c 0
 376 301 322 361 261 361 c 0
 200 361 137 277 137 277 c 1
 137 106 l 1
 137 106 182 39 257 39 c 0
EndSplineSet
EndChar

StartChar: f_f
Encoding: 64256 64256 107
Width: 600
Flags: MW
HStem: 0 43<36 56 189 209 36 56 278 298 431 452> 372 33<36 77 36 78 36 77 166 278 278 281 281 320 409 492> 520 180 657 43<226.5 262.5 174 286 442.5 499>
VStem: 77 89<405 424 424 496 480.5 496> 320 89<99 119.5 119.5 372 405 496 480.5 496> 495 81<549 567.5>
LayerCount: 2
Fore
SplineSet
447 700 m 0xde
 551 700 576 609 576 555 c 0
 576 535 557 520 531 520 c 0xee
 504 520 495 540 495 558 c 0
 495 577 509 591 532 591 c 1
 532 591 535 657 467 657 c 0
 418 657 409 599 409 496 c 0
 409 476 409 443 409 405 c 1
 492 405 l 1
 492 372 l 1
 409 372 l 1
 409 274 409 139 409 100 c 0
 409 49 410 43 452 43 c 1
 452 28 452 0 452 0 c 1
 278 0 l 1
 278 0 278 27 278 43 c 1
 318 43 320 50 320 99 c 0
 320 147 320 372 320 372 c 1
 281 372 l 1
 278 372 l 1
 166 372 l 1
 166 274 166 139 166 100 c 0
 166 49 168 43 210 43 c 1
 210 28 209 0 209 0 c 1
 36 0 l 1
 36 0 36 27 36 43 c 1
 76 43 78 50 78 99 c 0
 78 147 78 372 78 372 c 1
 36 372 l 1
 36 405 l 1
 77 405 l 1
 77 433 77 464 77 497 c 0
 77 607 119 700 229 700 c 0
 296 700 338 685 359 662 c 1
 378 686 406 700 447 700 c 0xde
320 405 m 1
 320 433 320 464 320 497 c 0
 320 543 324 585 336 619 c 1
 323 631 313 657 259 657 c 0xde
 194 657 166 599 166 496 c 0
 166 476 166 443 166 405 c 1
 278 405 l 1
 281 405 l 1
 320 405 l 1
EndSplineSet
Ligature2: "'liga' Standard Ligatures in Latin lookup 0 subtable" f f
EndChar

StartChar: f_i
Encoding: 64257 64257 108
Width: 496
Flags: MW
HStem: 0 43<17 37 170 190 17 37 314 333 452 468> 372 33<17 58 17 59 17 58 147 231> 498 202<182 403> 657 43<234 305.5 182 328>
VStem: 58 89<405 496 480.5 496> 314 121<0 138.5 37 138.5 262 310 310 310> 352 83<111 138.5 138.5 262 262 262>
LayerCount: 2
Fore
SplineSet
237 700 m 0xdc
 374 700 435 607 435 533 c 0
 435 513 416 498 390 498 c 0
 363 498 354 518 354 536 c 0
 354 555 368 569 391 569 c 1
 391 569 389 657 267 657 c 0
 201 657 147 599 147 496 c 0
 147 476 147 443 147 405 c 1
 231 405 l 1
 231 372 l 1
 147 372 l 1
 147 274 147 139 147 100 c 0
 147 49 149 43 191 43 c 1
 191 28 190 0 190 0 c 1
 17 0 l 1
 17 0 17 27 17 43 c 1
 57 43 59 50 59 99 c 0
 59 147 59 372 59 372 c 1
 17 372 l 1
 17 405 l 1
 58 405 l 1
 58 433 58 464 58 497 c 0
 58 607 127 700 237 700 c 0xdc
435 111 m 0
 435 53 436 43 468 43 c 1
 468 23 468 0 468 0 c 1
 314 0 l 1
 314 0 314 31 314 43 c 1xec
 352 43 352 53 352 111 c 0
 352 169 352 262 352 262 c 1xea
 314 262 l 1
 314 310 l 1
 333 328 390 380 402 391 c 1
 416 406 435 419 435 369 c 2
 435 369 435 166 435 111 c 0
EndSplineSet
Ligature2: "'liga' Standard Ligatures in Latin lookup 0 subtable" f i
EndChar

StartChar: f_j
Encoding: 65540 -1 109
Width: 518
Flags: MW
HStem: -306 29<257.5 306.5 257.5 369> -232 82<227 257.5> 0 42<19 39 172 192 19 39> 372 33<19 60 19 61 19 60 149 233> 498 202<184 405> 657 43<236 308 184 330>
VStem: 60 89<405 496 480.5 496> 354 83<-104 -57.5 -57.5 262 262 262>
LayerCount: 2
Fore
SplineSet
193 42 m 1xf7
 193 28 192 0 192 0 c 1
 19 0 l 1
 19 0 19 27 19 42 c 1
 59 42 61 50 61 98 c 0
 61 147 61 372 61 372 c 1
 19 372 l 1
 19 405 l 1
 60 405 l 1
 60 433 60 464 60 497 c 0
 60 607 129 700 239 700 c 0
 377 700 437 607 437 533 c 0
 437 513 418 498 392 498 c 0xfb
 365 498 357 518 357 536 c 0
 357 555 370 569 394 569 c 1
 394 569 391 657 269 657 c 0
 203 657 149 599 149 496 c 0
 149 476 149 443 149 405 c 1
 233 405 l 1
 233 372 l 1
 149 372 l 1
 149 274 149 138 149 99 c 0
 149 48 151 42 193 42 c 1xf7
404 391 m 0
 418 406 437 418 437 369 c 0
 437 319 437 -15 437 -100 c 0
 437 -186 435 -306 303 -306 c 0
 171 -306 166 -150 233 -150 c 0
 300 -150 288 -232 227 -232 c 1
 227 -232 233 -277 282 -277 c 0
 331 -277 354 -244 354 -104 c 0
 354 36 354 262 354 262 c 1
 316 262 l 1
 316 310 l 1
 336 328 392 379 404 391 c 0
EndSplineSet
Ligature2: "'liga' Standard Ligatures in Latin lookup 0 subtable" f j
EndChar

StartChar: f_l
Encoding: 64258 64258 110
Width: 505
Flags: MW
HStem: 0 43<14 34 167 187 14 34 302 324.5 451 470> 372 33<14 55 14 56 14 55 144 228> 657 43<234 297>
VStem: 55 89<405 496 480.5 496> 351 79<109 140.5 140.5 562 562 589.5>
LayerCount: 2
Fore
SplineSet
264 657 m 0
 198 657 144 599 144 496 c 0
 144 476 144 443 144 405 c 1
 228 405 l 1
 228 372 l 1
 144 372 l 1
 144 274 144 139 144 100 c 0
 144 49 146 43 188 43 c 1
 188 28 187 0 187 0 c 1
 14 0 l 1
 14 0 14 27 14 43 c 1
 54 43 56 50 56 99 c 0
 56 147 56 372 56 372 c 1
 14 372 l 1
 14 405 l 1
 55 405 l 1
 55 433 55 464 55 497 c 0
 55 607 124 700 234 700 c 2
 401 700 l 2
 423 700 430 700 430 680 c 0
 430 659 430 174 430 107 c 0
 430 51 432 43 470 43 c 1
 470 27 470 0 470 0 c 1
 302 0 l 1
 302 0 302 21 302 43 c 1
 347 43 351 49 351 109 c 0
 351 176 351 562 351 562 c 2
 351 617 330 657 264 657 c 0
EndSplineSet
Ligature2: "'liga' Standard Ligatures in Latin lookup 0 subtable" f l
EndChar

StartChar: f_f_i
Encoding: 64259 64259 111
Width: 734
Flags: MW
HStem: 0 43<20 40 173 193 20 40 251 271 403.5 424 548 567 686 702> 372 33<20 61 20 62 20 61 150 251 251 253 253 292 381 465> 498 202 657 43<210.5 251.5 158 273 467.5 539>
VStem: 61 89<405 424 424 496 480.5 496> 292 89<99 119.5 119.5 372 405 496 480.5 496> 548 121<0 138.5 37 138.5 262 310 310 310> 586 83<111 138.5 138.5 262 262 262>
LayerCount: 2
Fore
SplineSet
500 657 m 0xde
 435 657 381 599 381 496 c 0
 381 476 381 443 381 405 c 1
 465 405 l 1
 465 372 l 1
 381 372 l 1
 381 274 381 139 381 100 c 0
 381 49 383 43 424 43 c 1
 424 28 424 0 424 0 c 1
 251 0 l 1
 251 0 251 27 251 43 c 1
 291 43 292 50 292 99 c 0
 292 147 292 372 292 372 c 1
 253 372 l 1
 251 372 l 1
 150 372 l 1
 150 274 150 139 150 100 c 0
 150 49 152 43 194 43 c 1
 194 28 193 0 193 0 c 1
 20 0 l 1
 20 0 20 27 20 43 c 1
 60 43 62 50 62 99 c 0
 62 147 62 372 62 372 c 1
 20 372 l 1
 20 405 l 1
 61 405 l 1
 61 433 61 464 61 497 c 0
 61 607 103 700 213 700 c 0
 290 700 333 680 350 651 c 1
 381 681 421 700 470 700 c 0
 608 700 669 607 669 533 c 0
 669 513 650 498 623 498 c 0xee
 597 498 588 518 588 536 c 0
 588 555 602 569 625 569 c 1
 625 569 622 657 500 657 c 0xde
292 405 m 1
 292 433 292 464 292 497 c 0
 292 541 303 583 323 616 c 1
 308 626 303 657 243 657 c 0
 178 657 150 599 150 496 c 0
 150 476 150 443 150 405 c 1
 251 405 l 1
 253 405 l 1
 292 405 l 1
669 111 m 0
 669 53 670 43 702 43 c 1
 702 23 702 0 702 0 c 1
 548 0 l 1
 548 0 548 31 548 43 c 1xee
 586 43 586 53 586 111 c 0
 586 169 586 262 586 262 c 1xed
 548 262 l 1
 548 310 l 1
 567 328 623 379 635 391 c 0
 650 406 669 419 669 369 c 2
 669 369 669 166 669 111 c 0
EndSplineSet
Ligature2: "'liga' Standard Ligatures in Latin lookup 0 subtable" f f i
EndChar

StartChar: f_f_l
Encoding: 64260 64260 112
Width: 754
Flags: MW
HStem: 0 43<16 36 169 189 16 36 259 278.5 411 432 547 569 696 715> 372 33<16 57 16 58 16 57 146 259 259 262 262 300 389 473> 657 43<206.5 244 154 267.5 478 541>
VStem: 57 89<405 424 424 496 480.5 496> 300 89<99 119.5 119.5 372 405 496 480.5 496> 596 78<109 140.5 140.5 562 562 589.5>
LayerCount: 2
Fore
SplineSet
674 107 m 0
 674 51 677 43 715 43 c 1
 715 27 715 0 715 0 c 1
 547 0 l 1
 547 0 547 21 547 43 c 1
 591 43 596 49 596 109 c 0
 596 176 596 562 596 562 c 2
 596 617 574 657 508 657 c 0
 443 657 389 599 389 496 c 0
 389 476 389 443 389 405 c 1
 473 405 l 1
 473 372 l 1
 389 372 l 1
 389 274 389 139 389 100 c 0
 389 49 390 43 432 43 c 1
 432 28 432 0 432 0 c 1
 259 0 l 1
 259 0 259 27 259 43 c 1
 298 43 300 50 300 99 c 0
 300 147 300 372 300 372 c 1
 262 372 l 1
 259 372 l 1
 146 372 l 1
 146 274 146 139 146 100 c 0
 146 49 148 43 190 43 c 1
 190 28 189 0 189 0 c 1
 16 0 l 1
 16 0 16 27 16 43 c 1
 56 43 58 50 58 99 c 0
 58 147 58 372 58 372 c 1
 16 372 l 1
 16 405 l 1
 57 405 l 1
 57 433 57 464 57 497 c 0
 57 607 99 700 209 700 c 0
 279 700 327 674 350 643 c 1
 381 678 425 700 478 700 c 2
 646 700 l 2
 667 700 674 700 674 680 c 0
 674 659 674 174 674 107 c 0
300 405 m 1
 300 433 300 464 300 497 c 0
 300 539 310 578 328 611 c 1
 322 632 296 657 239 657 c 0
 174 657 146 599 146 496 c 0
 146 476 146 443 146 405 c 1
 259 405 l 1
 262 405 l 1
 300 405 l 1
EndSplineSet
Ligature2: "'liga' Standard Ligatures in Latin lookup 0 subtable" f f l
EndChar

StartChar: T_h
Encoding: 65541 -1 113
Width: 860
Flags: MW
HStem: 0 43<175 184 316.5 326 175 184 432 445 569 585 705 722.5 845.5 860> 371 32<630 687.5> 531 169<6.5 500> 657 43<106 137 137 175 318.5 326 326 363>
VStem: 199 102<101 119.5 119.5 606 586.5 606> 465 81<101 148 148 282 346 495 439 499.5> 743 85<108 142 142 262 234 267>
LayerCount: 2
Fore
SplineSet
828 109 m 0xee
 828 49 831 43 860 43 c 1
 860 26 860 0 860 0 c 1
 705 0 l 1
 705 0 705 27 705 43 c 1
 740 43 743 50 743 108 c 0
 743 178 743 206 743 262 c 0
 743 319 711 371 664 371 c 0
 596 371 546 282 546 282 c 1
 546 282 546 184 546 112 c 0
 546 50 553 43 585 43 c 1
 585 21 585 0 585 0 c 1
 432 0 l 1
 432 43 l 1
 458 43 465 48 465 101 c 0
 465 155 465 383 465 495 c 0
 465 504 464 556 454 595 c 0
 444 634 425 657 363 657 c 2
 326 657 l 2
 311 657 301 645 301 606 c 0
 301 567 301 138 301 101 c 0
 301 64 307 43 326 43 c 1
 326 24 326 0 326 0 c 1
 175 0 l 1
 175 0 175 24 175 43 c 1
 193 43 199 64 199 101 c 0
 199 138 199 567 199 606 c 0
 199 645 190 657 175 657 c 2
 137 657 l 2xde
 75 657 57 634 46 595 c 0
 36 556 26 531 13 531 c 0
 0 531 0 543 0 633 c 0
 0 694 0 700 46 700 c 2
 500 700 l 2
 543 700 546 695 546 644 c 2
 546 644 546 644 546 643 c 0
 546 560 546 346 546 346 c 1
 546 346 588 403 671 403 c 0
 753 403 828 341 828 267 c 0
 828 192 828 175 828 109 c 0xee
EndSplineSet
Ligature2: "'liga' Standard Ligatures in Latin lookup 0 subtable" T h
EndChar

StartChar: quotesinglbase
Encoding: 8218 8218 114
Width: 246
Flags: MW
VStem: 71 102<-70 83.5 16 83.5 9 84.5> 125 48<9 21>
LayerCount: 2
Fore
SplineSet
71 46 m 0x80
 71 123 173 121 173 46 c 0
 173 -28 71 -75 71 -65 c 0x80
 71 -40 125 -16 125 21 c 1x40
 125 21 71 -14 71 46 c 0x80
EndSplineSet
EndChar

StartChar: quotedblbase
Encoding: 8222 8222 115
Width: 399
Flags: MW
VStem: 71 102<-70 83.5 16 83.5 9 84.5> 125 48<9 21> 216 102<-70 83.5 16 83.5 9 84.5> 270 48<9 21>
LayerCount: 2
Fore
SplineSet
71 46 m 0xa0
 71 123 173 121 173 46 c 0
 173 -28 71 -75 71 -65 c 0xa0
 71 -40 125 -16 125 21 c 1x60
 125 21 71 -14 71 46 c 0xa0
216 46 m 0
 216 123 318 121 318 46 c 0
 318 -28 216 -75 216 -65 c 0xa0
 216 -40 270 -16 270 21 c 1x90
 270 21 216 -14 216 46 c 0
EndSplineSet
EndChar

StartChar: ellipsis
Encoding: 8230 8230 116
Width: 702
Flags: MW
HStem: 0 103<94.5 144.5 328.5 378.5 562.5 612.5>
VStem: 66 104<46.5 58 44 60> 300 104<46.5 58 44 60> 534 104<46.5 58 44 60>
CounterMasks: 1 70
LayerCount: 2
Fore
SplineSet
120 103 m 0
 170 103 170 65 170 51 c 0
 170 37 170 0 119 0 c 0
 69 0 66 40 66 53 c 0
 66 67 69 103 120 103 c 0
354 103 m 0
 404 103 404 65 404 51 c 0
 404 37 404 0 353 0 c 0
 303 0 300 40 300 53 c 0
 300 67 303 103 354 103 c 0
588 103 m 0
 638 103 638 65 638 51 c 0
 638 37 638 0 587 0 c 0
 537 0 534 40 534 53 c 0
 534 67 537 103 588 103 c 0
EndSplineSet
EndChar

StartChar: quoteleft
Encoding: 8216 8216 117
Width: 234
Flags: MW
VStem: 66 48<494 506> 66 102<431.5 499 430.5 506>
LayerCount: 2
Fore
SplineSet
168 469 m 0x40
 168 392 66 394 66 469 c 0
 66 543 168 590 168 580 c 0x40
 168 555 114 531 114 494 c 1x80
 114 494 168 529 168 469 c 0x40
EndSplineSet
EndChar

StartChar: quoteright
Encoding: 8217 8217 118
Width: 291
Flags: MW
VStem: 103 102<410 563.5 496 563.5 489 564.5> 157 48<489 501>
LayerCount: 2
Fore
SplineSet
103 526 m 0x80
 103 603 205 601 205 526 c 0
 205 452 103 405 103 415 c 0x80
 103 440 157 464 157 501 c 1x40
 157 501 103 466 103 526 c 0x80
EndSplineSet
EndChar

StartChar: bullet
Encoding: 8226 8226 119
Width: 651
Flags: MW
HStem: 216 173<269 353>
VStem: 221 175<294 313.5 290 317>
LayerCount: 2
Fore
SplineSet
312 389 m 0
 396 389 396 325 396 302 c 0
 396 278 396 216 310 216 c 0
 226 216 221 283 221 305 c 0
 221 329 226 389 312 389 c 0
EndSplineSet
EndChar

StartChar: tilde
Encoding: 732 732 120
Width: 833
Flags: W
LayerCount: 2
Fore
SplineSet
357 787 m 0
 303 800 284 724 296 773 c 0
 312 838 351 828 382 820 c 2
 415 812 l 1
 415 812 l 1
 415 812 451 803 463 800 c 0
 517 786 536 863 524 813 c 1
 507 749 469 758 438 766 c 2
 405 775 l 1
 405 775 l 1
 405 775 368 784 357 787 c 0
EndSplineSet
EndChar

StartChar: Ydieresis
Encoding: 376 376 121
Width: 539
Flags: MW
HStem: 0 21G<197 349 197 197> 657 43<19 29.5 155.5 169 372 398 493 521> 749 103<159.5 209.5 339.5 389.5>
VStem: 131 104<795.5 807 793 809> 224 97<115 138 138 326 299 326> 311 104<795.5 807 793 809>
LayerCount: 2
Fore
SplineSet
185 852 m 0xf4
 235 852 235 814 235 800 c 0
 235 786 235 749 184 749 c 0
 134 749 131 789 131 802 c 0
 131 816 134 852 185 852 c 0xf4
365 852 m 0
 415 852 415 814 415 800 c 0
 415 786 415 749 364 749 c 0
 314 749 311 789 311 802 c 0
 311 816 314 852 365 852 c 0
372 700 m 1
 521 700 l 1
 521 657 l 1
 465 657 469 654 443 598 c 1
 418 541 321 326 321 326 c 1
 321 271 321 165 321 111 c 0
 321 35 349 43 349 43 c 1
 349 0 l 1
 197 0 l 1
 197 43 l 1
 197 43 224 37 224 115 c 0
 224 170 224 272 224 326 c 1xe8
 224 326 117 536 79 597 c 0
 41 657 40 657 19 657 c 1
 19 672 19 700 19 700 c 1
 169 700 l 1
 169 657 l 1
 142 657 149 646 173 602 c 0
 190 571 258 446 295 376 c 1
 326 442 378 555 397 595 c 0
 424 652 424 657 372 657 c 1
 372 700 l 1
EndSplineSet
EndChar

StartChar: dieresis
Encoding: 168 168 122
Width: 485
Flags: MW
HStem: 596 103<120.5 170.5 300.5 350.5>
VStem: 92 104<642.5 654 640 656> 272 104<642.5 654 640 656>
LayerCount: 2
Fore
SplineSet
146 699 m 0
 196 699 196 661 196 647 c 0
 196 633 196 596 145 596 c 0
 95 596 92 636 92 649 c 0
 92 663 95 699 146 699 c 0
326 699 m 0
 376 699 376 661 376 647 c 0
 376 633 376 596 325 596 c 0
 275 596 272 636 272 649 c 0
 272 663 275 699 326 699 c 0
EndSplineSet
EndChar

StartChar: Agrave
Encoding: 192 192 123
Width: 531
Flags: MW
HStem: 0 43<13 21 21 28.5 133.5 154 13 21 374 382.5 514 515> 208 42<167 332 167 345 154 332>
LayerCount: 2
Fore
SplineSet
514 43 m 2
 515 43 l 1
 515 0 l 1
 374 0 l 1
 374 43 l 1
 391 43 393 49 388 63 c 0
 386 69 367 133 345 208 c 1
 154 208 l 1
 132 139 113 81 111 73 c 0
 105 52 113 43 154 43 c 1
 154 0 l 1
 13 0 l 1
 13 43 l 1
 21 43 l 2
 36 43 48 47 65 94 c 0
 84 149 236 634 247 671 c 0
 258 709 286 710 298 671 c 1
 311 633 455 132 468 95 c 0
 481 58 492 43 514 43 c 2
167 250 m 1
 332 250 l 1
 303 348 272 451 269 462 c 0
 259 492 245 493 235 462 c 0
 230 449 198 347 167 250 c 1
200 862 m 1
 226 887 245 869 251 862 c 1
 258 856 295 808 307 763 c 0
 307 761 309 758 308 757 c 0
 306 756 304 757 301 757 c 0
 255 769 205 804 199 810 c 0
 192 817 175 836 200 862 c 1
EndSplineSet
EndChar

StartChar: Aacute
Encoding: 193 193 124
Width: 531
Flags: MW
HStem: 0 43<13 21 21 28.5 133.5 154 13 21 374 382.5 514 515> 208 42<167 332 167 345 154 332>
LayerCount: 2
Fore
SplineSet
357 859 m 0
 382 834 365 815 358 808 c 0
 352 802 303 768 258 756 c 0
 255 756 253 755 251 756 c 0
 250 757 252 760 252 762 c 0
 264 806 300 853 307 859 c 1
 313 866 332 884 357 859 c 0
514 43 m 2
 515 43 l 1
 515 0 l 1
 374 0 l 1
 374 43 l 1
 391 43 393 49 388 63 c 0
 386 69 367 133 345 208 c 1
 154 208 l 1
 132 139 113 81 111 73 c 0
 105 52 113 43 154 43 c 1
 154 0 l 1
 13 0 l 1
 13 43 l 1
 21 43 l 2
 36 43 48 47 65 94 c 0
 84 149 236 634 247 671 c 0
 258 709 286 710 298 671 c 1
 311 633 455 132 468 95 c 0
 481 58 492 43 514 43 c 2
167 250 m 1
 332 250 l 1
 303 348 272 451 269 462 c 0
 259 492 245 493 235 462 c 0
 230 449 198 347 167 250 c 1
EndSplineSet
EndChar

StartChar: acute
Encoding: 180 180 125
Width: 203
Flags: MW
HStem: 584 21G<36 43>
LayerCount: 2
Fore
SplineSet
142 687 m 0
 167 662 150 643 143 636 c 0
 137 630 88 596 43 584 c 0
 40 584 38 583 36 584 c 0
 35 585 37 588 37 590 c 0
 49 634 85 681 92 687 c 1
 98 694 117 712 142 687 c 0
EndSplineSet
EndChar

StartChar: guillemotright
Encoding: 187 187 126
Width: 408
Flags: MW
HStem: -1 21G<44 44 196 196> 388 20G<44 44 196 196>
LayerCount: 2
Fore
SplineSet
219 204 m 1
 215 200 l 1
 44 -1 l 1
 40 3 l 1
 135 204 l 1
 40 404 l 1
 44 408 l 1
 215 209 l 1
 219 204 l 1
367 209 m 1
 371 204 l 1
 367 200 l 1
 196 -1 l 1
 192 3 l 1
 287 204 l 1
 192 404 l 1
 196 408 l 1
 367 209 l 1
EndSplineSet
EndChar

StartChar: guillemotleft
Encoding: 171 171 127
Width: 448
Flags: MW
HStem: -1 21G<215 215 367 367> 388 20G<215 215 367 367>
LayerCount: 2
Fore
SplineSet
196 200 m 1
 192 204 l 1
 196 209 l 1
 367 408 l 1
 371 404 l 1
 276 204 l 1
 371 3 l 1
 367 -1 l 1
 196 200 l 1
40 204 m 1
 44 209 l 1
 215 408 l 1
 219 404 l 1
 124 204 l 1
 219 3 l 1
 215 -1 l 1
 44 200 l 1
 40 204 l 1
EndSplineSet
EndChar

StartChar: Acircumflex
Encoding: 194 194 128
Width: 531
Flags: MW
HStem: 0 43<13 21 21 28.5 133.5 154 13 21 374 382.5 514 515> 208 42<167 332 167 345 154 332> 906 20G<272 272>
LayerCount: 2
Fore
SplineSet
267 922 m 1
 272 926 l 1
 276 922 l 1
 476 751 l 1
 473 747 l 1
 272 842 l 1
 72 747 l 1
 68 751 l 1
 267 922 l 1
514 43 m 2
 515 43 l 1
 515 0 l 1
 374 0 l 1
 374 43 l 1
 391 43 393 49 388 63 c 0
 386 69 367 133 345 208 c 1
 154 208 l 1
 132 139 113 81 111 73 c 0
 105 52 113 43 154 43 c 1
 154 0 l 1
 13 0 l 1
 13 43 l 1
 21 43 l 2
 36 43 48 47 65 94 c 0
 84 149 236 634 247 671 c 0
 258 709 286 710 298 671 c 1
 311 633 455 132 468 95 c 0
 481 58 492 43 514 43 c 2
167 250 m 1
 332 250 l 1
 303 348 272 451 269 462 c 0
 259 492 245 493 235 462 c 0
 230 449 198 347 167 250 c 1
EndSplineSet
EndChar

StartChar: Atilde
Encoding: 195 195 129
Width: 531
Flags: MW
HStem: 0 43<13 21 21 28.5 133.5 154 13 21 374 382.5 514 515> 208 42<167 332 167 345 154 332>
LayerCount: 2
Fore
SplineSet
235 787 m 0
 181 800 162 724 174 773 c 0
 190 838 229 828 260 820 c 2
 293 812 l 1
 293 812 l 1
 293 812 329 803 341 800 c 0
 395 786 414 863 402 813 c 1
 385 749 347 758 316 766 c 2
 283 775 l 1
 283 775 l 1
 283 775 246 784 235 787 c 0
514 43 m 2
 515 43 l 1
 515 0 l 1
 374 0 l 1
 374 43 l 1
 391 43 393 49 388 63 c 0
 386 69 367 133 345 208 c 1
 154 208 l 1
 132 139 113 81 111 73 c 0
 105 52 113 43 154 43 c 1
 154 0 l 1
 13 0 l 1
 13 43 l 1
 21 43 l 2
 36 43 48 47 65 94 c 0
 84 149 236 634 247 671 c 0
 258 709 286 710 298 671 c 1
 311 633 455 132 468 95 c 0
 481 58 492 43 514 43 c 2
167 250 m 1
 332 250 l 1
 303 348 272 451 269 462 c 0
 259 492 245 493 235 462 c 0
 230 449 198 347 167 250 c 1
EndSplineSet
EndChar

StartChar: Adieresis
Encoding: 196 196 130
Width: 531
Flags: MW
HStem: 0 43<13 21 21 28.5 133.5 154 13 21 374 382.5 514 515> 208 42<167 332 167 345 154 332> 756 67<197.5 230 314.5 347.5>
LayerCount: 2
Fore
SplineSet
514 43 m 2
 515 43 l 1
 515 0 l 1
 374 0 l 1
 374 43 l 1
 391 43 393 49 388 63 c 0
 386 69 367 133 345 208 c 1
 154 208 l 1
 132 139 113 81 111 73 c 0
 105 52 113 43 154 43 c 1
 154 0 l 1
 13 0 l 1
 13 43 l 1
 21 43 l 2
 36 43 48 47 65 94 c 0
 84 149 236 634 247 671 c 0
 258 709 286 710 298 671 c 1
 311 633 455 132 468 95 c 0
 481 58 492 43 514 43 c 2
167 250 m 1
 332 250 l 1
 303 348 272 451 269 462 c 0
 259 492 245 493 235 462 c 0
 230 449 198 347 167 250 c 1
214 823 m 0
 247 823 247 798 247 789 c 0
 247 780 247 756 213 756 c 0
 181 756 179 782 179 790 c 0
 179 799 181 823 214 823 c 0
331 823 m 0
 364 823 364 798 364 789 c 0
 364 780 364 756 331 756 c 0
 298 756 296 782 296 790 c 0
 296 799 298 823 331 823 c 0
EndSplineSet
EndChar

StartChar: copyright
Encoding: 169 169 131
Width: 784
Flags: MW
HStem: 0 37<297 469.5 297 479.5> 149 43<384 424 384 428.5> 399 153<339 518.5> 515 37<357.5 431.5> 662 37<297 469.5>
VStem: 34 37<263 435.5 263 445.5> 195 83<292 397 286 400> 696 37<263 435.5>
LayerCount: 2
Fore
SplineSet
538 261 m 0xdf
 549 255 525 220 514 207 c 0
 501 190 466 149 391 149 c 0
 282 149 195 238 195 346 c 0
 195 454 282 552 396 552 c 0
 510 552 541 475 541 448 c 0
 541 431 540 399 497 399 c 0xef
 442 399 449 478 494 478 c 1
 494 478 472 515 391 515 c 0
 324 515 278 450 278 344 c 0
 278 228 367 192 401 192 c 0
 447 192 475 205 494 225 c 0
 517 249 526 268 538 261 c 0xdf
383 0 m 0
 191 0 34 157 34 349 c 0
 34 542 191 699 383 699 c 0
 576 699 733 542 733 349 c 0
 733 157 576 0 383 0 c 0
383 662 m 0
 211 662 71 522 71 349 c 0
 71 177 211 37 383 37 c 0
 556 37 696 177 696 349 c 0
 696 522 556 662 383 662 c 0
EndSplineSet
EndChar

StartChar: registered
Encoding: 174 174 132
Width: 840
Flags: MW
HStem: 0 37<333 505.5 333 515.5> 152 24<292 299.5 365 372 292 299.5 488 501.5 561 569> 301 33<358 408 408 435 358 408> 523 24<292 298.5 358 358 358 407> 662 37<333 505.5>
VStem: 70 37<263 435.5 263 445.5> 306 52<207 218.5 218.5 301 334 492 492 499.5> 520 49<399.5 455> 732 37<263 435.5>
LayerCount: 2
Fore
SplineSet
419 0 m 0
 227 0 70 157 70 349 c 0
 70 542 227 699 419 699 c 0
 612 699 769 542 769 349 c 0
 769 157 612 0 419 0 c 0
419 662 m 0
 247 662 107 522 107 349 c 0
 107 177 247 37 419 37 c 0
 592 37 732 177 732 349 c 0
 732 522 592 662 419 662 c 0
541 206 m 0
 553 179 553 176 569 176 c 1
 569 152 l 1
 488 152 l 1
 488 176 l 1
 515 176 512 182 501 206 c 0
 492 225 467 284 459 303 c 1
 451 302 443 301 435 301 c 2
 358 301 l 1
 358 301 358 230 358 207 c 0
 358 181 358 176 372 176 c 1
 372 168 372 152 372 152 c 1
 292 152 l 1
 292 176 l 1
 307 176 306 180 306 207 c 0
 306 234 306 492 306 492 c 2
 306 507 305 523 292 523 c 1
 292 535 292 547 292 547 c 1
 292 547 350 547 435 547 c 0
 519 547 569 496 569 425 c 0
 569 374 543 331 492 311 c 1
 500 292 531 229 541 206 c 0
408 334 m 0
 493 334 520 372 520 427 c 0
 520 483 492 523 407 523 c 2
 358 523 l 1
 358 334 l 1
 358 334 377 334 408 334 c 0
EndSplineSet
EndChar

StartChar: ordfeminine
Encoding: 170 170 133
Width: 351
Flags: MW
HStem: 399 24<255.5 290.5> 581 118<71 204> 679 20<160 182>
VStem: 54 49 54 61<605.5 622 605.5 623> 207 66<451 454 454 473 473 571 550.5 571>
LayerCount: 2
Fore
SplineSet
308 433 m 0xcc
 311 431 312 426 305 419 c 1
 299 411 290 399 265 399 c 0
 246 399 225 407 214 425 c 1
 201 409 178 399 135 399 c 0
 35 399 47 469 47 473 c 0
 47 492 67 526 118 553 c 0
 151 570 169 578 207 598 c 1
 207 606 207 612 207 618 c 0
 207 661 193 679 171 679 c 0xb4
 149 679 110 664 99 646 c 1
 99 646 115 630 115 614 c 0
 115 597 99 581 80 581 c 0
 62 581 54 593 54 605 c 0
 54 641 101 699 170 699 c 0
 238 699 273 679 273 594 c 0
 273 509 273 486 273 460 c 0
 273 434 274 423 286 423 c 0
 295 423 299 431 301 433 c 0
 303 435 306 434 308 433 c 0xcc
141 422 m 0
 161 422 192 428 207 451 c 0
 207 452 207 453 207 454 c 0
 207 482 207 530 207 571 c 1
 192 562 179 553 156 539 c 0
 124 519 103 502 103 474 c 0
 103 447 112 422 141 422 c 0
EndSplineSet
EndChar

StartChar: onesuperior
Encoding: 185 185 134
Width: 187
Flags: MW
HStem: 403 21G<56 136 56 56>
VStem: 74 42<446 485.5 485.5 641 641 641>
LayerCount: 2
Fore
SplineSet
116 446 m 0
 116 424 116 422 136 422 c 1
 136 412 136 403 136 403 c 1
 56 403 l 1
 56 403 56 413 56 422 c 1
 74 422 74 425 74 446 c 0
 74 468 74 641 74 641 c 1
 53 641 l 1
 53 660 l 1
 53 660 102 692 109 697 c 0
 117 702 116 701 116 692 c 0
 116 685 116 525 116 446 c 0
EndSplineSet
EndChar

StartChar: twosuperior
Encoding: 178 178 135
Width: 336
Flags: MW
HStem: 403 44<119 225 225 237> 575 125<89.5 214.5>
VStem: 66 59<599 614.5> 235 42<609 629>
LayerCount: 2
Fore
SplineSet
237 403 m 0
 201 403 66 403 66 403 c 1
 66 403 66 428 66 438 c 0
 66 448 73 451 81 457 c 0
 88 463 155 522 185 545 c 0
 215 569 235 596 235 618 c 0
 235 640 219 682 175 682 c 0
 130 682 103 629 103 629 c 1
 103 629 125 627 125 607 c 0
 125 587 117 575 99 575 c 0
 80 575 66 591 66 607 c 0
 66 622 91 700 173 700 c 0
 256 700 277 664 277 627 c 0
 277 591 236 555 221 540 c 1
 205 526 119 447 119 447 c 1
 119 447 193 447 225 447 c 0
 256 447 259 464 262 475 c 0
 265 485 277 502 277 471 c 0
 277 422 277 403 237 403 c 0
EndSplineSet
EndChar

StartChar: threesuperior
Encoding: 179 179 136
Width: 364
Flags: MW
HStem: 403 172<166 166 199 214.5 166 218.5> 560 140<166 197> 659 41<126 139 139 208>
VStem: 81 212<465.5 483 465.5 671> 250 43<466.5 509>
LayerCount: 2
Fore
SplineSet
111 453 m 1xb0
 111 453 123 422 187 422 c 0
 231 422 250 445 250 488 c 0
 250 530 228 560 166 560 c 1x48
 166 575 l 1
 166 575 212 618 231 638 c 1
 251 657 249 659 208 659 c 0
 167 659 139 659 139 659 c 2xb0
 113 659 105 658 101 642 c 0
 96 625 92 615 86 615 c 0
 81 615 81 620 81 658 c 0
 81 684 81 700 100 700 c 2
 263 700 l 2x50
 293 700 302 682 281 658 c 1
 259 635 199 575 199 575 c 1
 230 575 293 552 293 487 c 0
 293 444 250 403 187 403 c 0
 123 403 81 445 81 468 c 0
 81 498 117 497 124 483 c 0
 136 460 111 453 111 453 c 1xb0
EndSplineSet
EndChar

StartChar: ordmasculine
Encoding: 186 186 137
Width: 340
Flags: MW
HStem: 399 21G<135 198.5> 679 20G<133.5 199>
VStem: 60 47<527.5 570.5 527.5 591.5> 228 45<527 571>
LayerCount: 2
Fore
SplineSet
166 699 m 0
 232 699 273 636 273 549 c 0
 273 464 230 399 167 399 c 0
 103 399 60 463 60 547 c 0
 60 636 101 699 166 699 c 0
166 418 m 0
 229 418 228 505 228 549 c 0
 228 593 229 680 167 680 c 0
 101 680 107 592 107 549 c 0
 107 506 104 418 166 418 c 0
EndSplineSet
EndChar

StartChar: degree
Encoding: 176 176 138
Width: 452
Flags: MW
HStem: 399 34<182 246.5 182 255.5> 667 33<182 246.5>
VStem: 64 33<517.5 582 517.5 591.5> 331 34<517.5 582>
LayerCount: 2
Fore
SplineSet
214 700 m 0
 297 700 365 633 365 550 c 0
 365 467 297 399 214 399 c 0
 131 399 64 467 64 550 c 0
 64 633 131 700 214 700 c 0
214 433 m 0
 279 433 331 485 331 550 c 0
 331 614 279 667 214 667 c 0
 150 667 97 614 97 550 c 0
 97 485 150 433 214 433 c 0
EndSplineSet
EndChar

StartChar: cent
Encoding: 162 162 139
Width: 535
Flags: MW
HStem: -74 21G<287 323 287 287> 255 81<385 408 385 433.5> 372 38<287 323 323 323> 463 20G<287 323 323 323>
VStem: 103 85<151.5 248.5 151.5 252.5> 287 36<-74 1 -74 1 48 372 410 483> 287 169<296 318.5 296 372 296 372 296 483 296 483>
LayerCount: 2
Fore
SplineSet
453 114 m 0xfc
 464 108 440 72 429 58 c 0
 417 43 386 7 323 1 c 1
 323 -74 l 1
 287 -74 l 1
 287 1 l 1
 183 9 103 96 103 201 c 0
 103 304 181 398 287 409 c 1
 287 483 l 1
 323 483 l 1
 323 410 l 1xfc
 428 404 456 332 456 305 c 0xfa
 456 287 456 255 411 255 c 0
 355 255 362 336 408 336 c 1
 408 336 390 367 323 372 c 1
 323 43 l 1
 365 45 391 58 408 77 c 0
 432 102 442 121 453 114 c 0xfc
287 48 m 1
 287 372 l 1
 227 362 188 298 188 199 c 0
 188 104 246 61 287 48 c 1
EndSplineSet
EndChar

StartChar: sterling
Encoding: 163 163 140
Width: 643
Flags: MW
HStem: -1 32<155.5 180 155.5 188> -1 76<414 489.5> 103 32<151.5 175> 326 49<84 226 84 228 84 226 303 421> 517 183<326.5 513.5> 657 43<360 447>
VStem: 84 36<51 77.5 51 92> 224 80<403 403> 470 72<546.5 565>
LayerCount: 2
Fore
SplineSet
454 75 m 0x7780
 539 75 584 157 584 157 c 1
 609 153 l 1
 609 153 583 -1 396 -1 c 0
 326 -1 289 33 254 62 c 1
 234 23 207 -1 169 -1 c 0
 135 -1 84 9 84 67 c 0
 84 117 131 135 169 135 c 0
 192 135 212 133 229 131 c 1
 236 187 232 259 228 326 c 1
 84 326 l 1
 84 375 l 1
 226 375 l 1
 225 385 225 394 224 403 c 0
 217 593 255 700 398 700 c 0
 527 700 542 606 542 552 c 0
 542 532 525 517 502 517 c 0xbb80
 478 517 470 537 470 556 c 0
 470 574 483 589 503 589 c 1
 503 589 496 657 398 657 c 0
 322 657 304 582 304 403 c 0
 304 394 304 384 303 375 c 1
 421 375 l 1
 421 326 l 1
 302 326 l 1
 299 255 292 181 276 121 c 1
 338 104 374 75 454 75 c 0x7780
166 31 m 0xbb80
 194 31 211 52 221 86 c 1
 204 96 186 103 164 103 c 0
 139 103 120 90 120 65 c 0
 120 37 145 31 166 31 c 0xbb80
EndSplineSet
EndChar

StartChar: yen
Encoding: 165 165 141
Width: 622
Flags: MW
HStem: -1 212<243 267 353 378 243 243> 162 49<117 267 117 267 353 498> 326 49<117 244 117 267 117 244 117 267 373 498> 657 43<83 92.5 205 217 399 422.5 507.5 533>
VStem: 267 86<114 117 117 162 153 162 211 326>
LayerCount: 2
Fore
SplineSet
533 657 m 1xb8
 482 657 485 654 463 597 c 0
 447 558 400 442 373 375 c 1
 498 375 l 1
 498 326 l 1
 353 326 l 1
 353 326 l 1
 353 297 353 254 353 211 c 1
 498 211 l 1
 498 162 l 1
 353 162 l 1x78
 353 142 353 124 353 110 c 0
 353 34 378 42 378 42 c 1
 378 -1 l 1
 243 -1 l 1xb8
 243 42 l 1
 243 42 267 36 267 114 c 0
 267 127 267 144 267 162 c 1
 117 162 l 1x78
 117 211 l 1
 267 211 l 1
 267 253 267 296 267 326 c 1
 267 326 l 1
 117 326 l 1
 117 375 l 1
 244 375 l 1
 213 441 160 554 137 596 c 0
 103 657 102 657 83 657 c 1
 83 672 83 700 83 700 c 1
 217 700 l 1
 217 657 l 1
 193 657 199 646 221 602 c 0
 236 571 296 446 330 375 c 1
 357 441 404 555 421 595 c 0
 445 652 446 657 399 657 c 1
 399 700 l 1
 533 700 l 1
 533 657 l 1xb8
EndSplineSet
EndChar

StartChar: section
Encoding: 167 167 142
Width: 812
Flags: MW
HStem: -299 43<316 465> -299 221<154.5 465> 504 196<335.5 594.5> 657 43<338 441 335.5 442>
VStem: 142 79<226 237.5 528 569.5> 561 78<-172 -125.5 158 177.5>
LayerCount: 2
Fore
SplineSet
553 40 m 1x9c
 602 6 639 -42 639 -109 c 0
 639 -235 540 -299 390 -299 c 0
 240 -299 149 -265 142 -182 c 0
 137 -121 140 -78 169 -78 c 0x6c
 188 -78 188 -107 191 -131 c 0
 194 -164 243 -256 389 -256 c 0
 542 -256 561 -201 561 -151 c 0
 561 -100 504 -57 443 -30 c 1
 362 4 142 31 142 204 c 0
 142 271 181 321 233 353 c 1
 181 386 142 433 142 506 c 0
 142 633 283 700 388 700 c 0
 494 700 552 670 580 657 c 0x9c
 607 645 608 613 608 567 c 0
 608 521 603 504 586 504 c 0xac
 570 504 573 542 568 568 c 1
 561 597 494 657 390 657 c 0
 286 657 221 603 221 553 c 0
 221 503 283 459 343 432 c 0
 403 405 639 363 639 193 c 0
 639 123 607 71 553 40 c 1x9c
343 130 m 0
 372 117 444 100 510 66 c 1
 553 86 561 120 561 152 c 0
 561 203 504 245 443 272 c 0
 406 288 340 302 279 329 c 1
 242 309 221 279 221 251 c 0
 221 201 283 157 343 130 c 0
EndSplineSet
EndChar

StartChar: exclamdown
Encoding: 161 161 143
Width: 297
Flags: MW
HStem: -299 21G<126 180.5> 297 101<127.5 177>
VStem: 99 109<-246 -217.5>
LayerCount: 2
Fore
SplineSet
152 297 m 0
 103 297 102 333 102 347 c 0
 102 361 103 398 152 398 c 0
 202 398 205 358 205 345 c 0
 205 332 202 297 152 297 c 0
208 -246 m 1
 208 -246 208 -299 153 -299 c 0
 99 -299 99 -246 99 -246 c 1
 99 -189 130 161 136 184 c 0
 140 197 141 207 153 207 c 0
 166 207 167 196 169 187 c 0
 177 159 208 -188 208 -246 c 1
EndSplineSet
EndChar

StartChar: questiondown
Encoding: 191 191 144
Width: 584
Flags: MW
HStem: -313 43<271 302 271 352.5> -313 223<251.5 461.5> 283 101<276 325>
VStem: 102 79<-193 -100> 250 103<326 337.5 324.5 340> 275 53<58.5 115.5> 399 103<-153.5 -129.5> 456 46<-192.5 -164>
LayerCount: 2
Fore
SplineSet
300 283 m 0xb9
 251 283 250 319 250 333 c 0
 250 347 251 384 301 384 c 0
 350 384 353 344 353 331 c 0
 353 318 350 283 300 283 c 0xb9
456 -164 m 1
 430 -189 399 -165 399 -142 c 0
 399 -117 420 -90 448 -90 c 0
 475 -90 502 -96 502 -163 c 0
 502 -245 403 -313 302 -313 c 0
 201 -313 102 -270 102 -157 c 0
 102 -43 275 30 275 87 c 0
 275 144 272 152 279 176 c 0
 282 188 290 193 301 193 c 0
 314 193 321 188 323 178 c 0
 331 150 328 145 328 86 c 0x76
 328 -19 181 -12 181 -156 c 0
 181 -230 240 -270 302 -270 c 0
 376 -271 456 -221 456 -164 c 1
EndSplineSet
EndChar

StartChar: brokenbar
Encoding: 166 166 145
Width: 295
Flags: MW
HStem: -299 21G<112 148 112 112> 680 20G<112 148 148 148>
VStem: 112 36<-299 101 -299 101 301 700>
LayerCount: 2
Fore
SplineSet
148 301 m 1
 112 301 l 1
 112 700 l 1
 148 700 l 1
 148 301 l 1
112 101 m 1
 148 101 l 1
 148 -299 l 1
 112 -299 l 1
 112 101 l 1
EndSplineSet
EndChar

StartChar: logicalnot
Encoding: 172 172 146
Width: 668
Flags: MW
HStem: 232 21G<500 535 500 500> 365 35<134 500 134 500>
VStem: 500 35<232 365 232 365>
LayerCount: 2
Fore
SplineSet
500 400 m 1
 535 400 l 1
 535 365 l 1
 535 232 l 1
 500 232 l 1
 500 365 l 1
 134 365 l 1
 134 400 l 1
 500 400 l 1
EndSplineSet
EndChar

StartChar: paragraph
Encoding: 182 182 147
Width: 697
Flags: MW
HStem: 0 43<438 451.5 495 528 567.5 581 438 451.5> 657 43<495 528 495 495 569.5 581>
VStem: 463 32<98 264 43 264> 463 118<0 264> 528 28<74 121.5 121.5 264 264 264 323 603>
LayerCount: 2
Fore
SplineSet
556 603 m 2xe8
 556 603 556 145 556 98 c 0xe8
 556 50 554 43 581 43 c 1
 581 0 l 1
 438 0 l 1
 438 0 438 29 438 43 c 1
 465 43 463 52 463 98 c 0
 463 139 463 264 463 264 c 1
 328 264 l 2
 178 264 90 359 90 484 c 0
 90 610 178 700 328 700 c 0
 478 700 581 700 581 700 c 1
 581 700 581 679 581 657 c 1xd0
 558 657 556 629 556 603 c 2xe8
528 43 m 1
 528 264 l 1
 495 264 l 1
 495 43 l 1
 528 43 l 1
528 323 m 1
 528 657 l 1
 495 657 l 1
 495 323 l 1
 528 323 l 1
EndSplineSet
EndChar

StartChar: mu
Encoding: 181 181 148
Width: 663
Flags: MW
HStem: 12 47<257.5 305>
VStem: 107 88<-262 -228 157.5 210 210 278 278 352 342 371.5> 416 85<176 352 352 371.5>
LayerCount: 2
Fore
SplineSet
531 60 m 1
 558 92 562 53 546 36 c 0
 529 19 513 13 476 13 c 0
 430 13 418 41 415 90 c 1
 378 50 334 12 276 12 c 0
 239 12 189 31 152 66 c 1
 156 -53 195 -198 195 -258 c 0
 195 -303 107 -321 107 -262 c 0
 107 -238 107 278 107 278 c 1
 107 278 107 332 107 352 c 0
 107 391 148 402 176 407 c 0
 193 410 195 409 195 379 c 2
 195 379 195 234 195 186 c 0
 195 129 204 59 296 59 c 0
 343 59 396 140 416 176 c 1
 416 352 l 2
 416 391 455 402 482 407 c 0
 499 410 501 409 501 379 c 2
 501 120 l 2
 501 57 505 27 531 60 c 1
EndSplineSet
EndChar

StartChar: cedilla
Encoding: 184 184 149
Width: 297
Flags: MW
HStem: 58 20G<150 174 174 174>
VStem: 103 100<-128.5 -5 -50 -2>
LayerCount: 2
Fore
SplineSet
191 25 m 0
 198 18 203 3 203 -13 c 0
 203 -87 103 -133 103 -124 c 0
 103 -98 156 -75 156 -38 c 1
 156 -38 158 -2 103 -2 c 1
 150 78 l 1
 174 78 l 1
 154 46 l 1
 171 42 182 34 191 25 c 0
EndSplineSet
EndChar

StartChar: periodcentered
Encoding: 183 183 150
Width: 365
Flags: MW
HStem: 216 173<154 238>
VStem: 106 175<294 313.5 290 317>
LayerCount: 2
Fore
SplineSet
197 389 m 0
 281 389 281 325 281 302 c 0
 281 278 281 216 195 216 c 0
 111 216 106 283 106 305 c 0
 106 329 111 389 197 389 c 0
EndSplineSet
EndChar

StartChar: plusminus
Encoding: 177 177 151
Width: 463
Flags: MW
HStem: 304 91<147.5 293.5>
VStem: 175 91<304 304>
LayerCount: 2
Fore
SplineSet
96 144 m 0
 77 135 49 78 66 64 c 0
 77 55 334 59 345 64 c 0
 364 74 391 129 376 144 c 0
 368 151 119 154 96 144 c 0
376 389 m 0
 391 375 364 320 345 310 c 0
 341 308 308 306 266 305 c 1
 266 249 265 200 260 195 c 0
 247 179 190 206 181 226 c 0
 178 233 176 265 175 304 c 1
 120 304 71 306 66 310 c 0
 49 323 77 381 96 389 c 0
 104 392 135 394 175 395 c 1
 176 452 178 502 181 505 c 0
 196 521 251 493 260 475 c 0
 262 471 264 438 265 395 c 1
 322 395 372 392 376 389 c 0
EndSplineSet
EndChar

StartChar: onequarter
Encoding: 188 188 152
Width: 777
Flags: MW
HStem: 0 107<598 598 598 617 661 679> 85 22<532 543.5 532 617 532 617 661 704 661 673.5> 679 20G<587 630 630 630>
VStem: 105 43<443 482.5 482.5 638 638 638> 617 44<43 49.5 49.5 85 77.5 85 107 145 145 213 198.5 219.5>
LayerCount: 2
Fore
SplineSet
587 699 m 1xb8
 630 699 l 1
 145 0 l 1
 101 0 l 1
 587 699 l 1xb8
148 443 m 0
 148 421 148 418 167 418 c 1
 167 408 167 400 167 400 c 1
 87 400 l 1
 87 400 87 409 87 418 c 1
 105 418 105 421 105 443 c 0
 105 464 105 638 105 638 c 1
 84 638 l 1
 84 656 l 1
 84 656 133 688 141 694 c 0
 148 699 148 697 148 688 c 0
 148 682 148 522 148 443 c 0
704 85 m 1x78
 704 85 686 85 661 85 c 1x78
 661 70 661 56 661 43 c 0
 661 20 661 19 679 19 c 1
 679 11 679 0 679 0 c 1
 598 0 l 1xb8
 598 0 598 11 598 19 c 1
 617 19 617 21 617 43 c 0
 617 56 617 70 617 85 c 1
 588 85 556 85 531 85 c 0
 467 85 491 107 509 128 c 0
 527 149 619 258 638 281 c 0
 658 306 661 306 661 281 c 0
 661 272 661 183 661 107 c 1
 704 107 l 1
 704 85 l 1x78
532 107 m 2
 617 107 l 1
 617 144 617 184 617 213 c 0
 617 226 614 225 606 214 c 0
 598 204 543 138 535 128 c 0
 527 119 518 107 532 107 c 2
EndSplineSet
EndChar

StartChar: onehalf
Encoding: 189 189 153
Width: 791
Flags: MW
HStem: 0 43<554 660 554 672 654 660 554 692> 172 125<524 649.5> 679 20G<595 638 638 638>
VStem: 113 42<443 482.5 482.5 638 638 638> 501 59<195.5 211> 560 110<203 214> 670 42<206 225>
LayerCount: 2
Fore
SplineSet
595 699 m 1xfa
 638 699 l 1
 152 0 l 1
 109 0 l 1
 595 699 l 1xfa
155 443 m 0
 155 421 156 418 175 418 c 1
 175 408 175 400 175 400 c 1
 95 400 l 1
 95 400 95 409 95 418 c 1
 113 418 113 421 113 443 c 0
 113 464 113 638 113 638 c 1
 92 638 l 1
 92 656 l 1
 92 656 141 688 148 694 c 1
 156 699 155 697 155 688 c 0
 155 682 155 522 155 443 c 0
672 0 m 0
 712 0 712 18 712 68 c 0
 712 99 701 82 697 71 c 0
 694 61 691 43 660 43 c 0
 628 43 554 43 554 43 c 1
 554 43 640 123 656 137 c 0
 671 151 712 188 712 224 c 0
 712 261 691 297 608 297 c 0
 526 297 501 219 501 203 c 0xfa
 501 188 515 172 533 172 c 0
 552 172 560 184 560 204 c 0
 560 224 538 226 538 226 c 1
 538 226 565 279 610 279 c 0
 654 279 670 236 670 214 c 0xf4
 670 192 650 166 620 142 c 0
 590 118 522 60 515 54 c 0
 508 47 501 45 501 35 c 0
 501 25 501 0 501 0 c 1
 501 0 636 0 672 0 c 0
EndSplineSet
EndChar

StartChar: threequarters
Encoding: 190 190 154
Width: 853
Flags: MW
HStem: 0 107<673 673 673 691 735 753> 85 22<607 617.5 607 691 607 691 735 778 735 747.5> 402 172<179 179 212 227.5 179 231.5> 560 139<179 210> 658 41<139 152 152 221>
VStem: 94 212<464.5 482 464.5 670> 263 43<465.5 508> 691 44<43 49.5 49.5 85 77.5 85 107 145 145 213 198.5 219.5>
LayerCount: 2
Fore
SplineSet
124 453 m 1xad
 124 453 136 421 200 421 c 0
 244 421 263 444 263 487 c 0
 263 529 241 560 179 560 c 1x93
 179 574 l 1
 179 574 225 617 244 637 c 1
 264 656 263 658 221 658 c 0
 180 658 152 658 152 658 c 2
 126 658 118 657 114 641 c 0
 109 624 105 614 99 614 c 0
 94 614 94 619 94 657 c 0
 94 683 94 699 113 699 c 2
 276 699 l 2
 306 699 315 681 294 658 c 0
 272 634 212 574 212 574 c 1
 243 574 306 551 306 486 c 0
 306 443 263 402 200 402 c 0
 136 402 94 444 94 467 c 0
 94 497 130 496 137 482 c 0
 149 459 124 453 124 453 c 1xad
661 699 m 1
 705 699 l 1
 219 0 l 1
 175 0 l 1
 661 699 l 1
778 85 m 1x6d
 778 85 760 85 735 85 c 1x6d
 735 70 735 56 735 43 c 0
 735 20 735 19 753 19 c 1
 753 11 753 0 753 0 c 1
 673 0 l 1xad
 673 0 673 11 673 19 c 1
 691 19 691 21 691 43 c 0
 691 56 691 70 691 85 c 1
 662 85 630 85 605 85 c 0
 541 85 565 107 583 128 c 0
 601 149 693 258 712 281 c 0
 732 306 735 306 735 281 c 0
 735 272 735 183 735 107 c 1
 778 107 l 1
 778 85 l 1x6d
607 107 m 2
 691 107 l 1
 691 144 691 184 691 213 c 0
 691 226 689 225 680 214 c 0
 672 204 618 138 610 128 c 1
 601 119 592 107 607 107 c 2
EndSplineSet
EndChar

StartChar: Aring
Encoding: 197 197 155
Width: 531
Flags: MW
HStem: 0 43<13 21 21 28.5 133.5 154 13 21 374 382.5 514 515> 208 42<167 332 167 345 154 332> 700 130<254 290>
VStem: 207 130<747 783>
LayerCount: 2
Fore
SplineSet
272 830 m 0
 308 830 337 801 337 765 c 0
 337 729 308 700 272 700 c 0
 236 700 207 729 207 765 c 0
 207 801 236 830 272 830 c 0
272 714 m 0
 300 714 323 737 323 765 c 0
 323 792 300 815 272 815 c 0
 245 815 222 792 222 765 c 0
 222 737 245 714 272 714 c 0
514 43 m 2
 515 43 l 1
 515 0 l 1
 374 0 l 1
 374 43 l 1
 391 43 393 49 388 63 c 0
 386 69 367 133 345 208 c 1
 154 208 l 1
 132 139 113 81 111 73 c 0
 105 52 113 43 154 43 c 1
 154 0 l 1
 13 0 l 1
 13 43 l 1
 21 43 l 2
 36 43 48 47 65 94 c 0
 84 149 236 634 247 671 c 0
 258 709 286 710 298 671 c 1
 311 633 455 132 468 95 c 0
 481 58 492 43 514 43 c 2
167 250 m 1
 332 250 l 1
 303 348 272 451 269 462 c 0
 259 492 245 493 235 462 c 0
 230 449 198 347 167 250 c 1
EndSplineSet
EndChar

StartChar: AE
Encoding: 198 198 156
Width: 1037
Flags: MW
HStem: 0 43<86 106 106 114 219.5 240 86 106 454 463 572 817 817 848> 208 42<314 478 314 478 288 478> 363 42<572 584 572 584 584 657> 531 169<454 947.5> 657 43<454 483 572 572 572 817>
VStem: 478 94<101 208 180.5 208 250 343 327 363 43 374>
LayerCount: 2
Fore
SplineSet
941 169 m 0xec
 954 169 954 156 954 67 c 0
 954 6 954 0 909 0 c 0
 863 0 454 0 454 0 c 1
 454 0 454 24 454 43 c 1
 472 43 478 64 478 101 c 0
 478 112 478 153 478 208 c 1
 288 208 l 1
 245 139 210 81 206 73 c 0
 193 52 199 43 240 43 c 1
 240 0 l 1
 86 0 l 1
 86 43 l 1
 106 43 l 2
 122 43 135 47 165 94 c 0
 192 135 360 411 454 567 c 0
 463 581 512 657 454 657 c 1xec
 454 700 l 1
 454 700 863 700 909 700 c 0
 954 700 954 694 954 633 c 0
 954 543 954 531 941 531 c 0xf4
 928 531 918 556 908 595 c 0
 898 634 879 657 817 657 c 0
 755 657 572 657 572 657 c 1
 572 405 l 1
 584 405 l 2
 595 405 619 405 658 405 c 0
 715 405 711 479 711 479 c 1
 753 479 l 1
 753 282 l 1
 707 282 l 1
 707 282 715 363 657 363 c 0
 628 363 601 363 584 363 c 2
 572 363 l 1
 572 43 l 1
 572 43 755 43 817 43 c 0
 879 43 898 66 908 105 c 0
 918 144 928 169 941 169 c 0xec
478 250 m 1
 478 280 478 311 478 343 c 0
 478 405 478 454 477 462 c 0
 476 492 463 493 443 462 c 0
 435 449 373 347 314 250 c 1
 478 250 l 1
EndSplineSet
EndChar

StartChar: Ccedilla
Encoding: 199 199 157
Width: 618
Flags: MW
HStem: -72 138<259 393.5> 0 66<288.5 393.5 288.5 414> 636 64<285 385>
VStem: 32 102<253.5 448.5 253.5 453> 259 100<-198.5 -75 -120 -72>
LayerCount: 2
Fore
SplineSet
134 350 m 0x78
 134 157 237 66 340 66 c 0
 447 66 525 119 544 174 c 0
 555 205 582 209 582 176 c 0
 582 105 489 0 339 0 c 0
 188 0 32 142 32 349 c 0
 32 557 188 700 336 700 c 0
 483 700 541 649 556 631 c 0
 571 613 582 591 582 541 c 0
 582 492 546 482 534 532 c 0
 521 582 435 636 335 636 c 0
 235 636 134 547 134 350 c 0x78
347 -45 m 0
 354 -52 359 -67 359 -83 c 0
 359 -157 259 -203 259 -194 c 0
 259 -168 312 -145 312 -108 c 1
 312 -108 314 -72 259 -72 c 1xb8
 306 8 l 1
 330 8 l 1
 310 -24 l 1
 327 -28 338 -36 347 -45 c 0
EndSplineSet
EndChar

StartChar: Egrave
Encoding: 200 200 158
Width: 596
Flags: MW
HStem: 0 43<46 55.5 164 409> 363 43<164 176 176 249 234.5 251> 531 169<46 539.5> 657 43<46 53.5 164 409 378.5 440>
VStem: 70 94<82.5 119.5 101 363 406 606>
LayerCount: 2
Fore
SplineSet
46 0 m 1xd8
 46 0 455 0 501 0 c 0
 546 0 546 6 546 67 c 0
 546 157 546 169 533 169 c 0xe8
 520 169 510 144 500 105 c 0
 490 66 471 43 409 43 c 0
 348 43 164 43 164 43 c 1
 164 363 l 1
 176 363 l 2
 194 363 220 363 249 363 c 0
 307 363 299 282 299 282 c 1
 346 282 l 1
 346 479 l 1
 303 479 l 1
 303 479 307 406 251 406 c 0
 212 406 187 406 176 406 c 2
 164 406 l 1
 164 657 l 1
 164 657 348 657 409 657 c 0xd8
 471 657 490 634 500 595 c 0
 510 556 520 531 533 531 c 0xe8
 546 531 546 543 546 633 c 0
 546 694 546 700 501 700 c 0
 455 700 46 700 46 700 c 1
 46 657 l 1
 61 657 70 645 70 606 c 0
 70 567 70 138 70 101 c 0
 70 64 65 43 46 43 c 1
 46 24 46 0 46 0 c 1xd8
257 854 m 0
 282 879 301 861 307 854 c 1
 314 848 350 801 362 757 c 0
 362 755 364 752 363 751 c 0
 361 750 359 751 356 751 c 0
 311 763 262 797 256 803 c 0
 249 810 232 829 257 854 c 0
EndSplineSet
EndChar

StartChar: Eacute
Encoding: 201 201 159
Width: 596
Flags: MW
HStem: 0 43<46 55.5 46 55.5 164 409 409 440> 0 169<46 539.5> 363 43<164 176 164 176 176 249> 531 169<46 539.5> 657 43<46 53.5 164 164 164 409>
VStem: 70 94<101 363 406 606 586.5 625.5>
LayerCount: 2
Fore
SplineSet
46 0 m 1x74
 46 0 46 24 46 43 c 1
 65 43 70 64 70 101 c 0
 70 138 70 567 70 606 c 0
 70 645 61 657 46 657 c 1xac
 46 700 l 1
 46 700 455 700 501 700 c 0
 546 700 546 694 546 633 c 0
 546 543 546 531 533 531 c 0xb4
 520 531 510 556 500 595 c 0
 490 634 471 657 409 657 c 0
 348 657 164 657 164 657 c 1
 164 406 l 1
 176 406 l 2
 187 406 212 406 251 406 c 0
 307 406 303 479 303 479 c 1
 346 479 l 1
 346 282 l 1
 299 282 l 1
 299 282 307 363 249 363 c 0
 220 363 194 363 176 363 c 2
 164 363 l 1
 164 43 l 1
 164 43 348 43 409 43 c 0xac
 471 43 490 66 500 105 c 0
 510 144 520 169 533 169 c 0
 546 169 546 157 546 67 c 0
 546 6 546 0 501 0 c 0
 455 0 46 0 46 0 c 1x74
339 853 m 0
 364 828 347 809 340 802 c 0
 334 796 285 762 240 750 c 0
 237 750 235 749 233 750 c 0
 232 751 234 754 234 756 c 0
 246 800 282 847 289 853 c 1
 295 860 314 878 339 853 c 0
EndSplineSet
EndChar

StartChar: Ecircumflex
Encoding: 202 202 160
Width: 596
Flags: MW
HStem: 0 43<46 55.5 164 409> 363 43<164 176 176 249 234.5 251> 531 169<46 539.5> 657 43<46 53.5 164 409 378.5 440> 906 20G<305 305>
VStem: 70 94<82.5 119.5 101 363 406 606>
LayerCount: 2
Fore
SplineSet
300 922 m 1xdc
 305 926 l 1
 309 922 l 1
 509 751 l 1
 506 747 l 1
 305 842 l 1
 105 747 l 1
 101 751 l 1
 300 922 l 1xdc
46 0 m 1
 46 0 455 0 501 0 c 0
 546 0 546 6 546 67 c 0
 546 157 546 169 533 169 c 0xec
 520 169 510 144 500 105 c 0
 490 66 471 43 409 43 c 0
 348 43 164 43 164 43 c 1
 164 363 l 1
 176 363 l 2
 194 363 220 363 249 363 c 0
 307 363 299 282 299 282 c 1
 346 282 l 1
 346 479 l 1
 303 479 l 1
 303 479 307 406 251 406 c 0
 212 406 187 406 176 406 c 2
 164 406 l 1
 164 657 l 1
 164 657 348 657 409 657 c 0xdc
 471 657 490 634 500 595 c 0
 510 556 520 531 533 531 c 0xec
 546 531 546 543 546 633 c 0
 546 694 546 700 501 700 c 0
 455 700 46 700 46 700 c 1
 46 657 l 1
 61 657 70 645 70 606 c 0
 70 567 70 138 70 101 c 0
 70 64 65 43 46 43 c 1
 46 24 46 0 46 0 c 1
EndSplineSet
EndChar

StartChar: Edieresis
Encoding: 203 203 161
Width: 596
Flags: MW
HStem: 0 43<46 55.5 164 409> 363 43<164 176 176 249 234.5 251> 531 169<46 539.5> 657 43<46 53.5 164 409 378.5 440> 756 67<259.5 292 376.5 409.5>
VStem: 70 94<82.5 119.5 101 363 406 606>
LayerCount: 2
Fore
SplineSet
46 0 m 1xdc
 46 0 455 0 501 0 c 0
 546 0 546 6 546 67 c 0
 546 157 546 169 533 169 c 0
 520 169 510 144 500 105 c 0
 490 66 471 43 409 43 c 0
 348 43 164 43 164 43 c 1
 164 363 l 1
 176 363 l 2
 194 363 220 363 249 363 c 0
 307 363 299 282 299 282 c 1
 346 282 l 1
 346 479 l 1
 303 479 l 1
 303 479 307 406 251 406 c 0
 212 406 187 406 176 406 c 2
 164 406 l 1
 164 657 l 1
 164 657 348 657 409 657 c 0xdc
 471 657 490 634 500 595 c 0
 510 556 520 531 533 531 c 0xec
 546 531 546 543 546 633 c 0
 546 694 546 700 501 700 c 0
 455 700 46 700 46 700 c 1
 46 657 l 1
 61 657 70 645 70 606 c 0
 70 567 70 138 70 101 c 0
 70 64 65 43 46 43 c 1
 46 24 46 0 46 0 c 1xdc
276 823 m 0
 309 823 309 798 309 789 c 0
 309 780 309 756 275 756 c 0
 243 756 241 782 241 790 c 0
 241 799 243 823 276 823 c 0
393 823 m 0
 426 823 426 798 426 789 c 0
 426 780 426 756 393 756 c 0
 360 756 358 782 358 790 c 0
 358 799 360 823 393 823 c 0
EndSplineSet
EndChar

StartChar: Igrave
Encoding: 204 204 162
Width: 227
Flags: MW
HStem: 0 21G<38 189 38 38> 680 20G<38 189 189 189>
VStem: 38 151<0 43 33.5 43 657 700> 62 103<101 119.5 119.5 606 586.5 606>
LayerCount: 2
Fore
SplineSet
189 0 m 1xe0
 38 0 l 1
 38 0 38 24 38 43 c 1xe0
 57 43 62 64 62 101 c 0
 62 138 62 567 62 606 c 0xd0
 62 645 53 657 38 657 c 1
 38 700 l 1
 189 700 l 1
 189 657 l 1xe0
 174 657 165 645 165 606 c 0
 165 567 165 138 165 101 c 0xd0
 165 64 170 43 189 43 c 1
 189 24 189 0 189 0 c 1xe0
73 850 m 0
 98 875 117 857 123 850 c 1
 130 844 166 797 178 753 c 0
 178 751 180 748 179 747 c 0
 177 746 175 747 172 747 c 0
 127 759 78 793 72 799 c 0
 65 806 48 825 73 850 c 0
EndSplineSet
EndChar

StartChar: Iacute
Encoding: 205 205 163
Width: 227
Flags: MW
HStem: 0 21G<38 189 38 38> 680 20G<38 189 189 189>
VStem: 38 151<0 43 33.5 43 657 700> 62 103<101 119.5 119.5 606 586.5 606>
LayerCount: 2
Fore
SplineSet
189 0 m 1xe0
 38 0 l 1
 38 0 38 24 38 43 c 1xe0
 57 43 62 64 62 101 c 0
 62 138 62 567 62 606 c 0xd0
 62 645 53 657 38 657 c 1
 38 700 l 1
 189 700 l 1
 189 657 l 1xe0
 174 657 165 645 165 606 c 0
 165 567 165 138 165 101 c 0xd0
 165 64 170 43 189 43 c 1
 189 24 189 0 189 0 c 1xe0
154 857 m 0
 179 832 162 813 155 806 c 0
 149 800 100 766 55 754 c 0
 52 754 50 753 48 754 c 0
 47 755 49 758 49 760 c 0
 61 804 97 851 104 857 c 1
 110 864 129 882 154 857 c 0
EndSplineSet
EndChar

StartChar: Icircumflex
Encoding: 206 206 164
Width: 227
Flags: MW
HStem: 0 21G<38 189 38 38> 680 20G<38 189 189 189> 909 20G<113 113>
VStem: 38 151<0 43 33.5 43 657 700> 62 103<101 119.5 119.5 606 586.5 606>
LayerCount: 2
Fore
SplineSet
108 925 m 1xf0
 113 929 l 1
 117 925 l 1
 317 754 l 1
 314 750 l 1
 113 845 l 1
 -87 750 l 1
 -91 754 l 1
 108 925 l 1xf0
189 0 m 1
 38 0 l 1
 38 0 38 24 38 43 c 1xf0
 57 43 62 64 62 101 c 0
 62 138 62 567 62 606 c 0xe8
 62 645 53 657 38 657 c 1
 38 700 l 1
 189 700 l 1
 189 657 l 1xf0
 174 657 165 645 165 606 c 0
 165 567 165 138 165 101 c 0xe8
 165 64 170 43 189 43 c 1
 189 24 189 0 189 0 c 1
EndSplineSet
EndChar

StartChar: Idieresis
Encoding: 207 207 165
Width: 227
Flags: MW
HStem: 0 21G<38 189 38 38> 680 20G<38 189 189 189> 756 67<39.5 72 156.5 189.5>
VStem: 38 151<0 43 33.5 43 657 700> 62 103<101 119.5 119.5 606 586.5 606>
LayerCount: 2
Fore
SplineSet
189 0 m 1xf0
 38 0 l 1
 38 0 38 24 38 43 c 1xf0
 57 43 62 64 62 101 c 0
 62 138 62 567 62 606 c 0xe8
 62 645 53 657 38 657 c 1
 38 700 l 1
 189 700 l 1
 189 657 l 1xf0
 174 657 165 645 165 606 c 0
 165 567 165 138 165 101 c 0xe8
 165 64 170 43 189 43 c 1
 189 24 189 0 189 0 c 1xf0
56 823 m 0
 89 823 89 798 89 789 c 0
 89 780 89 756 55 756 c 0
 23 756 21 782 21 790 c 0
 21 799 23 823 56 823 c 0
173 823 m 0
 206 823 206 798 206 789 c 0
 206 780 206 756 173 756 c 0
 140 756 138 782 138 790 c 0
 138 799 140 823 173 823 c 0
EndSplineSet
EndChar

StartChar: Eth
Encoding: 208 208 166
Width: 654
Flags: MW
HStem: 0 43<47 57.5 172 249 249 298 47 57.5> 333 33<47 77 47 77 172 385> 656 43<47 57.5 172 172 172 245>
VStem: 77 95<101 333 279.5 333 366 601 589.5 624> 472 102<252 448>
CounterMasks: 1 e0
LayerCount: 2
Fore
SplineSet
294 699 m 0
 443 699 574 554 574 353 c 0
 574 151 446 0 300 0 c 0
 154 0 47 0 47 0 c 1
 47 0 47 31 47 43 c 1
 68 43 77 55 77 101 c 0
 77 123 77 226 77 333 c 1
 47 333 l 1
 47 366 l 1
 77 366 l 1
 77 474 77 578 77 601 c 0
 77 647 68 656 47 656 c 1
 47 699 l 1
 47 699 145 699 294 699 c 0
249 43 m 0
 347 43 472 151 472 349 c 0
 472 547 346 656 245 656 c 0
 193 656 172 656 172 656 c 1
 172 366 l 1
 385 366 l 1
 385 333 l 1
 172 333 l 1
 172 43 l 1
 172 43 180 43 249 43 c 0
EndSplineSet
EndChar

StartChar: Ntilde
Encoding: 209 209 167
Width: 698
Flags: MW
HStem: 0 43<44 55 175 195 44 55> 657 43<44 61 506 526 646 657>
VStem: 44 104<0 132.5 43 132.5> 86 62<108 132.5 132.5 533> 553 62<160 591 567.5 591>
LayerCount: 2
Fore
SplineSet
302 789 m 0xe8
 248 802 229 726 241 775 c 0
 257 840 296 830 327 822 c 2
 360 814 l 1
 360 814 l 1
 360 814 396 805 408 802 c 0
 462 788 481 865 469 815 c 1
 452 751 414 760 383 768 c 2
 350 777 l 1
 350 777 l 1
 350 777 313 786 302 789 c 0xe8
506 700 m 1
 657 700 l 1
 657 657 l 1
 635 657 615 646 615 591 c 2
 615 591 615 180 615 43 c 0
 615 16 586 0 565 0 c 0
 522 0 507 15 447 104 c 0
 373 213 228 429 173 515 c 0
 162 532 148 566 148 533 c 0
 148 478 148 159 148 106 c 0
 148 53 155 43 195 43 c 1
 195 0 l 1
 44 0 l 1
 44 43 l 1xe8
 66 43 86 53 86 108 c 2
 86 108 86 551 86 599 c 0xd8
 86 648 78 657 44 657 c 1
 44 700 l 1
 44 700 139 700 167 700 c 0
 194 700 201 687 251 601 c 1
 296 527 553 160 553 160 c 1
 553 227 553 542 553 593 c 0
 553 646 546 657 506 657 c 1
 506 700 l 1
296 1079 m 0
 242 1092 223 1016 235 1065 c 0
 251 1130 290 1120 321 1112 c 2
 354 1104 l 1
 354 1104 l 1
 354 1104 390 1095 402 1092 c 0
 456 1078 475 1155 463 1105 c 1
 446 1041 408 1050 377 1058 c 2
 344 1067 l 1
 344 1067 l 1
 344 1067 307 1076 296 1079 c 0
EndSplineSet
EndChar

StartChar: Ograve
Encoding: 210 210 168
Width: 678
Flags: MW
HStem: 0 57<263.5 414 263.5 439.5> 647 53<265 411>
VStem: 34 126<299.5 400.5 299.5 424.5> 521 123<298 402>
LayerCount: 2
Fore
SplineSet
339 700 m 0
 537 700 644 499 644 350 c 0
 644 201 540 0 339 0 c 0
 141 0 34 201 34 346 c 0
 34 503 134 700 339 700 c 0
339 57 m 0
 489 57 521 246 521 350 c 0
 521 454 483 647 339 647 c 0
 191 647 160 451 160 350 c 0
 160 249 188 57 339 57 c 0
301 854 m 0
 326 879 345 861 351 854 c 1
 358 848 394 801 406 757 c 0
 406 755 408 752 407 751 c 0
 405 750 403 751 400 751 c 0
 355 763 306 797 300 803 c 0
 293 810 276 829 301 854 c 0
EndSplineSet
EndChar

StartChar: Oacute
Encoding: 211 211 169
Width: 678
Flags: MW
HStem: 0 57<263.5 414 263.5 439.5> 647 53<265 411>
VStem: 34 126<299.5 400.5 299.5 424.5> 521 123<298 402>
LayerCount: 2
Fore
SplineSet
339 700 m 0
 537 700 644 499 644 350 c 0
 644 201 540 0 339 0 c 0
 141 0 34 201 34 346 c 0
 34 503 134 700 339 700 c 0
339 57 m 0
 489 57 521 246 521 350 c 0
 521 454 483 647 339 647 c 0
 191 647 160 451 160 350 c 0
 160 249 188 57 339 57 c 0
380 853 m 0
 405 828 388 809 381 802 c 0
 375 796 326 762 281 750 c 0
 278 750 276 749 274 750 c 0
 273 751 275 754 275 756 c 0
 287 800 323 847 330 853 c 1
 336 860 355 878 380 853 c 0
EndSplineSet
EndChar

StartChar: Ocircumflex
Encoding: 212 212 170
Width: 678
Flags: MW
HStem: 0 57<263.5 414 263.5 439.5> 647 53<265 411> 909 20G<345 345>
VStem: 34 126<299.5 400.5 299.5 424.5> 521 123<298 402>
LayerCount: 2
Fore
SplineSet
340 925 m 1
 345 929 l 1
 349 925 l 1
 549 754 l 1
 546 750 l 1
 345 845 l 1
 145 750 l 1
 141 754 l 1
 340 925 l 1
339 700 m 0
 537 700 644 499 644 350 c 0
 644 201 540 0 339 0 c 0
 141 0 34 201 34 346 c 0
 34 503 134 700 339 700 c 0
339 57 m 0
 489 57 521 246 521 350 c 0
 521 454 483 647 339 647 c 0
 191 647 160 451 160 350 c 0
 160 249 188 57 339 57 c 0
EndSplineSet
EndChar

StartChar: Otilde
Encoding: 213 213 171
Width: 678
Flags: MW
HStem: 0 57<263.5 414 263.5 439.5> 647 53<265 411>
VStem: 34 126<299.5 400.5 299.5 424.5> 521 123<298 402>
LayerCount: 2
Fore
SplineSet
297 787 m 0
 243 800 224 724 236 773 c 0
 252 838 291 828 322 820 c 2
 355 812 l 1
 355 812 l 1
 355 812 391 803 403 800 c 0
 457 786 476 863 464 813 c 1
 447 749 409 758 378 766 c 2
 345 775 l 1
 345 775 l 1
 345 775 308 784 297 787 c 0
339 700 m 0
 537 700 644 499 644 350 c 0
 644 201 540 0 339 0 c 0
 141 0 34 201 34 346 c 0
 34 503 134 700 339 700 c 0
339 57 m 0
 489 57 521 246 521 350 c 0
 521 454 483 647 339 647 c 0
 191 647 160 451 160 350 c 0
 160 249 188 57 339 57 c 0
286 1079 m 0
 232 1092 213 1016 225 1065 c 0
 241 1130 280 1120 311 1112 c 2
 344 1104 l 1
 344 1104 l 1
 344 1104 380 1095 392 1092 c 0
 446 1078 465 1155 453 1105 c 1
 436 1041 398 1050 367 1058 c 2
 334 1067 l 1
 334 1067 l 1
 334 1067 297 1076 286 1079 c 0
EndSplineSet
EndChar

StartChar: Odieresis
Encoding: 214 214 172
Width: 678
Flags: MW
HStem: 0 57<263.5 414 263.5 439.5> 647 53<265 411> 756 67<274.5 307 391.5 424.5>
VStem: 34 126<299.5 400.5 299.5 424.5> 521 123<298 402>
LayerCount: 2
Fore
SplineSet
339 700 m 0
 537 700 644 499 644 350 c 0
 644 201 540 0 339 0 c 0
 141 0 34 201 34 346 c 0
 34 503 134 700 339 700 c 0
339 57 m 0
 489 57 521 246 521 350 c 0
 521 454 483 647 339 647 c 0
 191 647 160 451 160 350 c 0
 160 249 188 57 339 57 c 0
291 823 m 0
 324 823 324 798 324 789 c 0
 324 780 324 756 290 756 c 0
 258 756 256 782 256 790 c 0
 256 799 258 823 291 823 c 0
408 823 m 0
 441 823 441 798 441 789 c 0
 441 780 441 756 408 756 c 0
 375 756 373 782 373 790 c 0
 373 799 375 823 408 823 c 0
EndSplineSet
EndChar

StartChar: multiply
Encoding: 215 215 173
Width: 495
Flags: MW
HStem: 184 21G<102 102 386 386> 496 20G<102 102 386 386>
LayerCount: 2
Fore
SplineSet
410 493 m 1
 268 350 l 1
 410 208 l 1
 386 184 l 1
 244 327 l 1
 102 184 l 1
 78 208 l 1
 220 350 l 1
 78 493 l 1
 102 516 l 1
 244 374 l 1
 386 516 l 1
 410 493 l 1
EndSplineSet
EndChar

StartChar: currency
Encoding: 164 164 174
Width: 588
Flags: MW
HStem: 129 21G<86 86 470 470> 160 28<255.5 300.5> 493 27<255.5 300.5 255.5 320> 531 20G<86 86 470 470>
VStem: 98 27<318 362.5> 431 27<318 362.5 318 382.5>
LayerCount: 2
Fore
SplineSet
458 340 m 0
 458 296 442 255 415 223 c 1
 489 149 l 1
 470 129 l 1
 395 204 l 1
 364 177 323 160 278 160 c 0
 233 160 192 177 161 204 c 1
 86 129 l 1
 67 149 l 1
 142 223 l 1
 114 255 98 296 98 340 c 0
 98 385 114 426 142 458 c 1
 67 532 l 1
 86 551 l 1
 161 477 l 1
 192 504 233 520 278 520 c 0
 323 520 364 504 395 477 c 1
 470 551 l 1
 489 532 l 1
 415 458 l 1
 442 426 458 385 458 340 c 0
278 188 m 0
 362 188 431 256 431 340 c 0
 431 425 362 493 278 493 c 0
 194 493 125 425 125 340 c 0
 125 256 194 188 278 188 c 0
EndSplineSet
EndChar

StartChar: ring
Encoding: 730 730 175
Width: 341
Flags: MW
HStem: 700 130<151 187>
VStem: 104 130<747 783>
LayerCount: 2
Fore
SplineSet
169 830 m 0
 205 830 234 801 234 765 c 0
 234 729 205 700 169 700 c 0
 133 700 104 729 104 765 c 0
 104 801 133 830 169 830 c 0
169 714 m 0
 197 714 220 737 220 765 c 0
 220 792 197 815 169 815 c 0
 142 815 119 792 119 765 c 0
 119 737 142 714 169 714 c 0
EndSplineSet
EndChar

StartChar: Oslash
Encoding: 216 216 176
Width: 773
Flags: MW
HStem: -11 21G<98 98> 0 57<354.5 466 354.5 491.5> 647 53<317 426.5> 691 20G<683 683>
VStem: 86 126<329 400.5 329 424.5> 572 124<298 371.5>
LayerCount: 2
Fore
SplineSet
709 689 m 1x5c
 616 583 l 1
 669 514 696 425 696 350 c 0
 696 201 592 0 391 0 c 0x6c
 306 0 237 37 187 91 c 1
 98 -11 l 1
 73 11 l 1
 165 117 l 1
 113 185 86 273 86 346 c 0
 86 503 186 700 390 700 c 0xac
 476 700 544 663 594 609 c 1
 683 711 l 1
 709 689 l 1x5c
212 350 m 0
 212 308 217 249 234 195 c 1
 534 540 l 1
 507 600 462 647 391 647 c 0
 243 647 212 451 212 350 c 0
572 350 m 0
 572 393 566 451 548 505 c 1
 248 160 l 1
 274 102 318 57 391 57 c 0
 541 57 572 246 572 350 c 0
EndSplineSet
EndChar

StartChar: Ugrave
Encoding: 217 217 177
Width: 577
Flags: MW
HStem: 0 43<266.5 337 266.5 350.5> 657 43<40 49.5 177 191 392 415 525.5 543>
VStem: 63 101<203 260.5 260.5 606 583.5 607> 439 62<208 256.5 256.5 607 581 607>
LayerCount: 2
Fore
SplineSet
40 657 m 1
 40 700 l 1
 191 700 l 1
 191 657 l 1
 163 657 164 653 164 607 c 0
 164 561 164 312 164 209 c 0
 164 105 231 43 302 43 c 0
 372 43 439 105 439 208 c 0
 439 311 439 555 439 607 c 0
 439 659 438 657 392 657 c 1
 392 672 392 700 392 700 c 1
 543 700 l 1
 543 657 l 1
 508 657 501 655 501 607 c 0
 501 558 501 307 501 206 c 0
 501 106 420 0 281 0 c 0
 142 0 63 103 63 203 c 0
 63 303 63 561 63 606 c 0
 63 651 59 657 40 657 c 1
251 855 m 0
 276 880 295 862 301 855 c 1
 308 849 344 802 356 758 c 0
 356 756 358 753 357 752 c 0
 355 751 353 752 350 752 c 0
 305 764 256 798 250 804 c 0
 243 811 226 830 251 855 c 0
EndSplineSet
EndChar

StartChar: Uacute
Encoding: 218 218 178
Width: 577
Flags: MW
HStem: 0 43<266.5 337 266.5 350.5> 657 43<40 49.5 177 191 392 415 525.5 543>
VStem: 63 101<203 260.5 260.5 606 583.5 607> 439 62<208 256.5 256.5 607 581 607>
LayerCount: 2
Fore
SplineSet
40 657 m 1
 40 700 l 1
 191 700 l 1
 191 657 l 1
 163 657 164 653 164 607 c 0
 164 561 164 312 164 209 c 0
 164 105 231 43 302 43 c 0
 372 43 439 105 439 208 c 0
 439 311 439 555 439 607 c 0
 439 659 438 657 392 657 c 1
 392 672 392 700 392 700 c 1
 543 700 l 1
 543 657 l 1
 508 657 501 655 501 607 c 0
 501 558 501 307 501 206 c 0
 501 106 420 0 281 0 c 0
 142 0 63 103 63 203 c 0
 63 303 63 561 63 606 c 0
 63 651 59 657 40 657 c 1
329 853 m 0
 354 828 337 809 330 802 c 0
 324 796 275 762 230 750 c 0
 227 750 225 749 223 750 c 0
 222 751 224 754 224 756 c 0
 236 800 272 847 279 853 c 1
 285 860 304 878 329 853 c 0
EndSplineSet
EndChar

StartChar: Ucircumflex
Encoding: 219 219 179
Width: 577
Flags: MW
HStem: 0 43<266.5 337 266.5 350.5> 657 43<40 49.5 177 191 392 415 525.5 543> 909 20G<296 296>
VStem: 63 101<203 260.5 260.5 606 583.5 607> 439 62<208 256.5 256.5 607 581 607>
LayerCount: 2
Fore
SplineSet
291 925 m 1
 296 929 l 1
 300 925 l 1
 500 754 l 1
 497 750 l 1
 296 845 l 1
 96 750 l 1
 92 754 l 1
 291 925 l 1
40 657 m 1
 40 700 l 1
 191 700 l 1
 191 657 l 1
 163 657 164 653 164 607 c 0
 164 561 164 312 164 209 c 0
 164 105 231 43 302 43 c 0
 372 43 439 105 439 208 c 0
 439 311 439 555 439 607 c 0
 439 659 438 657 392 657 c 1
 392 672 392 700 392 700 c 1
 543 700 l 1
 543 657 l 1
 508 657 501 655 501 607 c 0
 501 558 501 307 501 206 c 0
 501 106 420 0 281 0 c 0
 142 0 63 103 63 203 c 0
 63 303 63 561 63 606 c 0
 63 651 59 657 40 657 c 1
EndSplineSet
EndChar

StartChar: Udieresis
Encoding: 220 220 180
Width: 577
Flags: MW
HStem: 0 43<266.5 337 266.5 350.5> 657 43<40 49.5 177 191 392 415 525.5 543> 756 67<221.5 254 338.5 371.5>
VStem: 63 101<203 260.5 260.5 606 583.5 607> 439 62<208 256.5 256.5 607 581 607>
LayerCount: 2
Fore
SplineSet
40 657 m 1
 40 700 l 1
 191 700 l 1
 191 657 l 1
 163 657 164 653 164 607 c 0
 164 561 164 312 164 209 c 0
 164 105 231 43 302 43 c 0
 372 43 439 105 439 208 c 0
 439 311 439 555 439 607 c 0
 439 659 438 657 392 657 c 1
 392 672 392 700 392 700 c 1
 543 700 l 1
 543 657 l 1
 508 657 501 655 501 607 c 0
 501 558 501 307 501 206 c 0
 501 106 420 0 281 0 c 0
 142 0 63 103 63 203 c 0
 63 303 63 561 63 606 c 0
 63 651 59 657 40 657 c 1
238 823 m 0
 271 823 271 798 271 789 c 0
 271 780 271 756 237 756 c 0
 205 756 203 782 203 790 c 0
 203 799 205 823 238 823 c 0
355 823 m 0
 388 823 388 798 388 789 c 0
 388 780 388 756 355 756 c 0
 322 756 320 782 320 790 c 0
 320 799 322 823 355 823 c 0
EndSplineSet
EndChar

StartChar: Yacute
Encoding: 221 221 181
Width: 539
Flags: MW
HStem: 0 21G<197 349 197 197> 657 43<19 29.5 155.5 169 372 398 493 521>
VStem: 224 97<115 138 138 326 299 326>
LayerCount: 2
Fore
SplineSet
372 700 m 1
 521 700 l 1
 521 657 l 1
 465 657 469 654 443 598 c 1
 418 541 321 326 321 326 c 1
 321 271 321 165 321 111 c 0
 321 35 349 43 349 43 c 1
 349 0 l 1
 197 0 l 1
 197 43 l 1
 197 43 224 37 224 115 c 0
 224 170 224 272 224 326 c 1
 224 326 117 536 79 597 c 0
 41 657 40 657 19 657 c 1
 19 672 19 700 19 700 c 1
 169 700 l 1
 169 657 l 1
 142 657 149 646 173 602 c 0
 190 571 258 446 295 376 c 1
 326 442 378 555 397 595 c 0
 424 652 424 657 372 657 c 1
 372 700 l 1
310 857 m 0
 335 832 318 813 311 806 c 0
 305 800 256 766 211 754 c 0
 208 754 206 753 204 754 c 0
 203 755 205 758 205 760 c 0
 217 804 253 851 260 857 c 1
 266 864 285 882 310 857 c 0
EndSplineSet
EndChar

StartChar: Thorn
Encoding: 222 222 182
Width: 589
Flags: MW
HStem: 0 21G<76 226 76 76> 152 39<293 357 286 376> 508 39<293 357> 508 191<76 357>
VStem: 76 150<0 43 33.5 43 656 699> 100 102<101 106 106 202 256 285.5 285.5 443 497 524.5 524.5 604 584.5 604> 438 80<299 399.5>
LayerCount: 2
Fore
SplineSet
333 547 m 0xe6
 419 547 518 472 518 349 c 0
 518 227 419 152 333 152 c 0
 253 152 208 195 202 202 c 1
 202 150 202 111 202 101 c 0xe6
 202 64 208 43 226 43 c 1
 226 24 226 0 226 0 c 1
 76 0 l 1
 76 0 76 24 76 43 c 1xea
 94 43 100 64 100 101 c 0
 100 138 100 565 100 604 c 0xe6
 100 643 90 656 76 656 c 1
 76 699 l 1
 226 699 l 1
 226 656 l 1xda
 211 656 202 643 202 604 c 0
 202 593 202 552 202 497 c 1
 208 503 253 547 333 547 c 0xe6
320 191 m 0
 394 191 438 249 438 349 c 0
 438 450 394 508 320 508 c 0
 252 508 209 452 202 443 c 1
 202 383 202 315 202 256 c 1
 209 247 252 191 320 191 c 0
EndSplineSet
EndChar

StartChar: germandbls
Encoding: 223 223 183
Width: 659
Flags: MW
HStem: 0 43<72 84 72 199 72 84 212.5 226> 0 90<199 334 311 468> 657 43<291.5 381>
VStem: 99 100<97 338 338 376 376 446 422 517> 354 221<385 596.5> 507 68<487 595> 507 94<133.5 273.5>
LayerCount: 2
Fore
SplineSet
398 405 m 0xb4
 398 397 601 358 601 199 c 0
 601 61 549 0 387 0 c 0
 326 0 292 13 292 43 c 0xb2
 292 73 302 90 320 90 c 0
 348 90 351 56 379 45 c 0
 443 19 507 70 507 197 c 0x72
 507 350 354 365 354 405 c 0xb8
 354 455 507 418 507 556 c 0
 507 634 426 657 336 657 c 0
 247 657 199 617 199 517 c 0
 199 441 199 411 199 376 c 2
 199 338 l 1
 199 97 l 1
 199 97 l 1
 199 94 l 2
 199 47 199 43 226 43 c 1
 226 2 l 1
 226 0 l 1
 199 0 l 2
 120 0 72 0 72 0 c 1
 72 0 72 21 72 43 c 1
 96 43 99 53 99 97 c 2
 99 97 99 398 99 446 c 0
 99 639 191 700 336 700 c 0
 480 700 575 641 575 552 c 0
 575 422 398 411 398 405 c 0xb4
EndSplineSet
EndChar

StartChar: agrave
Encoding: 224 224 184
Width: 375
Flags: MW
HStem: 0 33<284.5 332.5> 247 161<33 214> 381 27<153.5 184>
VStem: 10 67 10 82<280.5 303 280.5 304.5> 218 91<70 74 74 100 100 234 206 234>
LayerCount: 2
Fore
SplineSet
356 46 m 0xcc
 360 43 361 36 352 26 c 0
 343 16 331 0 298 0 c 0
 271 0 242 10 228 35 c 1
 210 13 178 0 120 0 c 0
 -17 0 1 95 1 101 c 0
 1 126 27 173 97 209 c 0
 142 232 166 244 218 271 c 1
 218 281 218 290 218 298 c 0
 218 357 199 381 169 381 c 0xb4
 138 381 86 361 71 336 c 1
 71 336 92 314 92 292 c 0
 92 269 71 247 46 247 c 0
 20 247 10 263 10 280 c 0
 10 329 74 408 167 408 c 0
 261 408 309 381 309 265 c 0
 309 150 309 118 309 82 c 0
 309 47 310 33 326 33 c 0
 339 33 344 43 346 45 c 0
 349 48 354 47 356 46 c 0xcc
128 30 m 0
 156 30 197 39 218 70 c 1
 218 72 218 73 218 74 c 0
 218 112 218 178 218 234 c 1
 198 221 179 210 149 190 c 0
 106 163 77 139 77 102 c 0
 77 64 89 30 128 30 c 0
146 587 m 0
 171 612 190 594 196 587 c 1
 203 581 239 534 251 490 c 0
 251 488 253 485 252 484 c 0
 250 483 248 484 245 484 c 0
 200 496 151 530 145 536 c 0
 138 543 121 562 146 587 c 0
EndSplineSet
EndChar

StartChar: aacute
Encoding: 225 225 185
Width: 375
Flags: MW
HStem: 0 33<284.5 332.5> 247 161<33 214> 381 27<153.5 184>
VStem: 10 67 10 82<280.5 303 280.5 304.5> 218 91<70 74 74 100 100 234 206 234>
LayerCount: 2
Fore
SplineSet
356 46 m 0xcc
 360 43 361 36 352 26 c 0
 343 16 331 0 298 0 c 0
 271 0 242 10 228 35 c 1
 210 13 178 0 120 0 c 0
 -17 0 1 95 1 101 c 0
 1 126 27 173 97 209 c 0
 142 232 166 244 218 271 c 1
 218 281 218 290 218 298 c 0
 218 357 199 381 169 381 c 0xb4
 138 381 86 361 71 336 c 1
 71 336 92 314 92 292 c 0
 92 269 71 247 46 247 c 0
 20 247 10 263 10 280 c 0
 10 329 74 408 167 408 c 0
 261 408 309 381 309 265 c 0
 309 150 309 118 309 82 c 0
 309 47 310 33 326 33 c 0
 339 33 344 43 346 45 c 0
 349 48 354 47 356 46 c 0xcc
128 30 m 0
 156 30 197 39 218 70 c 1
 218 72 218 73 218 74 c 0
 218 112 218 178 218 234 c 1
 198 221 179 210 149 190 c 0
 106 163 77 139 77 102 c 0
 77 64 89 30 128 30 c 0
228 587 m 0
 253 562 236 543 229 536 c 0
 223 530 174 496 129 484 c 0
 126 484 124 483 122 484 c 0
 121 485 123 488 123 490 c 0
 135 534 171 581 178 587 c 1
 184 594 203 612 228 587 c 0
EndSplineSet
EndChar

StartChar: acircumflex
Encoding: 226 226 186
Width: 375
Flags: MW
HStem: 0 33<284.5 332.5> 247 161<33 214> 381 27<153.5 184> 599 20G<184 184>
VStem: 10 67 10 82<280.5 303 280.5 304.5> 218 91<70 74 74 100 100 234 206 234>
LayerCount: 2
Fore
SplineSet
179 615 m 1xd6
 184 619 l 1
 188 615 l 1
 388 444 l 1
 385 440 l 1
 184 535 l 1
 -16 440 l 1
 -20 444 l 1
 179 615 l 1xd6
356 46 m 0
 360 43 361 36 352 26 c 0
 343 16 331 0 298 0 c 0
 271 0 242 10 228 35 c 1
 210 13 178 0 120 0 c 0
 -17 0 1 95 1 101 c 0
 1 126 27 173 97 209 c 0
 142 232 166 244 218 271 c 1
 218 281 218 290 218 298 c 0
 218 357 199 381 169 381 c 0xba
 138 381 86 361 71 336 c 1
 71 336 92 314 92 292 c 0
 92 269 71 247 46 247 c 0
 20 247 10 263 10 280 c 0
 10 329 74 408 167 408 c 0
 261 408 309 381 309 265 c 0
 309 150 309 118 309 82 c 0
 309 47 310 33 326 33 c 0
 339 33 344 43 346 45 c 0
 349 48 354 47 356 46 c 0
128 30 m 0
 156 30 197 39 218 70 c 1
 218 72 218 73 218 74 c 0
 218 112 218 178 218 234 c 1
 198 221 179 210 149 190 c 0
 106 163 77 139 77 102 c 0
 77 64 89 30 128 30 c 0
EndSplineSet
EndChar

StartChar: atilde
Encoding: 227 227 187
Width: 375
Flags: MW
HStem: 0 33<284.5 332.5> 247 161<33 214> 381 27<153.5 184>
VStem: 10 67 10 82<280.5 303 280.5 304.5> 218 91<70 74 74 100 100 234 206 234>
LayerCount: 2
Fore
SplineSet
356 46 m 0xcc
 360 43 361 36 352 26 c 0
 343 16 331 0 298 0 c 0
 271 0 242 10 228 35 c 1
 210 13 178 0 120 0 c 0
 -17 0 1 95 1 101 c 0
 1 126 27 173 97 209 c 0
 142 232 166 244 218 271 c 1
 218 281 218 290 218 298 c 0
 218 357 199 381 169 381 c 0xb4
 138 381 86 361 71 336 c 1
 71 336 92 314 92 292 c 0
 92 269 71 247 46 247 c 0
 20 247 10 263 10 280 c 0
 10 329 74 408 167 408 c 0
 261 408 309 381 309 265 c 0
 309 150 309 118 309 82 c 0
 309 47 310 33 326 33 c 0
 339 33 344 43 346 45 c 0
 349 48 354 47 356 46 c 0xcc
128 30 m 0
 156 30 197 39 218 70 c 1
 218 72 218 73 218 74 c 0
 218 112 218 178 218 234 c 1
 198 221 179 210 149 190 c 0
 106 163 77 139 77 102 c 0
 77 64 89 30 128 30 c 0
135 507 m 0
 81 520 62 444 74 493 c 0
 90 558 129 548 160 540 c 2
 193 532 l 1
 193 532 l 1
 193 532 229 523 241 520 c 0
 295 506 314 583 302 533 c 1
 285 469 247 478 216 486 c 2
 183 495 l 1
 183 495 l 1
 183 495 146 504 135 507 c 0
EndSplineSet
EndChar

StartChar: adieresis
Encoding: 228 228 188
Width: 375
Flags: MW
HStem: 0 33<284.5 332.5> 247 161<33 214> 381 27<153.5 184> 476 67<95.5 128 212.5 245.5>
VStem: 10 67 10 82<280.5 303 280.5 304.5> 218 91<70 74 74 100 100 234 206 234>
LayerCount: 2
Fore
SplineSet
356 46 m 0xd6
 360 43 361 36 352 26 c 0
 343 16 331 0 298 0 c 0
 271 0 242 10 228 35 c 1
 210 13 178 0 120 0 c 0
 -17 0 1 95 1 101 c 0
 1 126 27 173 97 209 c 0
 142 232 166 244 218 271 c 1
 218 281 218 290 218 298 c 0
 218 357 199 381 169 381 c 0xba
 138 381 86 361 71 336 c 1
 71 336 92 314 92 292 c 0
 92 269 71 247 46 247 c 0
 20 247 10 263 10 280 c 0
 10 329 74 408 167 408 c 0
 261 408 309 381 309 265 c 0
 309 150 309 118 309 82 c 0
 309 47 310 33 326 33 c 0
 339 33 344 43 346 45 c 0
 349 48 354 47 356 46 c 0xd6
128 30 m 0
 156 30 197 39 218 70 c 1
 218 72 218 73 218 74 c 0
 218 112 218 178 218 234 c 1
 198 221 179 210 149 190 c 0
 106 163 77 139 77 102 c 0
 77 64 89 30 128 30 c 0
112 543 m 0
 145 543 145 518 145 509 c 0
 145 500 145 476 111 476 c 0
 79 476 77 502 77 510 c 0
 77 519 79 543 112 543 c 0
229 543 m 0
 262 543 262 518 262 509 c 0
 262 500 262 476 229 476 c 0
 196 476 194 502 194 510 c 0
 194 519 196 543 229 543 c 0
EndSplineSet
EndChar

StartChar: aring
Encoding: 229 229 189
Width: 375
Flags: MW
HStem: 0 33<284.5 332.5> 247 161<33 214> 381 103<173.5 184> 470 130<169 205>
VStem: 10 67 122 130<517 553> 218 91<70 74 74 100 100 234 206 234>
LayerCount: 2
Fore
SplineSet
356 46 m 0xda
 360 43 361 36 352 26 c 0
 343 16 331 0 298 0 c 0
 271 0 242 10 228 35 c 1
 210 13 178 0 120 0 c 0
 -17 0 1 95 1 101 c 0
 1 126 27 173 97 209 c 0
 142 232 166 244 218 271 c 1
 218 281 218 290 218 298 c 0
 218 357 199 381 169 381 c 0xaa
 138 381 86 361 71 336 c 1
 71 336 92 314 92 292 c 0
 92 269 71 247 46 247 c 0
 20 247 10 263 10 280 c 0
 10 329 74 408 167 408 c 0
 261 408 309 381 309 265 c 0
 309 150 309 118 309 82 c 0
 309 47 310 33 326 33 c 0
 339 33 344 43 346 45 c 0
 349 48 354 47 356 46 c 0xda
128 30 m 0
 156 30 197 39 218 70 c 1
 218 72 218 73 218 74 c 0
 218 112 218 178 218 234 c 1
 198 221 179 210 149 190 c 0
 106 163 77 139 77 102 c 0
 77 64 89 30 128 30 c 0
187 600 m 0xdc
 223 600 252 571 252 535 c 0
 252 499 223 470 187 470 c 0
 151 470 122 499 122 535 c 0
 122 571 151 600 187 600 c 0xdc
187 484 m 0xac
 215 484 238 507 238 535 c 0
 238 562 215 585 187 585 c 0
 160 585 137 562 137 535 c 0
 137 507 160 484 187 484 c 0xac
EndSplineSet
EndChar

StartChar: ae
Encoding: 230 230 190
Width: 756
Flags: MW
HStem: 0 41<508 551.5 508 561.5> 247 161<102.5 271> 358 50 381 27<223.5 254>
VStem: 79 68 79 83<281 303.5 281 305> 288 91
LayerCount: 2
Fore
SplineSet
607 138 m 0xc6
 643 163 673 131 673 108 c 0
 673 66 629 0 494 0 c 0
 433 0 389 20 360 51 c 1
 320 25 273 3 205 0 c 0
 204 0 203 0 203 0 c 2
 198 0 194 0 189 0 c 0
 53 0 70 95 70 101 c 0
 70 126 97 173 167 209 c 0
 211 232 236 244 288 271 c 1
 288 281 288 290 288 299 c 0
 288 357 269 381 239 381 c 0x9a
 208 381 156 361 141 336 c 1
 141 336 162 315 162 292 c 0
 162 270 141 247 115 247 c 0
 90 247 79 263 79 280 c 0
 79 330 143 408 237 408 c 0
 305 408 349 394 368 341 c 1
 403 381 450 408 498 408 c 0
 595 408 649 339 656 329 c 1
 664 320 672 309 656 294 c 1
 426 104 l 1
 452 66 489 41 527 41 c 0
 576 41 609 65 609 65 c 1
 609 65 566 109 607 138 c 0xc6
379 236 m 1
 377 205 390 167 404 140 c 1
 594 292 l 1
 578 313 534 360 469 358 c 0xaa
 385 355 380 275 379 236 c 1
198 30 m 0
 225 30 267 39 288 70 c 1
 288 108 288 178 288 234 c 1
 268 222 249 210 219 190 c 1
 175 163 147 139 147 102 c 0
 147 64 159 30 198 30 c 0
EndSplineSet
EndChar

StartChar: ccedilla
Encoding: 231 231 191
Width: 432
Flags: MW
HStem: -72 115<166 252.5> 0 43<212 252.5 212 257> 254 80<300 323 300 348.5> 371 37<185 260>
VStem: 20 84<144.5 251.5 139 254> 166 100<-198.5 -75 -120 -72>
LayerCount: 2
Fore
SplineSet
368 114 m 0x7c
 379 107 355 72 344 58 c 0
 331 41 295 0 219 0 c 0
 108 0 20 90 20 199 c 0
 20 309 108 408 224 408 c 0
 340 408 371 331 371 303 c 0
 371 286 371 254 326 254 c 0
 271 254 277 334 323 334 c 1
 323 334 301 371 219 371 c 0
 151 371 104 305 104 198 c 0
 104 80 195 43 229 43 c 0
 276 43 305 57 323 77 c 0
 347 102 357 120 368 114 c 0x7c
254 -45 m 0
 261 -52 266 -67 266 -83 c 0
 266 -157 166 -203 166 -194 c 0
 166 -168 219 -145 219 -108 c 1
 219 -108 221 -72 166 -72 c 1xbc
 213 8 l 1
 237 8 l 1
 217 -24 l 1
 234 -28 245 -36 254 -45 c 0
EndSplineSet
EndChar

StartChar: egrave
Encoding: 232 232 192
Width: 408
Flags: MW
HStem: 0 41<220 263.5 220 274> 359 50
VStem: 23 68
LayerCount: 2
Fore
SplineSet
320 138 m 0
 355 163 386 131 386 108 c 0
 386 66 341 0 207 0 c 0
 72 0 23 94 23 197 c 0
 23 299 114 409 211 409 c 0
 308 409 361 339 369 330 c 0
 377 321 384 309 368 295 c 2
 138 104 l 1
 165 66 201 41 239 41 c 0
 288 41 322 65 322 65 c 1
 322 65 279 109 320 138 c 0
91 236 m 0
 90 205 103 167 116 140 c 1
 306 292 l 1
 290 313 247 361 181 359 c 0
 98 356 93 275 91 236 c 0
163 587 m 0
 188 612 207 594 213 587 c 1
 220 581 256 534 268 490 c 0
 268 488 270 485 269 484 c 0
 267 483 265 484 262 484 c 0
 217 496 168 530 162 536 c 0
 155 543 138 562 163 587 c 0
EndSplineSet
EndChar

StartChar: eacute
Encoding: 233 233 193
Width: 408
Flags: MW
HStem: 0 41<220 263.5 220 274> 359 50
VStem: 23 68
LayerCount: 2
Fore
SplineSet
320 138 m 0
 355 163 386 131 386 108 c 0
 386 66 341 0 207 0 c 0
 72 0 23 94 23 197 c 0
 23 299 114 409 211 409 c 0
 308 409 361 339 369 330 c 0
 377 321 384 309 368 295 c 2
 138 104 l 1
 165 66 201 41 239 41 c 0
 288 41 322 65 322 65 c 1
 322 65 279 109 320 138 c 0
91 236 m 0
 90 205 103 167 116 140 c 1
 306 292 l 1
 290 313 247 361 181 359 c 0
 98 356 93 275 91 236 c 0
245 587 m 0
 270 562 253 543 246 536 c 0
 240 530 191 496 146 484 c 0
 143 484 141 483 139 484 c 0
 138 485 140 488 140 490 c 0
 152 534 188 581 195 587 c 1
 201 594 220 612 245 587 c 0
EndSplineSet
EndChar

StartChar: ecircumflex
Encoding: 234 234 194
Width: 408
Flags: MW
HStem: 0 41<220 263.5 220 274> 359 50 599 20G<209 209>
VStem: 23 68
LayerCount: 2
Fore
SplineSet
204 615 m 1
 209 619 l 1
 213 615 l 1
 413 444 l 1
 410 440 l 1
 209 535 l 1
 9 440 l 1
 5 444 l 1
 204 615 l 1
320 138 m 0
 355 163 386 131 386 108 c 0
 386 66 341 0 207 0 c 0
 72 0 23 94 23 197 c 0
 23 299 114 409 211 409 c 0
 308 409 361 339 369 330 c 0
 377 321 384 309 368 295 c 2
 138 104 l 1
 165 66 201 41 239 41 c 0
 288 41 322 65 322 65 c 1
 322 65 279 109 320 138 c 0
91 236 m 0
 90 205 103 167 116 140 c 1
 306 292 l 1
 290 313 247 361 181 359 c 0
 98 356 93 275 91 236 c 0
EndSplineSet
EndChar

StartChar: edieresis
Encoding: 235 235 195
Width: 408
Flags: MW
HStem: 0 41<220 263.5 220 274> 359 50 476 67<134.5 167 251.5 284.5>
VStem: 23 68
LayerCount: 2
Fore
SplineSet
320 138 m 0
 355 163 386 131 386 108 c 0
 386 66 341 0 207 0 c 0
 72 0 23 94 23 197 c 0
 23 299 114 409 211 409 c 0
 308 409 361 339 369 330 c 0
 377 321 384 309 368 295 c 2
 138 104 l 1
 165 66 201 41 239 41 c 0
 288 41 322 65 322 65 c 1
 322 65 279 109 320 138 c 0
91 236 m 0
 90 205 103 167 116 140 c 1
 306 292 l 1
 290 313 247 361 181 359 c 0
 98 356 93 275 91 236 c 0
151 543 m 0
 184 543 184 518 184 509 c 0
 184 500 184 476 150 476 c 0
 118 476 116 502 116 510 c 0
 116 519 118 543 151 543 c 0
268 543 m 0
 301 543 301 518 301 509 c 0
 301 500 301 476 268 476 c 0
 235 476 233 502 233 510 c 0
 233 519 235 543 268 543 c 0
EndSplineSet
EndChar

StartChar: igrave
Encoding: 236 236 196
Width: 243
Flags: MW
HStem: 0 43<44 63 183 199 44 63>
VStem: 44 122<0 139.5 37 139.5 264 313 313 313> 82 84<112 139.5 139.5 264 264 264>
LayerCount: 2
Fore
SplineSet
166 112 m 0xc0
 166 53 167 43 199 43 c 1
 199 23 199 0 199 0 c 1
 44 0 l 1
 44 0 44 31 44 43 c 1xc0
 82 43 82 53 82 112 c 0
 82 171 82 264 82 264 c 1xa0
 44 264 l 1
 44 313 l 1
 63 331 120 383 132 395 c 0
 147 409 166 422 166 372 c 2
 166 372 166 167 166 112 c 0xc0
80 577 m 0
 105 602 124 584 130 577 c 1
 137 571 173 524 185 480 c 0
 185 478 187 475 186 474 c 0
 184 473 182 474 179 474 c 0
 134 486 85 520 79 526 c 0
 72 533 55 552 80 577 c 0
EndSplineSet
EndChar

StartChar: iacute
Encoding: 237 237 197
Width: 243
Flags: MW
HStem: 0 43<44 63 183 199 44 63>
VStem: 44 122<0 139.5 37 139.5 264 313 313 313> 82 84<112 139.5 139.5 264 264 264>
LayerCount: 2
Fore
SplineSet
166 112 m 0xc0
 166 53 167 43 199 43 c 1
 199 23 199 0 199 0 c 1
 44 0 l 1
 44 0 44 31 44 43 c 1xc0
 82 43 82 53 82 112 c 0
 82 171 82 264 82 264 c 1xa0
 44 264 l 1
 44 313 l 1
 63 331 120 383 132 395 c 0
 147 409 166 422 166 372 c 2
 166 372 166 167 166 112 c 0xc0
162 587 m 0
 187 562 170 543 163 536 c 0
 157 530 108 496 63 484 c 0
 60 484 58 483 56 484 c 0
 55 485 57 488 57 490 c 0
 69 534 105 581 112 587 c 1
 118 594 137 612 162 587 c 0
EndSplineSet
EndChar

StartChar: icircumflex
Encoding: 238 238 198
Width: 243
Flags: MW
HStem: 0 43<44 63 183 199 44 63> 599 20G<123 123>
VStem: 44 122<0 139.5 37 139.5 264 313 313 313> 82 84<112 139.5 139.5 264 264 264>
LayerCount: 2
Fore
SplineSet
166 112 m 0xe0
 166 53 167 43 199 43 c 1
 199 23 199 0 199 0 c 1
 44 0 l 1
 44 0 44 31 44 43 c 1xe0
 82 43 82 53 82 112 c 0
 82 171 82 264 82 264 c 1xd0
 44 264 l 1
 44 313 l 1
 63 331 120 383 132 395 c 0
 147 409 166 422 166 372 c 2
 166 372 166 167 166 112 c 0xe0
118 615 m 1
 123 619 l 1
 127 615 l 1
 327 444 l 1
 324 440 l 1
 123 535 l 1
 -77 440 l 1
 -81 444 l 1
 118 615 l 1
EndSplineSet
EndChar

StartChar: idieresis
Encoding: 239 239 199
Width: 243
Flags: MW
HStem: 0 43<44 63 183 199 44 63> 476 67<46.5 79 163.5 196.5>
VStem: 44 122<0 139.5 37 139.5 264 313 313 313> 82 84<112 139.5 139.5 264 264 264>
LayerCount: 2
Fore
SplineSet
166 112 m 0xe0
 166 53 167 43 199 43 c 1
 199 23 199 0 199 0 c 1
 44 0 l 1
 44 0 44 31 44 43 c 1xe0
 82 43 82 53 82 112 c 0
 82 171 82 264 82 264 c 1xd0
 44 264 l 1
 44 313 l 1
 63 331 120 383 132 395 c 0
 147 409 166 422 166 372 c 2
 166 372 166 167 166 112 c 0xe0
63 543 m 0
 96 543 96 518 96 509 c 0
 96 500 96 476 62 476 c 0
 30 476 28 502 28 510 c 0
 28 519 30 543 63 543 c 0
180 543 m 0
 213 543 213 518 213 509 c 0
 213 500 213 476 180 476 c 0
 147 476 145 502 145 510 c 0
 145 519 147 543 180 543 c 0
EndSplineSet
EndChar

StartChar: eth
Encoding: 240 240 200
Width: 586
Flags: MW
HStem: 0 43<194.5 318.5 185.5 344.5> 405 53<196.5 306.5> 658 42<175 185.5>
VStem: 16 81<196.5 250.5 196.5 299.5> 432 103
LayerCount: 2
Fore
SplineSet
402 614 m 1
 492 531 535 406 535 309 c 0
 535 156 420 0 269 0 c 0
 120 0 16 98 16 223 c 0
 16 376 122 458 271 458 c 0
 350 458 402 416 433 376 c 1
 433 423 420 525 345 592 c 1
 161 522 l 1
 149 553 l 1
 314 616 l 1
 274 641 221 658 150 658 c 1
 175 700 l 1
 255 700 320 676 373 638 c 1
 529 698 l 1
 541 667 l 1
 402 614 l 1
246 43 m 0
 391 43 424 186 432 291 c 1
 402 349 342 405 271 405 c 0
 122 405 97 277 97 224 c 0
 97 169 125 43 246 43 c 0
EndSplineSet
EndChar

StartChar: ntilde
Encoding: 241 241 201
Width: 557
Flags: MW
HStem: 0 43<36 54.5 36 200 36 54.5 337 353 488.5 511> 361 47<266 306>
VStem: 36 125<0 125 32 125> 77 84<108 125 125 250> 375 87<107 141.5 141.5 251 221.5 253>
LayerCount: 2
Fore
SplineSet
462 107 m 0xe8
 462 53 466 43 511 43 c 1
 511 23 511 0 511 0 c 1
 337 0 l 1
 337 0 337 25 337 43 c 1
 369 43 375 50 375 107 c 0
 375 172 375 192 375 251 c 0
 375 310 337 361 275 361 c 0
 227 361 179 283 161 250 c 1
 161 197 161 141 161 109 c 0
 161 53 165 46 200 46 c 1
 200 19 200 0 200 0 c 1
 36 0 l 1
 36 0 36 21 36 43 c 1xe8
 73 43 77 48 77 108 c 0
 77 181 77 262 77 262 c 1xd8
 36 262 l 1
 36 305 l 1
 36 305 119 383 140 399 c 0
 160 415 161 410 161 384 c 0
 161 377 161 357 161 331 c 1
 197 372 238 408 294 408 c 0
 359 408 462 347 462 253 c 0
 462 159 462 176 462 107 c 0xe8
226 517 m 0
 172 530 153 454 165 503 c 0
 181 568 220 558 251 550 c 2
 284 542 l 1
 284 542 l 1
 284 542 320 533 332 530 c 0
 386 516 405 593 393 543 c 1
 376 479 338 488 307 496 c 2
 274 505 l 1
 274 505 l 1
 274 505 237 514 226 517 c 0
EndSplineSet
EndChar

StartChar: ograve
Encoding: 242 242 202
Width: 450
Flags: MW
HStem: 0 34<153.5 234.5 153.5 264> 369 39<156 236>
VStem: -7 97<165.5 242.5 165.5 250> 302 93<166 242>
LayerCount: 2
Fore
SplineSet
194 408 m 0
 324 408 395 300 395 199 c 0
 395 99 331 0 197 0 c 0
 62 0 -7 100 -7 199 c 0
 -7 301 64 408 194 408 c 0
194 34 m 0
 275 34 302 128 302 204 c 0
 302 280 276 369 196 369 c 0
 116 369 90 281 90 204 c 0
 90 127 113 34 194 34 c 0
153 577 m 0
 178 602 197 584 203 577 c 1
 210 571 246 524 258 480 c 0
 258 478 260 475 259 474 c 0
 257 473 255 474 252 474 c 0
 207 486 158 520 152 526 c 0
 145 533 128 552 153 577 c 0
EndSplineSet
EndChar

StartChar: oacute
Encoding: 243 243 203
Width: 450
Flags: MW
HStem: 0 34<153.5 234.5 153.5 264> 369 39<156 236>
VStem: -7 97<165.5 242.5 165.5 250> 302 93<166 242>
LayerCount: 2
Fore
SplineSet
194 408 m 0
 324 408 395 300 395 199 c 0
 395 99 331 0 197 0 c 0
 62 0 -7 100 -7 199 c 0
 -7 301 64 408 194 408 c 0
194 34 m 0
 275 34 302 128 302 204 c 0
 302 280 276 369 196 369 c 0
 116 369 90 281 90 204 c 0
 90 127 113 34 194 34 c 0
234 587 m 0
 259 562 242 543 235 536 c 0
 229 530 180 496 135 484 c 0
 132 484 130 483 128 484 c 0
 127 485 129 488 129 490 c 0
 141 534 177 581 184 587 c 1
 190 594 209 612 234 587 c 0
EndSplineSet
EndChar

StartChar: ocircumflex
Encoding: 244 244 204
Width: 450
Flags: MW
HStem: 0 34<153.5 234.5 153.5 264> 369 39<156 236> 599 20G<192 192>
VStem: -7 97<165.5 242.5 165.5 250> 302 93<166 242>
LayerCount: 2
Fore
SplineSet
187 615 m 1
 192 619 l 1
 196 615 l 1
 396 444 l 1
 393 440 l 1
 192 535 l 1
 -8 440 l 1
 -12 444 l 1
 187 615 l 1
194 408 m 0
 324 408 395 300 395 199 c 0
 395 99 331 0 197 0 c 0
 62 0 -7 100 -7 199 c 0
 -7 301 64 408 194 408 c 0
194 34 m 0
 275 34 302 128 302 204 c 0
 302 280 276 369 196 369 c 0
 116 369 90 281 90 204 c 0
 90 127 113 34 194 34 c 0
EndSplineSet
EndChar

StartChar: otilde
Encoding: 245 245 205
Width: 450
Flags: MW
HStem: 0 34<153.5 234.5 153.5 264> 369 39<156 236>
VStem: -7 97<165.5 242.5 165.5 250> 302 93<166 242>
LayerCount: 2
Fore
SplineSet
194 408 m 0
 324 408 395 300 395 199 c 0
 395 99 331 0 197 0 c 0
 62 0 -7 100 -7 199 c 0
 -7 301 64 408 194 408 c 0
194 34 m 0
 275 34 302 128 302 204 c 0
 302 280 276 369 196 369 c 0
 116 369 90 281 90 204 c 0
 90 127 113 34 194 34 c 0
144 520 m 0
 90 533 71 457 83 506 c 0
 99 571 138 561 169 553 c 2
 202 545 l 1
 202 545 l 1
 202 545 238 536 250 533 c 0
 304 519 323 596 311 546 c 1
 294 482 256 491 225 499 c 2
 192 508 l 1
 192 508 l 1
 192 508 155 517 144 520 c 0
EndSplineSet
EndChar

StartChar: odieresis
Encoding: 246 246 206
Width: 450
Flags: MW
HStem: 0 34<153.5 234.5 153.5 264> 369 39<156 236> 476 67<124.5 157 241.5 274.5>
VStem: -7 97<165.5 242.5 165.5 250> 302 93<166 242>
LayerCount: 2
Fore
SplineSet
194 408 m 0
 324 408 395 300 395 199 c 0
 395 99 331 0 197 0 c 0
 62 0 -7 100 -7 199 c 0
 -7 301 64 408 194 408 c 0
194 34 m 0
 275 34 302 128 302 204 c 0
 302 280 276 369 196 369 c 0
 116 369 90 281 90 204 c 0
 90 127 113 34 194 34 c 0
141 543 m 0
 174 543 174 518 174 509 c 0
 174 500 174 476 140 476 c 0
 108 476 106 502 106 510 c 0
 106 519 108 543 141 543 c 0
258 543 m 0
 291 543 291 518 291 509 c 0
 291 500 291 476 258 476 c 0
 225 476 223 502 223 510 c 0
 223 519 225 543 258 543 c 0
EndSplineSet
EndChar

StartChar: divide
Encoding: 247 247 207
Width: 573
Flags: MW
HStem: 132 102<261 310> 467 101<261 310>
VStem: 233 103<178 190 176 191.5 512.5 524>
LayerCount: 2
Fore
SplineSet
104 389 m 0
 85 381 57 324 74 310 c 0
 85 300 454 304 465 310 c 0
 484 320 511 375 496 389 c 0
 488 397 127 399 104 389 c 0
286 568 m 0
 335 568 336 531 336 517 c 0
 336 504 335 467 285 467 c 0
 235 467 233 506 233 519 c 0
 233 533 236 568 286 568 c 0
286 234 m 0
 335 234 336 197 336 183 c 0
 336 169 335 132 285 132 c 0
 235 132 233 171 233 185 c 0
 233 198 236 234 286 234 c 0
EndSplineSet
EndChar

StartChar: oslash
Encoding: 248 248 208
Width: 544
Flags: MW
HStem: -12 21G<83 83> -1 45<252 313.5 252 343.5> 358 50<234 293.5> 400 20G<462 462>
VStem: 71 97<191 242 191 250> 381 93<165 216>
LayerCount: 2
Fore
SplineSet
486 396 m 1x5c
 426 336 l 1
 458 297 474 247 474 199 c 0
 474 98 411 -1 276 -1 c 0x6c
 218 -1 173 17 139 45 c 1
 83 -12 l 1
 59 12 l 1
 116 69 l 1
 86 106 71 152 71 199 c 0
 71 301 142 408 273 408 c 0xac
 327 408 370 389 403 360 c 1
 462 420 l 1
 486 396 l 1x5c
168 203 m 0
 168 179 170 153 176 131 c 1
 356 312 l 1
 339 340 313 358 274 358 c 0
 194 358 168 281 168 203 c 0
381 203 m 0
 381 229 378 256 370 279 c 1
 189 96 l 1
 205 65 231 44 273 44 c 0
 354 44 381 127 381 203 c 0
EndSplineSet
EndChar

StartChar: ugrave
Encoding: 249 249 209
Width: 481
Flags: MW
HStem: 0 47<181.5 236>
VStem: 39 89<156 188 188 196 188 188 196 202 202 227 227 227 227 227> 342 83<76.5 265>
LayerCount: 2
Fore
SplineSet
457 48 m 0
 483 80 487 41 471 24 c 0
 455 8 440 0 403 0 c 0
 358 0 346 30 343 79 c 1
 307 38 264 0 208 0 c 0
 143 0 39 62 39 156 c 0
 39 168 39 179 39 188 c 1
 39 188 l 1
 39 196 l 2
 39 209 39 219 39 227 c 1
 39 227 l 1
 40 265 l 1
 0 265 l 1
 0 308 l 1
 0 308 94 393 104 403 c 0
 114 413 128 410 128 379 c 0
 128 314 128 230 128 174 c 0
 128 117 136 47 227 47 c 0
 273 47 322 123 342 159 c 1
 342 223 342 265 342 265 c 1
 342 265 340 320 345 339 c 0
 353 377 382 389 409 394 c 0
 426 397 428 396 428 366 c 0
 428 325 425 177 425 108 c 0
 425 45 431 15 457 48 c 0
199 587 m 0
 224 612 243 594 249 587 c 1
 256 581 292 534 304 490 c 0
 304 488 306 485 305 484 c 0
 303 483 301 484 298 484 c 0
 253 496 204 530 198 536 c 0
 191 543 174 562 199 587 c 0
EndSplineSet
EndChar

StartChar: uacute
Encoding: 250 250 210
Width: 481
Flags: MW
HStem: 0 47<181.5 236>
VStem: 39 89<156 188 188 196 188 188 196 202 202 227 227 227 227 227> 342 83<76.5 265>
LayerCount: 2
Fore
SplineSet
457 48 m 0
 483 80 487 41 471 24 c 0
 455 8 440 0 403 0 c 0
 358 0 346 30 343 79 c 1
 307 38 264 0 208 0 c 0
 143 0 39 62 39 156 c 0
 39 168 39 179 39 188 c 1
 39 188 l 1
 39 196 l 2
 39 209 39 219 39 227 c 1
 39 227 l 1
 40 265 l 1
 0 265 l 1
 0 308 l 1
 0 308 94 393 104 403 c 0
 114 413 128 410 128 379 c 0
 128 314 128 230 128 174 c 0
 128 117 136 47 227 47 c 0
 273 47 322 123 342 159 c 1
 342 223 342 265 342 265 c 1
 342 265 340 320 345 339 c 0
 353 377 382 389 409 394 c 0
 426 397 428 396 428 366 c 0
 428 325 425 177 425 108 c 0
 425 45 431 15 457 48 c 0
281 587 m 0
 306 562 289 543 282 536 c 0
 276 530 227 496 182 484 c 0
 179 484 177 483 175 484 c 0
 174 485 176 488 176 490 c 0
 188 534 224 581 231 587 c 1
 237 594 256 612 281 587 c 0
EndSplineSet
EndChar

StartChar: ucircumflex
Encoding: 251 251 211
Width: 481
Flags: MW
HStem: 0 47<181.5 236> 599 20G<247 247>
VStem: 39 89<156 188 188 196 188 188 196 202 202 227 227 227 227 227> 342 83<76.5 265>
LayerCount: 2
Fore
SplineSet
242 615 m 1
 247 619 l 1
 251 615 l 1
 451 444 l 1
 448 440 l 1
 247 535 l 1
 47 440 l 1
 43 444 l 1
 242 615 l 1
457 48 m 0
 483 80 487 41 471 24 c 0
 455 8 440 0 403 0 c 0
 358 0 346 30 343 79 c 1
 307 38 264 0 208 0 c 0
 143 0 39 62 39 156 c 0
 39 168 39 179 39 188 c 1
 39 188 l 1
 39 196 l 2
 39 209 39 219 39 227 c 1
 39 227 l 1
 40 265 l 1
 0 265 l 1
 0 308 l 1
 0 308 94 393 104 403 c 0
 114 413 128 410 128 379 c 0
 128 314 128 230 128 174 c 0
 128 117 136 47 227 47 c 0
 273 47 322 123 342 159 c 1
 342 223 342 265 342 265 c 1
 342 265 340 320 345 339 c 0
 353 377 382 389 409 394 c 0
 426 397 428 396 428 366 c 0
 428 325 425 177 425 108 c 0
 425 45 431 15 457 48 c 0
EndSplineSet
EndChar

StartChar: udieresis
Encoding: 252 252 212
Width: 481
Flags: MW
HStem: 0 47<181.5 236> 476 67<167.5 200 284.5 317.5>
VStem: 39 89<156 188 188 196 188 188 196 202 202 227 227 227 227 227> 342 83<76.5 265>
LayerCount: 2
Fore
SplineSet
457 48 m 0
 483 80 487 41 471 24 c 0
 455 8 440 0 403 0 c 0
 358 0 346 30 343 79 c 1
 307 38 264 0 208 0 c 0
 143 0 39 62 39 156 c 0
 39 168 39 179 39 188 c 1
 39 188 l 1
 39 196 l 2
 39 209 39 219 39 227 c 1
 39 227 l 1
 40 265 l 1
 0 265 l 1
 0 308 l 1
 0 308 94 393 104 403 c 0
 114 413 128 410 128 379 c 0
 128 314 128 230 128 174 c 0
 128 117 136 47 227 47 c 0
 273 47 322 123 342 159 c 1
 342 223 342 265 342 265 c 1
 342 265 340 320 345 339 c 0
 353 377 382 389 409 394 c 0
 426 397 428 396 428 366 c 0
 428 325 425 177 425 108 c 0
 425 45 431 15 457 48 c 0
184 543 m 0
 217 543 217 518 217 509 c 0
 217 500 217 476 183 476 c 0
 151 476 149 502 149 510 c 0
 149 519 151 543 184 543 c 0
301 543 m 0
 334 543 334 518 334 509 c 0
 334 500 334 476 301 476 c 0
 268 476 266 502 266 510 c 0
 266 519 268 543 301 543 c 0
EndSplineSet
EndChar

StartChar: yacute
Encoding: 253 253 213
Width: 454
Flags: MW
HStem: -299 29<63 104.5 63 113.5> -299 138<44.5 61 40.5 113.5> 366 42<0 8.5 0 158 288 325.5 441 454>
VStem: 0 90<-223 -195.5>
LayerCount: 2
Fore
SplineSet
288 408 m 1xb0
 454 408 l 1
 454 366 l 1
 428 366 419 363 388 294 c 0
 358 225 307 69 243 -97 c 0
 178 -264 148 -299 79 -299 c 0
 10 -299 0 -249 0 -213 c 0
 0 -178 30 -161 51 -161 c 0x70
 71 -161 90 -175 90 -207 c 0
 90 -239 59 -252 38 -252 c 1
 38 -252 47 -270 79 -270 c 0
 130 -270 166 -204 201 -98 c 0
 207 -81 214 -61 222 -39 c 1
 187 32 66 284 47 324 c 0
 25 371 17 366 0 366 c 1
 0 408 l 1
 158 408 l 1
 158 366 l 1
 158 362 l 1
 127 362 119 356 134 324 c 0
 147 297 231 128 260 69 c 1
 295 163 330 260 344 296 c 0
 369 363 363 366 288 366 c 1
 288 408 l 1xb0
268 587 m 0
 293 562 276 543 269 536 c 0
 263 530 214 496 169 484 c 0
 166 484 164 483 162 484 c 0
 161 485 163 488 163 490 c 0
 175 534 211 581 218 587 c 1
 224 594 243 612 268 587 c 0
EndSplineSet
EndChar

StartChar: ydieresis
Encoding: 255 255 214
Width: 454
Flags: MW
HStem: -299 29<63 104.5 63 113.5> -299 138<44.5 61 40.5 113.5> 366 42<0 8.5 0 158 288 325.5 441 454> 476 67<161.5 194 278.5 311.5>
VStem: 0 90<-223 -195.5>
LayerCount: 2
Fore
SplineSet
288 408 m 1xb8
 454 408 l 1
 454 366 l 1
 428 366 419 363 388 294 c 0
 358 225 307 69 243 -97 c 0
 178 -264 148 -299 79 -299 c 0
 10 -299 0 -249 0 -213 c 0
 0 -178 30 -161 51 -161 c 0x78
 71 -161 90 -175 90 -207 c 0
 90 -239 59 -252 38 -252 c 1
 38 -252 47 -270 79 -270 c 0
 130 -270 166 -204 201 -98 c 0
 207 -81 214 -61 222 -39 c 1
 187 32 66 284 47 324 c 0
 25 371 17 366 0 366 c 1
 0 408 l 1
 158 408 l 1
 158 366 l 1
 158 362 l 1
 127 362 119 356 134 324 c 0
 147 297 231 128 260 69 c 1
 295 163 330 260 344 296 c 0
 369 363 363 366 288 366 c 1
 288 408 l 1xb8
178 543 m 0
 211 543 211 518 211 509 c 0
 211 500 211 476 177 476 c 0
 145 476 143 502 143 510 c 0
 143 519 145 543 178 543 c 0
295 543 m 0
 328 543 328 518 328 509 c 0
 328 500 328 476 295 476 c 0
 262 476 260 502 260 510 c 0
 260 519 262 543 295 543 c 0
EndSplineSet
EndChar

StartChar: thorn
Encoding: 254 254 215
Width: 582
Flags: MW
HStem: -299 42<76 90.5 220.5 238 76 90.5> -6 44<316 353 294 391.5> 357 39<289.5 355>
VStem: 76 124<-299 -176 -265 -176 562 605 605 605> 109 91<-189 -176 -176 60 121 152.5 152.5 291 345 350.5 350.5 562 562 562> 437 79<147.5 248.5>
LayerCount: 2
Fore
SplineSet
331 396 m 0xf4
 418 396 516 321 516 199 c 0
 516 77 430 -6 353 -6 c 0
 279 -6 205 56 200 60 c 1
 200 -53 200 -161 200 -191 c 0
 200 -246 203 -257 238 -257 c 1
 238 -280 238 -299 238 -299 c 1
 76 -299 l 1
 76 -299 76 -273 76 -257 c 1xf4
 105 -257 109 -252 109 -189 c 0
 109 -115 109 562 109 562 c 1xec
 76 562 l 1
 76 605 l 1
 76 605 161 672 177 688 c 0
 193 704 200 708 200 677 c 0
 200 674 200 356 200 345 c 1
 203 348 248 396 331 396 c 0xf4
323 38 m 0
 383 38 437 97 437 198 c 0
 437 299 392 357 318 357 c 0
 247 357 204 296 200 291 c 1
 200 245 200 184 200 121 c 1
 204 115 265 38 323 38 c 0
EndSplineSet
EndChar
